<svg width="15" height="15" viewBox="0 0 15 15" fill="none" xmlns="http://www.w3.org/2000/svg">
<g clip-path="url(#clip0_102_110)">
<path d="M11.25 3.12498H11.875V3.74998C11.875 3.91574 11.9409 4.07471 12.0581 4.19193C12.1753 4.30914 12.3342 4.37498 12.5 4.37498C12.6658 4.37498 12.8247 4.30914 12.9419 4.19193C13.0592 4.07471 13.125 3.91574 13.125 3.74998V3.12498H13.75C13.9158 3.12498 14.0747 3.05914 14.1919 2.94193C14.3092 2.82472 14.375 2.66574 14.375 2.49998C14.375 2.33422 14.3092 2.17525 14.1919 2.05804C14.0747 1.94083 13.9158 1.87498 13.75 1.87498H13.125V1.24998C13.125 1.08422 13.0592 0.925252 12.9419 0.808042C12.8247 0.690832 12.6658 0.624984 12.5 0.624984C12.3342 0.624984 12.1753 0.690832 12.0581 0.808042C11.9409 0.925252 11.875 1.08422 11.875 1.24998V1.87498H11.25C11.0842 1.87498 10.9253 1.94083 10.8081 2.05804C10.6909 2.17525 10.625 2.33422 10.625 2.49998C10.625 2.66574 10.6909 2.82472 10.8081 2.94193C10.9253 3.05914 11.0842 3.12498 11.25 3.12498ZM4.375 4.37498V10.625C4.375 10.7907 4.44085 10.9497 4.55806 11.0669C4.67527 11.1841 4.83424 11.25 5 11.25C5.16576 11.25 5.32473 11.1841 5.44194 11.0669C5.55915 10.9497 5.625 10.7907 5.625 10.625V4.37498C5.625 4.20922 5.55915 4.05025 5.44194 3.93304C5.32473 3.81583 5.16576 3.74998 5 3.74998C4.83424 3.74998 4.67527 3.81583 4.55806 3.93304C4.44085 4.05025 4.375 4.20922 4.375 4.37498ZM13.5 5.62498C13.4196 5.64138 13.3431 5.67347 13.2751 5.71941C13.2071 5.76536 13.1487 5.82425 13.1035 5.89274C13.0582 5.96123 13.0269 6.03796 13.0113 6.11856C12.9956 6.19916 12.9961 6.28205 13.0125 6.36248C13.2565 7.54761 13.1119 8.77984 12.6001 9.87625C12.0883 10.9727 11.2365 11.8748 10.1713 12.4488C9.10614 13.0227 7.88426 13.2379 6.68707 13.0624C5.48988 12.8869 4.3812 12.33 3.52561 11.4744C2.67001 10.6188 2.11312 9.51011 1.93759 8.31292C1.76205 7.11573 1.97724 5.89384 2.55121 4.82865C3.12518 3.76345 4.02732 2.91173 5.12374 2.39991C6.22015 1.88809 7.45237 1.74346 8.6375 1.98748C8.80326 2.02064 8.9754 1.98658 9.11606 1.89281C9.25671 1.79905 9.35435 1.65324 9.3875 1.48748C9.42066 1.32172 9.3866 1.14958 9.29283 1.00893C9.19907 0.868278 9.05326 0.770636 8.8875 0.737484C8.43012 0.652266 7.96514 0.614565 7.5 0.624984C6.14026 0.624984 4.81105 1.0282 3.68046 1.78363C2.54987 2.53906 1.66868 3.61279 1.14833 4.86903C0.627979 6.12528 0.491831 7.50761 0.757104 8.84123C1.02238 10.1748 1.67716 11.3999 2.63864 12.3613C3.60013 13.3228 4.82514 13.9776 6.15876 14.2429C7.49238 14.5082 8.87471 14.372 10.131 13.8517C11.3872 13.3313 12.4609 12.4501 13.2164 11.3195C13.9718 10.1889 14.375 8.85973 14.375 7.49998C14.3763 7.03815 14.3303 6.57741 14.2375 6.12498C14.2225 6.04342 14.1915 5.96565 14.1462 5.8962C14.1008 5.82676 14.0421 5.76703 13.9735 5.72049C13.9049 5.67395 13.8276 5.64154 13.7463 5.62515C13.6651 5.60875 13.5813 5.60869 13.5 5.62498ZM6.875 5.62498V6.24998C6.87776 6.71252 7.05138 7.15771 7.3625 7.49998C7.05138 7.84226 6.87776 8.28745 6.875 8.74998V9.37498C6.875 9.87226 7.07255 10.3492 7.42418 10.7008C7.77581 11.0524 8.25272 11.25 8.75 11.25H9.375C9.87228 11.25 10.3492 11.0524 10.7008 10.7008C11.0525 10.3492 11.25 9.87226 11.25 9.37498V8.74998C11.2472 8.28745 11.0736 7.84226 10.7625 7.49998C11.0736 7.15771 11.2472 6.71252 11.25 6.24998V5.62498C11.25 5.1277 11.0525 4.65079 10.7008 4.29916C10.3492 3.94753 9.87228 3.74998 9.375 3.74998H8.75C8.25272 3.74998 7.77581 3.94753 7.42418 4.29916C7.07255 4.65079 6.875 5.1277 6.875 5.62498ZM10 9.37498C10 9.54074 9.93415 9.69972 9.81694 9.81693C9.69973 9.93414 9.54076 9.99998 9.375 9.99998H8.75C8.58424 9.99998 8.42527 9.93414 8.30806 9.81693C8.19085 9.69972 8.125 9.54074 8.125 9.37498V8.74998C8.125 8.58422 8.19085 8.42525 8.30806 8.30804C8.42527 8.19083 8.58424 8.12498 8.75 8.12498H9.375C9.54076 8.12498 9.69973 8.19083 9.81694 8.30804C9.93415 8.42525 10 8.58422 10 8.74998V9.37498ZM10 5.62498V6.24998C10 6.41574 9.93415 6.57472 9.81694 6.69193C9.69973 6.80914 9.54076 6.87498 9.375 6.87498H8.75C8.58424 6.87498 8.42527 6.80914 8.30806 6.69193C8.19085 6.57472 8.125 6.41574 8.125 6.24998V5.62498C8.125 5.45922 8.19085 5.30025 8.30806 5.18304C8.42527 5.06583 8.58424 4.99998 8.75 4.99998H9.375C9.54076 4.99998 9.69973 5.06583 9.81694 5.18304C9.93415 5.30025 10 5.45922 10 5.62498Z" fill="white"/>
</g>
<defs>
<clipPath id="clip0_102_110">
<rect width="15" height="15" fill="white"/>
</clipPath>
</defs>
</svg>
