<svg width="30" height="30" viewBox="0 0 30 30" fill="none" xmlns="http://www.w3.org/2000/svg">
<path d="M14.962 12.6651C14.962 12.9451 15.187 13.1651 15.462 13.1651C16.032 13.1651 16.492 13.6301 16.492 14.1951C16.492 14.4701 16.717 14.6951 16.992 14.6951C17.267 14.6951 17.492 14.4701 17.492 14.1951C17.492 13.0751 16.582 12.1651 15.462 12.1651C15.187 12.1651 14.962 12.3901 14.962 12.6651ZM23.102 14.6951C23.382 14.6951 23.602 14.4701 23.602 14.1951C23.602 9.70505 19.952 6.05505 15.462 6.05505C15.187 6.05505 14.962 6.28005 14.962 6.55505C14.962 6.83005 15.187 7.05505 15.462 7.05505C19.402 7.05505 22.602 10.2601 22.602 14.1951C22.602 14.4701 22.827 14.6951 23.102 14.6951Z" fill="#F79321"/>
<path d="M19.547 14.195C19.547 14.47 19.772 14.695 20.047 14.695C20.322 14.695 20.547 14.47 20.547 14.195C20.547 11.39 18.267 9.11 15.462 9.11C15.187 9.11 14.962 9.335 14.962 9.61C14.962 9.89 15.187 10.11 15.462 10.11C17.717 10.11 19.547 11.945 19.547 14.195ZM15.462 3C15.187 3 14.962 3.225 14.962 3.5C14.962 3.775 15.187 4 15.462 4C21.087 4 25.662 8.575 25.662 14.195C25.662 14.47 25.882 14.695 26.162 14.695C26.437 14.695 26.662 14.47 26.662 14.195C26.662 8.02 21.637 3 15.462 3ZM20.347 19.465L19.692 19.82C18.587 20.425 17.187 20.22 16.292 19.325L11.012 14.045C10.117 13.15 9.91201 11.75 10.517 10.64L10.872 9.99C11.272 9.25 11.417 8.42 11.297 7.59C11.1837 6.76168 10.8006 5.99376 10.207 5.405C9.47701 4.675 8.50701 4.275 7.47201 4.275C6.43701 4.275 5.46201 4.675 4.73201 5.405L4.47701 5.665C3.12701 7.015 2.97201 9.34 4.03701 12.22C5.04201 14.97 7.06701 17.95 9.72701 20.61C13.782 24.665 18.297 27 21.537 27C22.817 27 23.902 26.635 24.672 25.865L24.932 25.605C25.2921 25.2453 25.5776 24.8182 25.7724 24.348C25.9672 23.8779 26.0673 23.3739 26.067 22.865C26.06 21.8402 25.6527 20.8587 24.932 20.13C23.727 18.925 21.842 18.655 20.347 19.465Z" fill="#F79321"/>
</svg>
