<svg width="25" height="25" viewBox="0 0 25 25" fill="none" xmlns="http://www.w3.org/2000/svg">
<path d="M14.5833 12.5H8.33333C8.05707 12.5 7.79211 12.6097 7.59676 12.8051C7.40141 13.0004 7.29167 13.2654 7.29167 13.5416C7.29167 13.8179 7.40141 14.0829 7.59676 14.2782C7.79211 14.4736 8.05707 14.5833 8.33333 14.5833H14.5833C14.8596 14.5833 15.1246 14.4736 15.3199 14.2782C15.5153 14.0829 15.625 13.8179 15.625 13.5416C15.625 13.2654 15.5153 13.0004 15.3199 12.8051C15.1246 12.6097 14.8596 12.5 14.5833 12.5ZM20.2188 19.7916L21.5729 18.4479C21.7691 18.2517 21.8793 17.9857 21.8793 17.7083C21.8793 17.4309 21.7691 17.1649 21.5729 16.9687C21.3768 16.7726 21.1107 16.6624 20.8333 16.6624C20.5559 16.6624 20.2899 16.7726 20.0938 16.9687L18.75 18.3229L17.4062 16.9687C17.2101 16.7726 16.9441 16.6624 16.6667 16.6624C16.3893 16.6624 16.1232 16.7726 15.9271 16.9687C15.7309 17.1649 15.6207 17.4309 15.6207 17.7083C15.6207 17.9857 15.7309 18.2517 15.9271 18.4479L17.2813 19.7916L15.9271 21.1354C15.8295 21.2322 15.752 21.3474 15.6991 21.4744C15.6462 21.6013 15.619 21.7375 15.619 21.875C15.619 22.0125 15.6462 22.1486 15.6991 22.2756C15.752 22.4025 15.8295 22.5177 15.9271 22.6146C16.0239 22.7122 16.1391 22.7897 16.2661 22.8426C16.393 22.8955 16.5292 22.9227 16.6667 22.9227C16.8042 22.9227 16.9403 22.8955 17.0673 22.8426C17.1942 22.7897 17.3094 22.7122 17.4062 22.6146L18.75 21.2604L20.0938 22.6146C20.1906 22.7122 20.3058 22.7897 20.4327 22.8426C20.5597 22.8955 20.6958 22.9227 20.8333 22.9227C20.9708 22.9227 21.107 22.8955 21.2339 22.8426C21.3609 22.7897 21.4761 22.7122 21.5729 22.6146C21.6706 22.5177 21.748 22.4025 21.8009 22.2756C21.8538 22.1486 21.881 22.0125 21.881 21.875C21.881 21.7375 21.8538 21.6013 21.8009 21.4744C21.748 21.3474 21.6706 21.2322 21.5729 21.1354L20.2188 19.7916ZM12.5 20.8333H6.25C5.97373 20.8333 5.70878 20.7236 5.51343 20.5282C5.31808 20.3329 5.20833 20.0679 5.20833 19.7916V5.20831C5.20833 4.93205 5.31808 4.66709 5.51343 4.47174C5.70878 4.27639 5.97373 4.16665 6.25 4.16665H11.4583V7.29165C11.4583 8.12045 11.7876 8.9153 12.3736 9.50136C12.9597 10.0874 13.7545 10.4166 14.5833 10.4166H17.7083V13.5416C17.7083 13.8179 17.8181 14.0829 18.0134 14.2782C18.2088 14.4736 18.4737 14.5833 18.75 14.5833C19.0263 14.5833 19.2912 14.4736 19.4866 14.2782C19.6819 14.0829 19.7917 13.8179 19.7917 13.5416V9.37498C19.7917 9.37498 19.7917 9.37498 19.7917 9.31248C19.7808 9.21679 19.7599 9.12251 19.7292 9.03123V8.93748C19.6791 8.83037 19.6123 8.73192 19.5313 8.64581L13.2813 2.39581C13.1951 2.31479 13.0967 2.24798 12.9896 2.1979C12.9551 2.19186 12.9199 2.19186 12.8854 2.1979C12.7841 2.14373 12.6753 2.10511 12.5625 2.08331H6.25C5.4212 2.08331 4.62634 2.41255 4.04029 2.9986C3.45424 3.58466 3.125 4.37951 3.125 5.20831V19.7916C3.125 20.6204 3.45424 21.4153 4.04029 22.0014C4.62634 22.5874 5.4212 22.9166 6.25 22.9166H12.5C12.7763 22.9166 13.0412 22.8069 13.2366 22.6115C13.4319 22.4162 13.5417 22.1512 13.5417 21.875C13.5417 21.5987 13.4319 21.3338 13.2366 21.1384C13.0412 20.9431 12.7763 20.8333 12.5 20.8333ZM13.5417 5.6354L16.2396 8.33331H14.5833C14.3071 8.33331 14.0421 8.22357 13.8468 8.02822C13.6514 7.83287 13.5417 7.56791 13.5417 7.29165V5.6354ZM8.33333 8.33331C8.05707 8.33331 7.79211 8.44306 7.59676 8.63841C7.40141 8.83376 7.29167 9.09871 7.29167 9.37498C7.29167 9.65125 7.40141 9.9162 7.59676 10.1115C7.79211 10.3069 8.05707 10.4166 8.33333 10.4166H9.375C9.65127 10.4166 9.91622 10.3069 10.1116 10.1115C10.3069 9.9162 10.4167 9.65125 10.4167 9.37498C10.4167 9.09871 10.3069 8.83376 10.1116 8.63841C9.91622 8.44306 9.65127 8.33331 9.375 8.33331H8.33333ZM12.5 16.6666H8.33333C8.05707 16.6666 7.79211 16.7764 7.59676 16.9717C7.40141 17.1671 7.29167 17.432 7.29167 17.7083C7.29167 17.9846 7.40141 18.2495 7.59676 18.4449C7.79211 18.6402 8.05707 18.75 8.33333 18.75H12.5C12.7763 18.75 13.0412 18.6402 13.2366 18.4449C13.4319 18.2495 13.5417 17.9846 13.5417 17.7083C13.5417 17.432 13.4319 17.1671 13.2366 16.9717C13.0412 16.7764 12.7763 16.6666 12.5 16.6666Z" fill="#FF6464"/>
</svg>
