<svg width="25" height="25" viewBox="0 0 25 25" fill="none" xmlns="http://www.w3.org/2000/svg">
<g clip-path="url(#clip0_346_1645)">
<path d="M12.5 0.78125C10.1823 0.78125 7.91655 1.46854 5.98942 2.75622C4.06228 4.04389 2.56026 5.87411 1.67329 8.01543C0.786328 10.1567 0.554257 12.513 1.00643 14.7862C1.4586 17.0594 2.5747 19.1475 4.2136 20.7864C5.85249 22.4253 7.94058 23.5414 10.2138 23.9936C12.487 24.4457 14.8433 24.2137 16.9846 23.3267C19.1259 22.4397 20.9561 20.9377 22.2438 19.0106C23.5315 17.0835 24.2188 14.8177 24.2188 12.5C24.2188 9.39199 22.9841 6.41128 20.7864 4.21359C18.5887 2.0159 15.608 0.78125 12.5 0.78125ZM12.5 21.0938C10.8003 21.0938 9.13881 20.5897 7.72557 19.6454C6.31234 18.7011 5.21086 17.359 4.56042 15.7887C3.90997 14.2184 3.73979 12.4905 4.07138 10.8234C4.40297 9.15642 5.22145 7.62516 6.42331 6.4233C7.62516 5.22144 9.15642 4.40297 10.8234 4.07138C12.4905 3.73978 14.2184 3.90997 15.7887 4.56041C17.359 5.21085 18.7012 6.31233 19.6454 7.72557C20.5897 9.1388 21.0938 10.8003 21.0938 12.5C21.0938 14.7792 20.1883 16.9651 18.5767 18.5767C16.9651 20.1883 14.7792 21.0938 12.5 21.0938Z" fill="#69B344"/>
<path d="M15.3046 9.0547L11.7186 12.6328L10.4765 11.3906C10.1833 11.0975 9.78562 10.9327 9.37099 10.9327C8.95635 10.9327 8.55871 11.0975 8.26552 11.3906C7.97233 11.6838 7.80762 12.0815 7.80762 12.4961C7.80762 12.9107 7.97233 13.3084 8.26552 13.6016L10.6093 15.9453C10.7544 16.0906 10.9267 16.2059 11.1164 16.2845C11.3061 16.3631 11.5094 16.4036 11.7147 16.4036C11.9201 16.4036 12.1234 16.3631 12.3131 16.2845C12.5028 16.2059 12.6751 16.0906 12.8202 15.9453L17.5077 11.2578C17.8009 10.9646 17.9656 10.567 17.9656 10.1524C17.9656 9.73773 17.8009 9.34008 17.5077 9.04689C17.2145 8.7537 16.8169 8.58899 16.4022 8.58899C15.9876 8.58899 15.59 8.7537 15.2968 9.04689L15.3046 9.0547Z" fill="#69B344"/>
</g>
<defs>
<clipPath id="clip0_346_1645">
<rect width="25" height="25" fill="white"/>
</clipPath>
</defs>
</svg>
