<svg width="20" height="20" viewBox="0 0 20 20" fill="none" xmlns="http://www.w3.org/2000/svg">
<path d="M16.0583 3.9C15.8681 3.76293 15.6482 3.67263 15.4166 3.63643C15.1849 3.60023 14.948 3.61916 14.725 3.69167C14.1368 3.85707 13.5276 3.93568 12.9167 3.925C12.0138 3.87599 11.1286 3.65539 10.3083 3.275C9.29501 2.80636 8.19894 2.54296 7.08333 2.5C4.67499 2.5 3.74999 3.33333 3.58333 3.45C3.50358 3.52816 3.44036 3.62155 3.39742 3.72462C3.35447 3.82769 3.33268 3.93834 3.33333 4.05V16.6667C3.33333 16.8877 3.42112 17.0996 3.57741 17.2559C3.73369 17.4122 3.94565 17.5 4.16666 17.5C4.38767 17.5 4.59964 17.4122 4.75592 17.2559C4.9122 17.0996 4.99999 16.8877 4.99999 16.6667V13.0833C5.66402 12.8291 6.37288 12.7128 7.08333 12.7417C7.98617 12.7907 8.8714 13.0113 9.69166 13.3917C10.705 13.8603 11.801 14.1237 12.9167 14.1667C13.9213 14.2046 14.9206 14.0047 15.8333 13.5833C16.0793 13.4678 16.2879 13.2854 16.4352 13.057C16.5826 12.8286 16.6628 12.5634 16.6667 12.2917V5.09167C16.6664 4.85915 16.6111 4.62999 16.5054 4.42289C16.3997 4.21579 16.2465 4.03662 16.0583 3.9ZM15 12.1583C14.3357 12.4117 13.627 12.5279 12.9167 12.5C12.0127 12.4521 11.1267 12.2285 10.3083 11.8417C9.29308 11.3798 8.19782 11.1194 7.08333 11.075C6.38124 11.0629 5.68067 11.1442 4.99999 11.3167V4.51667C5.66247 4.25611 6.37208 4.1369 7.08333 4.16667C7.98729 4.21457 8.87324 4.43818 9.69166 4.825C10.7069 5.28687 11.8022 5.54725 12.9167 5.59167C13.6192 5.60204 14.3199 5.51795 15 5.34167V12.1583Z" fill="white"/>
</svg>
