<svg width="30" height="30" viewBox="0 0 30 30" fill="none" xmlns="http://www.w3.org/2000/svg">
<path d="M21.9375 30H8.06249C6.27655 30 4.82343 28.5469 4.82343 26.7609V3.23906C4.82343 1.45312 6.27655 0 8.06249 0H21.9375C23.7234 0 25.1765 1.45312 25.1765 3.23906V26.7563C25.1765 28.5469 23.7234 30 21.9375 30ZM8.06249 2.175C7.47186 2.175 6.99374 2.65313 6.99374 3.24375V26.7609C6.99374 27.3516 7.47186 27.8297 8.06249 27.8297H21.9375C22.5281 27.8297 23.0062 27.3516 23.0062 26.7609V3.23906C23.0062 2.64844 22.5281 2.17031 21.9375 2.17031H8.06249V2.175Z" fill="white"/>
<path d="M24.089 6.94221H5.91093C5.31093 6.94221 4.82343 6.45471 4.82343 5.85471C4.82343 5.25471 5.31093 4.76721 5.91093 4.76721H24.0937C24.6937 4.76721 25.1812 5.25471 25.1812 5.85471C25.1791 6.1433 25.0632 6.4194 24.8587 6.62303C24.6542 6.82665 24.3776 6.94136 24.089 6.94221ZM24.089 24.361H5.91093C5.31093 24.361 4.82343 23.8735 4.82343 23.2735C4.82343 22.6735 5.31093 22.186 5.91093 22.186H24.0937C24.6937 22.186 25.1812 22.6735 25.1812 23.2735C25.1791 23.562 25.0632 23.8382 24.8587 24.0418C24.6542 24.2454 24.3776 24.3601 24.089 24.361Z" fill="white"/>
<path d="M17.5125 19.1859H12.4875C11.8875 19.1859 11.4 18.6984 11.4 18.0984V15.6562C11.4 15.0562 11.8875 14.5687 12.4875 14.5687C13.0875 14.5687 13.575 15.0562 13.575 15.6562V17.0109H16.425V15.6562C16.425 15.0562 16.9125 14.5687 17.5125 14.5687C18.1125 14.5687 18.6 15.0562 18.6 15.6562V18.0984C18.6 18.6984 18.1125 19.1859 17.5125 19.1859Z" fill="white"/>
<path d="M10.8328 15.1734C10.5656 15.1734 10.2938 15.075 10.0828 14.8734C9.64689 14.4609 9.62814 13.7719 10.0406 13.3359L14.2078 8.94376C14.4141 8.72814 14.7 8.60626 14.9953 8.60626C15.2953 8.60626 15.5766 8.72814 15.7828 8.94376L19.95 13.3359C20.3625 13.7719 20.3438 14.4609 19.9078 14.8734C19.4719 15.2859 18.7828 15.2672 18.3703 14.8313L15 11.2688L11.6203 14.8313C11.4047 15.0563 11.1188 15.1734 10.8328 15.1734Z" fill="white"/>
</svg>
