<svg width="20" height="20" viewBox="0 0 20 20" fill="none" xmlns="http://www.w3.org/2000/svg">
<path d="M4.57812 15.7031H15.4219C15.9725 15.7015 16.5001 15.482 16.8895 15.0926C17.2789 14.7033 17.4984 14.1756 17.5 13.625V6.375C17.5 5.82385 17.2811 5.29527 16.8913 4.90554C16.5016 4.51582 15.973 4.29687 15.4219 4.29688H4.57812C4.02697 4.29688 3.49839 4.51582 3.10867 4.90554C2.71894 5.29527 2.5 5.82385 2.5 6.375V13.625C2.5 14.1762 2.71894 14.7047 3.10867 15.0945C3.49839 15.4842 4.02697 15.7031 4.57812 15.7031ZM9.72188 14.7656C9.83498 14.1255 10.1699 13.5457 10.668 13.1279C11.166 12.7102 11.7953 12.4812 12.4453 12.4812C13.0953 12.4812 13.7246 12.7102 14.2226 13.1279C14.7207 13.5457 15.0556 14.1255 15.1688 14.7656H9.72188ZM3.4375 6.375C3.43832 6.07274 3.55876 5.7831 3.77249 5.56937C3.98622 5.35564 4.27587 5.2352 4.57812 5.23438H15.4219C15.7241 5.2352 16.0138 5.35564 16.2275 5.56937C16.4412 5.7831 16.5617 6.07274 16.5625 6.375V13.625C16.5639 13.8082 16.5212 13.989 16.438 14.1522C16.3548 14.3154 16.2335 14.4561 16.0844 14.5625C15.9192 13.6978 15.4514 12.9202 14.7648 12.3692C14.0782 11.8181 13.2178 11.5298 12.3378 11.5557C11.4578 11.5817 10.6159 11.9203 9.96298 12.5108C9.31007 13.1013 8.8889 13.9052 8.775 14.7781H4.57812C4.4274 14.7777 4.27824 14.7475 4.13922 14.6893C4.0002 14.631 3.87406 14.5459 3.76806 14.4387C3.66206 14.3316 3.57829 14.2045 3.52156 14.0649C3.46483 13.9252 3.43626 13.7757 3.4375 13.625V6.375Z" fill="white"/>
<path d="M12.4469 10.5312C12.8587 10.5312 13.2614 10.4092 13.6039 10.1806C13.9465 9.95198 14.2137 9.62699 14.3717 9.24667C14.5297 8.86635 14.5715 8.44773 14.4919 8.04366C14.4122 7.63959 14.2146 7.26817 13.924 6.9763C13.6335 6.68442 13.263 6.48517 12.8592 6.40369C12.4555 6.32221 12.0367 6.36215 11.6557 6.51847C11.2747 6.6748 10.9485 6.9405 10.7183 7.28204C10.4882 7.62358 10.3644 8.02564 10.3625 8.43749C10.3613 8.712 10.4143 8.98405 10.5185 9.23802C10.6227 9.492 10.776 9.72288 10.9697 9.91743C11.1634 10.112 11.3936 10.2663 11.6471 10.3717C11.9006 10.477 12.1724 10.5312 12.4469 10.5312ZM12.4469 7.29999C12.6741 7.3 12.8962 7.3675 13.085 7.49394C13.2738 7.62038 13.4208 7.80006 13.5073 8.01017C13.5939 8.22028 13.616 8.45135 13.571 8.67408C13.526 8.8968 13.4158 9.10113 13.2545 9.26115C13.0931 9.42116 12.8879 9.52965 12.6648 9.57283C12.4417 9.61602 12.2109 9.59197 12.0015 9.50372C11.7921 9.41548 11.6136 9.26702 11.4887 9.07719C11.3638 8.88736 11.2982 8.66471 11.3 8.43749C11.3025 8.13495 11.4244 7.84564 11.6392 7.63258C11.854 7.41952 12.1443 7.29998 12.4469 7.29999ZM5.15314 8.23124H7.36876C7.49308 8.23124 7.61231 8.18185 7.70022 8.09395C7.78813 8.00604 7.83751 7.88681 7.83751 7.76249C7.83751 7.63817 7.78813 7.51894 7.70022 7.43103C7.61231 7.34313 7.49308 7.29374 7.36876 7.29374H5.15314C5.02882 7.29374 4.90959 7.34313 4.82168 7.43103C4.73377 7.51894 4.68439 7.63817 4.68439 7.76249C4.68439 7.88681 4.73377 8.00604 4.82168 8.09395C4.90959 8.18185 5.02882 8.23124 5.15314 8.23124ZM5.15314 10.3531H7.36876C7.49308 10.3531 7.61231 10.3037 7.70022 10.2158C7.78813 10.1279 7.83751 10.0087 7.83751 9.88436C7.83751 9.76004 7.78813 9.64082 7.70022 9.55291C7.61231 9.465 7.49308 9.41561 7.36876 9.41561H5.15314C5.02882 9.41561 4.90959 9.465 4.82168 9.55291C4.73377 9.64082 4.68439 9.76004 4.68439 9.88436C4.68439 10.0087 4.73377 10.1279 4.82168 10.2158C4.90959 10.3037 5.02882 10.3531 5.15314 10.3531Z" fill="white"/>
<path d="M5.3219 13.5719C5.58078 13.5719 5.79065 13.362 5.79065 13.1031C5.79065 12.8443 5.58078 12.6344 5.3219 12.6344C5.06302 12.6344 4.85315 12.8443 4.85315 13.1031C4.85315 13.362 5.06302 13.5719 5.3219 13.5719Z" fill="white"/>
<path d="M7.1969 13.5719C7.45578 13.5719 7.66565 13.362 7.66565 13.1031C7.66565 12.8443 7.45578 12.6344 7.1969 12.6344C6.93802 12.6344 6.72815 12.8443 6.72815 13.1031C6.72815 13.362 6.93802 13.5719 7.1969 13.5719Z" fill="white"/>
</svg>
