<svg width="196" height="21" viewBox="0 0 196 21" fill="none" xmlns="http://www.w3.org/2000/svg">
<path d="M0.230469 17.9785C0.230469 17.4316 0.416016 16.9727 0.787109 16.6016C1.17773 16.2109 1.64648 16.0156 2.19336 16.0156H7.81836V6.58203H2.19336C1.64648 6.58203 1.1875 6.38672 0.816406 5.99609C0.425781 5.625 0.230469 5.16602 0.230469 4.61914C0.230469 4.07227 0.416016 3.61328 0.787109 3.24219C1.17773 2.85156 1.64648 2.65625 2.19336 2.65625H17.3691C17.916 2.65625 18.3848 2.8418 18.7754 3.21289C19.1465 3.60352 19.332 4.07227 19.332 4.61914C19.332 5.16602 19.1367 5.63477 18.7461 6.02539C18.375 6.39648 17.916 6.58203 17.3691 6.58203H11.7734V16.0156H17.3691C17.916 16.0156 18.3848 16.2012 18.7754 16.5723C19.1465 16.9629 19.332 17.4316 19.332 17.9785C19.332 18.5254 19.1367 18.9941 18.7461 19.3848C18.375 19.7559 17.916 19.9414 17.3691 19.9414H2.19336C1.64648 19.9414 1.1875 19.7461 0.816406 19.3555C0.425781 18.9844 0.230469 18.5254 0.230469 17.9785ZM31.6953 6.20117C32.7109 6.20117 33.707 6.31836 34.6836 6.55273C35.6797 6.78711 36.627 7.13867 37.5254 7.60742C38.4238 8.05664 39.2148 8.66211 39.8984 9.42383C40.6016 10.1855 40.9824 11.0938 41.041 12.1484V13.3789V18.3887C40.9238 19.5605 40.2793 20.1953 39.1074 20.293C38.5605 20.293 38.082 20.1172 37.6719 19.7656C37.2812 19.3945 37.0859 18.9355 37.0859 18.3887V17.0996V13.0566C37.0469 12.4512 36.8125 11.9531 36.3828 11.5625C35.9727 11.1523 35.5039 10.8301 34.9766 10.5957C34.4688 10.3613 33.9316 10.1855 33.3652 10.0684C32.8184 9.95117 32.2617 9.89258 31.6953 9.89258C31.1289 9.89258 30.5625 9.95117 29.9961 10.0684C29.4492 10.1855 28.9121 10.3613 28.3848 10.5957C27.877 10.8301 27.4082 11.1523 26.9785 11.5625C26.5684 11.9531 26.3438 12.4512 26.3047 13.0566V17.0996V18.3887C26.207 19.5605 25.5723 20.1953 24.4004 20.293C23.8535 20.293 23.375 20.1172 22.9648 19.7656C22.5742 19.3945 22.3789 18.9355 22.3789 18.3887V13.3789V12.1484C22.4375 11.0938 22.8086 10.1855 23.4922 9.42383C24.1758 8.66211 24.9668 8.05664 25.8652 7.60742C26.7637 7.13867 27.7012 6.78711 28.6777 6.55273C29.6738 6.31836 30.6797 6.20117 31.6953 6.20117ZM78.7168 4.61914C78.7168 5.16602 78.5215 5.625 78.1309 5.99609C77.7598 6.38672 77.3008 6.58203 76.7539 6.58203H65.0352C64.6641 6.60156 64.3516 6.68945 64.0977 6.8457C63.8633 6.98242 63.6875 7.14844 63.5703 7.34375C63.4531 7.51953 63.3945 7.70508 63.3945 7.90039C63.3945 8.0957 63.4531 8.29102 63.5703 8.48633C63.6875 8.66211 63.8633 8.82812 64.0977 8.98438C64.3516 9.12109 64.6641 9.19922 65.0352 9.21875H73.3555C74.7227 9.25781 75.8457 9.58008 76.7246 10.1855C77.623 10.7715 78.2578 11.4551 78.6289 12.2363C79.0195 12.998 79.2148 13.7793 79.2148 14.5801C79.2148 15.3613 79.0195 16.1426 78.6289 16.9238C78.2383 17.6855 77.6035 18.3691 76.7246 18.9746C75.8457 19.5605 74.7227 19.8535 73.3555 19.8535H73.1797C73.0625 19.873 72.9453 19.8828 72.8281 19.8828H61.7539C61.207 19.8828 60.7383 19.6973 60.3477 19.3262C59.9766 18.9355 59.791 18.4668 59.791 17.9199C59.791 17.373 59.9863 16.9141 60.377 16.543C60.748 16.1523 61.207 15.957 61.7539 15.957H73.5312C73.9023 15.9766 74.2051 15.9082 74.4395 15.752C74.6934 15.5957 74.8789 15.4199 74.9961 15.2246C75.1133 15.0098 75.1719 14.7949 75.1719 14.5801C75.1719 14.4434 75.1133 14.2578 74.9961 14.0234C74.8789 13.7695 74.6934 13.5645 74.4395 13.4082C74.2051 13.252 73.9023 13.1641 73.5312 13.1445H65.2109C63.8438 13.1055 62.7109 12.793 61.8125 12.207C60.9336 11.6211 60.2988 10.957 59.9082 10.2148C59.5371 9.45312 59.3516 8.68164 59.3516 7.90039C59.3516 7.13867 59.5469 6.38672 59.9375 5.64453C60.3281 4.88281 60.9629 4.20898 61.8418 3.62305C62.7207 3.03711 63.8438 2.72461 65.2109 2.68555H65.3867C65.5039 2.66602 65.6211 2.65625 65.7383 2.65625H76.7539C77.3008 2.65625 77.7598 2.85156 78.1309 3.24219C78.5215 3.61328 78.7168 4.07227 78.7168 4.61914ZM88.502 19.9414C86.7832 19.8828 85.4844 19.4824 84.6055 18.7402C83.7266 17.9785 83.0918 17.1289 82.7012 16.1914C82.3105 15.2344 82.1152 14.2676 82.1152 13.291C82.1152 12.2754 82.3008 11.2988 82.6719 10.3613C83.0625 9.4043 83.6973 8.55469 84.5762 7.8125C85.4746 7.05078 86.6074 6.66016 87.9746 6.64062H99.1074C99.6543 6.64062 100.113 6.82617 100.484 7.19727C100.875 7.54883 101.07 7.97852 101.07 8.48633C101.07 9.01367 100.875 9.46289 100.484 9.83398C100.113 10.1855 99.6543 10.3613 99.1074 10.3613H88.1504C87.7207 10.3613 87.3398 10.5078 87.0078 10.8008C86.6953 11.0938 86.4609 11.4746 86.3047 11.9434C86.168 12.4121 86.0996 12.8711 86.0996 13.3203C86.0996 13.8086 86.168 14.2871 86.3047 14.7559C86.4609 15.2246 86.6953 15.6055 87.0078 15.8984C87.3398 16.1719 87.7207 16.3184 88.1504 16.3379H99.1074C99.6543 16.3379 100.113 16.5137 100.484 16.8652C100.875 17.2168 101.07 17.6367 101.07 18.125C101.07 18.6328 100.875 19.0625 100.484 19.4141C100.113 19.7656 99.6543 19.9414 99.1074 19.9414H88.502ZM100.719 13.2324C100.719 13.6035 100.553 13.9258 100.221 14.1992C99.9277 14.4531 99.5566 14.5801 99.1074 14.5801H89.5273C89.0781 14.5801 88.6973 14.4531 88.3848 14.1992C88.0723 13.9258 87.916 13.6035 87.916 13.2324C87.916 12.8809 88.0723 12.5684 88.3848 12.2949C88.6973 12.041 89.0781 11.9141 89.5273 11.9141H99.1074C99.5566 11.9141 99.9375 12.0508 100.25 12.3242C100.562 12.5781 100.719 12.8809 100.719 13.2324ZM105.055 10.332C105.426 9.39453 106.051 8.55469 106.93 7.8125C107.828 7.05078 108.961 6.66016 110.328 6.64062H121.344C121.891 6.64062 122.35 6.83594 122.721 7.22656C123.111 7.59766 123.307 8.05664 123.307 8.60352C123.307 9.15039 123.111 9.61914 122.721 10.0098C122.35 10.3809 121.891 10.5664 121.344 10.5664H110.211C109.84 10.5664 109.518 10.7227 109.244 11.0352C108.971 11.3281 108.756 11.6797 108.6 12.0898C108.463 12.5 108.395 12.8906 108.395 13.2617V18.3887C108.277 19.5605 107.633 20.1953 106.461 20.293C105.914 20.293 105.436 20.1172 105.025 19.7656C104.635 19.3945 104.439 18.9355 104.439 18.3887V13.291H104.469C104.469 12.2754 104.664 11.2891 105.055 10.332ZM130.836 18.3887C129.84 17.041 128.844 15.2734 127.848 13.0859L125.943 8.98438C125.846 8.76953 125.787 8.53516 125.768 8.28125C125.729 7.73438 125.895 7.26562 126.266 6.875C126.637 6.48438 127.125 6.28906 127.73 6.28906C128.395 6.28906 128.883 6.42578 129.195 6.69922C129.527 6.95312 129.791 7.28516 129.986 7.69531L131.363 11.0938C131.715 11.8945 132.057 12.6562 132.389 13.3789C132.74 14.082 133.131 14.7266 133.561 15.3125C134.01 15.8984 134.508 16.2109 135.055 16.25C135.582 16.2109 136.08 15.8984 136.549 15.3125C136.959 14.7266 137.33 14.082 137.662 13.3789C138.014 12.6562 138.365 11.8945 138.717 11.0938L140.094 7.69531C140.289 7.28516 140.543 6.95312 140.855 6.69922C141.188 6.42578 141.686 6.28906 142.35 6.28906C142.955 6.28906 143.443 6.48438 143.814 6.875C144.186 7.26562 144.352 7.73438 144.312 8.28125C144.293 8.53516 144.234 8.76953 144.137 8.98438L142.232 13.0859C141.236 15.2734 140.24 17.041 139.244 18.3887C138.287 19.7168 136.891 20.3906 135.055 20.4102C133.199 20.3906 131.793 19.7168 130.836 18.3887ZM149.586 6.34766C150.113 6.36719 150.562 6.5625 150.934 6.93359C151.305 7.28516 151.5 7.72461 151.52 8.25195V18.3887C151.402 19.5605 150.758 20.1953 149.586 20.293C149.039 20.293 148.561 20.1172 148.15 19.7656C147.76 19.3945 147.564 18.9355 147.564 18.3887V8.25195C147.584 7.70508 147.789 7.25586 148.18 6.9043C148.57 6.5332 149.039 6.34766 149.586 6.34766ZM147.125 2.53906C147.125 1.99219 147.359 1.52344 147.828 1.13281C148.297 0.742187 148.863 0.546875 149.527 0.546875C150.191 0.546875 150.758 0.742187 151.227 1.13281C151.695 1.52344 151.93 1.99219 151.93 2.53906C151.93 3.10547 151.695 3.58398 151.227 3.97461C150.758 4.36523 150.191 4.56055 149.527 4.56055C148.863 4.56055 148.297 4.36523 147.828 3.97461C147.359 3.58398 147.125 3.10547 147.125 2.53906ZM161.041 19.9414C159.322 19.8828 158.023 19.4824 157.145 18.7402C156.266 17.9785 155.631 17.1289 155.24 16.1914C154.85 15.2344 154.654 14.2676 154.654 13.291C154.654 12.2754 154.84 11.2988 155.211 10.3613C155.602 9.4043 156.236 8.55469 157.115 7.8125C158.014 7.05078 159.146 6.66016 160.514 6.64062H171.646C172.193 6.64062 172.652 6.83594 173.023 7.22656C173.414 7.59766 173.609 8.05664 173.609 8.60352C173.609 9.15039 173.414 9.61914 173.023 10.0098C172.652 10.3809 172.193 10.5664 171.646 10.5664H160.396C160.025 10.5664 159.703 10.7227 159.43 11.0352C159.156 11.3281 158.951 11.6797 158.814 12.0898C158.697 12.4805 158.639 12.8711 158.639 13.2617C158.639 13.6719 158.697 14.082 158.814 14.4922C158.951 14.8828 159.156 15.2344 159.43 15.5469C159.703 15.8398 160.025 15.9961 160.396 16.0156H171.646C172.193 16.0156 172.652 16.2109 173.023 16.6016C173.414 16.9727 173.609 17.4316 173.609 17.9785C173.609 18.5254 173.414 18.9844 173.023 19.3555C172.652 19.7461 172.193 19.9414 171.646 19.9414H161.041ZM182.691 19.9414C180.973 19.8828 179.674 19.4824 178.795 18.7402C177.916 17.9785 177.281 17.1289 176.891 16.1914C176.5 15.2344 176.305 14.2676 176.305 13.291C176.305 12.2754 176.49 11.2988 176.861 10.3613C177.252 9.4043 177.887 8.55469 178.766 7.8125C179.664 7.05078 180.797 6.66016 182.164 6.64062H193.297C193.844 6.64062 194.303 6.82617 194.674 7.19727C195.064 7.54883 195.26 7.97852 195.26 8.48633C195.26 9.01367 195.064 9.46289 194.674 9.83398C194.303 10.1855 193.844 10.3613 193.297 10.3613H182.34C181.91 10.3613 181.529 10.5078 181.197 10.8008C180.885 11.0938 180.65 11.4746 180.494 11.9434C180.357 12.4121 180.289 12.8711 180.289 13.3203C180.289 13.8086 180.357 14.2871 180.494 14.7559C180.65 15.2246 180.885 15.6055 181.197 15.8984C181.529 16.1719 181.91 16.3184 182.34 16.3379H193.297C193.844 16.3379 194.303 16.5137 194.674 16.8652C195.064 17.2168 195.26 17.6367 195.26 18.125C195.26 18.6328 195.064 19.0625 194.674 19.4141C194.303 19.7656 193.844 19.9414 193.297 19.9414H182.691ZM194.908 13.2324C194.908 13.6035 194.742 13.9258 194.41 14.1992C194.117 14.4531 193.746 14.5801 193.297 14.5801H183.717C183.268 14.5801 182.887 14.4531 182.574 14.1992C182.262 13.9258 182.105 13.6035 182.105 13.2324C182.105 12.8809 182.262 12.5684 182.574 12.2949C182.887 12.041 183.268 11.9141 183.717 11.9141H193.297C193.746 11.9141 194.127 12.0508 194.439 12.3242C194.752 12.5781 194.908 12.8809 194.908 13.2324Z" fill="#F79321"/>
</svg>
