<svg width="40" height="40" viewBox="0 0 40 40" fill="none" xmlns="http://www.w3.org/2000/svg">
<g clip-path="url(#clip0_326_217)">
<path d="M23.4682 28.8025C23.4683 27.414 23.831 26.0496 24.5205 24.8443C25.2099 23.639 26.2022 22.6347 27.399 21.9307C28.5959 21.2267 29.9558 20.8475 31.3443 20.8307C32.7327 20.8138 34.1015 21.1598 35.3151 21.8345C36.5287 22.5091 37.5451 23.489 38.2636 24.6772C38.9821 25.8654 39.3779 27.2206 39.4118 28.6087C39.4456 29.9968 39.1163 31.3697 38.4566 32.5915C37.7968 33.8133 36.8294 34.8416 35.6501 35.5746V39.414L31.2177 36.7722C29.1426 36.714 27.1721 35.8489 25.725 34.3606C24.2778 32.8723 23.4682 30.8784 23.4682 28.8025Z" fill="#F79321"/>
<path d="M31.4411 20.8297C31.0489 20.8297 30.6572 20.8584 30.2692 20.9156C31.884 21.1557 33.3861 21.8857 34.5727 23.0069C35.7593 24.1281 36.5732 25.5865 36.9044 27.185C37.2356 28.7836 37.0682 30.4453 36.4247 31.9456C35.7812 33.446 34.6928 34.7127 33.3063 35.5746V38.0171L35.6501 39.414V35.5746C37.1218 34.6597 38.2555 33.2902 38.8794 31.6735C39.5033 30.0567 39.5834 28.2807 39.1078 26.6144C38.6321 24.948 37.6265 23.4819 36.2431 22.4381C34.8598 21.3944 33.174 20.8297 31.4411 20.8296V20.8297Z" fill="#E8881B"/>
<path d="M35.0651 26.772H28.2068C28.0514 26.772 27.9024 26.7102 27.7925 26.6004C27.6826 26.4905 27.6209 26.3414 27.6209 26.186C27.6209 26.0306 27.6826 25.8816 27.7925 25.7717C27.9024 25.6618 28.0514 25.6001 28.2068 25.6001H35.0651C35.2205 25.6001 35.3696 25.6618 35.4794 25.7717C35.5893 25.8816 35.6511 26.0306 35.6511 26.186C35.6511 26.3414 35.5893 26.4905 35.4794 26.6004C35.3696 26.7102 35.2205 26.772 35.0651 26.772Z" fill="white"/>
<path d="M31.4411 26.7721C31.2857 26.7721 31.1366 26.7104 31.0268 26.6005C30.9169 26.4906 30.8551 26.3416 30.8551 26.1862V24.6157C30.8551 24.4603 30.9169 24.3113 31.0268 24.2014C31.1366 24.0915 31.2857 24.0298 31.4411 24.0298C31.5965 24.0298 31.7455 24.0915 31.8554 24.2014C31.9653 24.3113 32.027 24.4603 32.027 24.6157V26.1862C32.027 26.3416 31.9653 26.4906 31.8554 26.6005C31.7455 26.7104 31.5965 26.7721 31.4411 26.7721ZM28.3943 32.2763C28.2579 32.2764 28.1258 32.2289 28.0207 32.142C27.9156 32.055 27.8441 31.9342 27.8185 31.8002C27.7929 31.6663 27.8149 31.5276 27.8806 31.4081C27.9462 31.2886 28.0516 31.1957 28.1783 31.1455C29.0008 30.8208 29.7698 30.3744 30.4596 29.8213C31.7075 28.8054 32.6646 27.4776 33.2337 25.9724C33.2612 25.9006 33.3025 25.8348 33.3554 25.779C33.4083 25.7231 33.4717 25.6782 33.542 25.6468C33.6123 25.6154 33.688 25.5982 33.7649 25.5961C33.8419 25.594 33.9184 25.6071 33.9903 25.6345C34.0622 25.662 34.1279 25.7034 34.1838 25.7563C34.2397 25.8092 34.2846 25.8726 34.3159 25.9429C34.3473 26.0132 34.3646 26.0889 34.3667 26.1658C34.3688 26.2427 34.3557 26.3193 34.3282 26.3912C33.6848 28.0902 32.6033 29.5888 31.1936 30.7348C30.4124 31.3614 29.5414 31.8671 28.61 32.235C28.5414 32.2623 28.4682 32.2763 28.3944 32.2763H28.3943Z" fill="white"/>
<path d="M33.8997 32.5475C33.8454 32.5474 33.7914 32.5398 33.7392 32.525C31.692 31.946 29.94 30.6135 28.8353 28.7953C28.7545 28.6626 28.7297 28.5032 28.7665 28.3522C28.8032 28.2012 28.8985 28.071 29.0312 27.9902C29.164 27.9094 29.3234 27.8847 29.4744 27.9214C29.6254 27.9581 29.7556 28.0534 29.8364 28.1861C30.7875 29.752 32.2965 30.8996 34.0597 31.3977C34.1957 31.4363 34.3132 31.5228 34.3905 31.6413C34.4677 31.7597 34.4996 31.9021 34.4801 32.0422C34.4606 32.1822 34.3911 32.3105 34.2845 32.4034C34.1778 32.4963 34.0412 32.5474 33.8997 32.5475Z" fill="white"/>
<path d="M9.71014 11.3189C9.71026 9.45362 10.1975 7.62076 11.1236 6.0017C12.0498 4.38263 13.3827 3.03351 14.9904 2.08786C16.5982 1.14222 18.425 0.632845 20.2901 0.610167C22.1552 0.587489 23.9939 1.05229 25.6241 1.95856C27.2544 2.86483 28.6197 4.18115 29.5849 5.77722C30.5501 7.37329 31.0818 9.19376 31.1273 11.0584C31.1727 12.9231 30.7304 14.7673 29.8442 16.4086C28.9579 18.0498 27.6584 19.4311 26.0742 20.4157V25.5734L20.1201 22.0246C17.3327 21.9464 14.6857 20.7842 12.7417 18.785C10.7978 16.7858 9.71021 14.1073 9.71014 11.3189Z" fill="#69B344"/>
<path d="M20.4203 0.608398C20.0288 0.608545 19.6376 0.629931 19.2484 0.672461C21.4625 0.916396 23.5455 1.84457 25.2074 3.32779C26.8693 4.81101 28.0275 6.77548 28.5206 8.94773C29.0138 11.12 28.8174 13.3919 27.9588 15.4474C27.1002 17.5028 25.6222 19.2394 23.7304 20.4154V24.1761L26.0742 25.5731V20.4154C28.0512 19.1864 29.574 17.3468 30.412 15.1751C31.25 13.0033 31.3577 10.6176 30.7188 8.37917C30.0798 6.14072 28.729 4.17139 26.8708 2.76926C25.0126 1.36714 22.7481 0.608578 20.4203 0.608398Z" fill="#5C9F3A"/>
<path d="M18.6758 10.8501H16.1525C15.9971 10.8501 15.8481 10.7884 15.7382 10.6785C15.6283 10.5686 15.5666 10.4196 15.5666 10.2642C15.5666 10.1088 15.6283 9.95976 15.7382 9.84988C15.8481 9.73999 15.9971 9.67826 16.1525 9.67826H18.6759C19.0262 9.67826 19.3621 9.5391 19.6098 9.2914C19.8575 9.0437 19.9967 8.70775 19.9967 8.35744C19.9967 8.00714 19.8575 7.67118 19.6098 7.42348C19.3621 7.17578 19.0262 7.03662 18.6759 7.03662H16.1525C15.9971 7.03662 15.8481 6.97489 15.7382 6.865C15.6283 6.75512 15.5666 6.60608 15.5666 6.45068C15.5666 6.29528 15.6283 6.14625 15.7382 6.03636C15.8481 5.92648 15.9971 5.86475 16.1525 5.86475H18.6759C19.337 5.86475 19.971 6.12737 20.4385 6.59484C20.906 7.06231 21.1686 7.69634 21.1686 8.35744C21.1686 9.01855 20.906 9.65257 20.4385 10.12C19.971 10.5875 19.3369 10.8501 18.6758 10.8501Z" fill="white"/>
<path d="M18.2266 14.6924C17.4913 14.6934 16.7634 14.5461 16.0865 14.2592C15.4095 13.9724 14.7974 13.5518 14.2867 13.0228C14.1788 12.911 14.1196 12.761 14.1223 12.6056C14.125 12.4502 14.1894 12.3022 14.3011 12.1943C14.4129 12.0863 14.563 12.0272 14.7184 12.0299C14.8738 12.0326 15.0217 12.0969 15.1297 12.2087C15.5775 12.6725 16.1238 13.0295 16.7284 13.2534C17.3329 13.4773 17.9801 13.5623 18.6219 13.5021C18.64 13.5003 18.6582 13.4995 18.6765 13.4996C18.8534 13.4995 19.0286 13.4641 19.1916 13.3953C19.3546 13.3264 19.5022 13.2257 19.6256 13.0989C19.749 12.9721 19.8458 12.8219 19.9102 12.6572C19.9747 12.4924 20.0054 12.3163 20.0007 12.1395C19.9824 11.4285 19.3691 10.8501 18.6335 10.8501H16.1525C15.9971 10.8501 15.8481 10.7884 15.7382 10.6785C15.6283 10.5686 15.5666 10.4196 15.5666 10.2642C15.5666 10.1088 15.6283 9.95972 15.7382 9.84984C15.8481 9.73996 15.9971 9.67822 16.1525 9.67822H18.6335C19.9988 9.67822 21.1378 10.7688 21.1722 12.1092C21.1809 12.4401 21.1237 12.7694 21.004 13.078C20.8842 13.3866 20.7043 13.6683 20.4747 13.9067C20.2451 14.1451 19.9704 14.3355 19.6665 14.4667C19.3627 14.598 19.0358 14.6675 18.7048 14.6713C18.546 14.6853 18.3863 14.6924 18.2266 14.6924Z" fill="white"/>
<path d="M24.3473 10.8501H18.6677C18.5123 10.8501 18.3633 10.7884 18.2534 10.6785C18.1435 10.5686 18.0818 10.4196 18.0818 10.2642C18.0818 10.1088 18.1435 9.95972 18.2534 9.84984C18.3633 9.73996 18.5123 9.67822 18.6677 9.67822H24.3474C24.5028 9.67822 24.6518 9.73996 24.7617 9.84984C24.8716 9.95972 24.9333 10.1088 24.9333 10.2642C24.9333 10.4196 24.8716 10.5686 24.7617 10.6785C24.6518 10.7884 24.5028 10.8501 24.3474 10.8501H24.3473Z" fill="white"/>
<path d="M24.3474 14.6636C24.192 14.6636 24.0429 14.6018 23.933 14.492C23.8231 14.3821 23.7614 14.233 23.7614 14.0776V6.45068C23.7614 6.29528 23.8231 6.14625 23.933 6.03636C24.0429 5.92648 24.192 5.86475 24.3474 5.86475C24.5028 5.86475 24.6518 5.92648 24.7617 6.03636C24.8716 6.14625 24.9333 6.29528 24.9333 6.45068V14.0776C24.9333 14.233 24.8716 14.3821 24.7617 14.492C24.6518 14.6018 24.5028 14.6636 24.3474 14.6636Z" fill="white"/>
<path d="M26.1324 7.03662H22.5625C22.4071 7.03662 22.2581 6.97489 22.1482 6.865C22.0383 6.75512 21.9766 6.60608 21.9766 6.45068C21.9766 6.29528 22.0383 6.14625 22.1482 6.03636C22.2581 5.92648 22.4071 5.86475 22.5625 5.86475H26.1325C26.2879 5.86475 26.4369 5.92648 26.5468 6.03636C26.6567 6.14625 26.7184 6.29528 26.7184 6.45068C26.7184 6.60608 26.6567 6.75512 26.5468 6.865C26.4369 6.97489 26.2879 7.03662 26.1325 7.03662H26.1324Z" fill="white"/>
<path d="M21.2109 25.6887C21.2108 23.8927 20.7416 22.1279 19.8499 20.569C18.9581 19.01 17.6747 17.711 16.1266 16.8005C14.5786 15.89 12.8196 15.3995 11.0238 15.3777C9.22793 15.3559 7.45753 15.8034 5.88781 16.6761C4.31809 17.5487 3.00347 18.8161 2.07409 20.3529C1.14471 21.8897 0.632792 23.6426 0.589004 25.438C0.545215 27.2334 0.971077 29.0092 1.82444 30.5895C2.67779 32.1697 3.92906 33.4998 5.45438 34.4479V39.414L11.1874 35.9969C13.8713 35.9217 16.4201 34.8027 18.2919 32.8777C20.1637 30.9527 21.2109 28.3736 21.2109 25.6887Z" fill="#1DA8DF"/>
<path d="M10.8984 15.3765C10.5068 15.3767 10.1156 15.3989 9.72653 15.4432C12.318 15.7397 14.7008 17.0073 16.395 18.9906C18.0892 20.9738 18.969 23.5254 18.857 26.1314C18.7451 28.7374 17.6498 31.2041 15.7918 33.0348C13.9337 34.8654 11.451 35.924 8.84364 35.9972L5.45435 38.0173V39.4143L11.1874 35.9972C13.8962 35.9212 16.4663 34.7819 18.3418 32.8258C20.2172 30.8697 21.2473 28.254 21.2094 25.5444C21.1714 22.8347 20.0684 20.2489 18.1388 18.3461C16.2093 16.4434 13.6083 15.3766 10.8984 15.3765Z" fill="#3D94CF"/>
<path d="M15.4128 30.2881C15.3009 30.2881 15.1913 30.2561 15.097 30.1959C15.0027 30.1356 14.9277 30.0496 14.8807 29.948L10.8984 21.3411L6.91616 29.948C6.85089 30.089 6.73228 30.1984 6.5864 30.2519C6.44052 30.3055 6.27934 30.2989 6.13831 30.2337C5.99728 30.1684 5.88795 30.0498 5.83438 29.9039C5.78081 29.758 5.78738 29.5968 5.85265 29.4558L10.3667 19.6997C10.4137 19.5982 10.4887 19.5123 10.5829 19.4521C10.6772 19.3919 10.7866 19.3599 10.8985 19.3599C11.0103 19.3599 11.1198 19.3919 11.214 19.4521C11.3082 19.5123 11.3833 19.5982 11.4302 19.6997L15.9442 29.4559C15.9854 29.5452 16.0036 29.6434 15.9969 29.7415C15.9902 29.8396 15.959 29.9344 15.9061 30.0173C15.8532 30.1002 15.7803 30.1684 15.694 30.2157C15.6078 30.263 15.5111 30.2879 15.4128 30.288V30.2881Z" fill="white"/>
<path d="M14.1797 27.5781H7.61719C7.46179 27.5781 7.31275 27.5164 7.20287 27.4065C7.09298 27.2966 7.03125 27.1476 7.03125 26.9922C7.03125 26.8368 7.09298 26.6878 7.20287 26.5779C7.31275 26.468 7.46179 26.4062 7.61719 26.4062H14.1797C14.3351 26.4062 14.4841 26.468 14.594 26.5779C14.7039 26.6878 14.7656 26.8368 14.7656 26.9922C14.7656 27.1476 14.7039 27.2966 14.594 27.4065C14.4841 27.5164 14.3351 27.5781 14.1797 27.5781Z" fill="white"/>
</g>
<defs>
<clipPath id="clip0_326_217">
<rect width="40" height="40" fill="white"/>
</clipPath>
</defs>
</svg>
