<svg width="30" height="30" viewBox="0 0 30 30" fill="none" xmlns="http://www.w3.org/2000/svg">
<path d="M26.4706 6.06174C26.462 6.02629 26.4486 5.99215 26.4309 5.96027C26.4233 5.94255 26.4128 5.92617 26.4 5.91174C26.3893 5.89368 26.3759 5.87733 26.3603 5.86321L21.5074 1.01027C21.4932 0.994699 21.4769 0.981317 21.4588 0.970563C21.4444 0.957746 21.428 0.94732 21.4103 0.939681C21.374 0.914182 21.3338 0.894807 21.2912 0.882328C21.2532 0.87565 21.2144 0.87565 21.1765 0.882328H3.9706C3.85359 0.882328 3.74137 0.928809 3.65864 1.01155C3.5759 1.09428 3.52942 1.2065 3.52942 1.3235V28.6764C3.52942 28.7935 3.5759 28.9057 3.65864 28.9884C3.74137 29.0711 3.85359 29.1176 3.9706 29.1176H26.0294C26.1464 29.1176 26.2586 29.0711 26.3414 28.9884C26.4241 28.9057 26.4706 28.7935 26.4706 28.6764V6.17645C26.4773 6.1385 26.4773 6.09968 26.4706 6.06174ZM21.6177 2.38674L24.9662 5.73527H21.6177V2.38674ZM25.5882 28.2353H4.41177V1.76468H20.7353V6.17645C20.7353 6.29345 20.7818 6.40567 20.8645 6.4884C20.9473 6.57114 21.0595 6.61762 21.1765 6.61762H25.5882V28.2353Z" fill="white"/>
<path d="M9.7059 11.4706C8.72955 11.4711 7.7876 11.8312 7.06002 12.4823C6.33245 13.1334 5.87026 14.0297 5.76178 15H13.65C13.5415 14.0297 13.0793 13.1334 12.3518 12.4823C11.6242 11.8312 10.6822 11.4711 9.7059 11.4706ZM9.7059 10.5882C10.1673 10.5872 10.6264 10.6525 11.0691 10.7824C11.8371 9.85859 12.268 8.70109 12.2912 7.50001C12.2912 5.29413 10.3456 5.29413 9.7059 5.29413C9.06619 5.29413 7.1206 5.29413 7.1206 7.50001C7.14375 8.70109 7.5747 9.85859 8.34266 10.7824C8.7854 10.6525 9.24452 10.5872 9.7059 10.5882ZM13.6765 10.1471C13.6765 10.2641 13.723 10.3763 13.8057 10.459C13.8884 10.5418 14.0007 10.5882 14.1177 10.5882H24.2647C24.3817 10.5882 24.4939 10.5418 24.5767 10.459C24.6594 10.3763 24.7059 10.2641 24.7059 10.1471C24.7059 10.0301 24.6594 9.91785 24.5767 9.83511C24.4939 9.75237 24.3817 9.70589 24.2647 9.70589H14.1177C14.0007 9.70589 13.8884 9.75237 13.8057 9.83511C13.723 9.91785 13.6765 10.0301 13.6765 10.1471ZM22.5 12.353C22.617 12.353 22.7292 12.3065 22.812 12.2237C22.8947 12.141 22.9412 12.0288 22.9412 11.9118C22.9412 11.7948 22.8947 11.6826 22.812 11.5998C22.7292 11.5171 22.617 11.4706 22.5 11.4706H14.5588C14.4418 11.4706 14.3296 11.5171 14.2469 11.5998C14.1641 11.6826 14.1177 11.7948 14.1177 11.9118C14.1177 12.0288 14.1641 12.141 14.2469 12.2237C14.3296 12.3065 14.4418 12.353 14.5588 12.353H22.5ZM9.7059 22.9412C8.72955 22.9417 7.7876 23.3018 7.06002 23.9529C6.33245 24.604 5.87026 25.5003 5.76178 26.4706H13.65C13.5415 25.5003 13.0793 24.604 12.3518 23.9529C11.6242 23.3018 10.6822 22.9417 9.7059 22.9412ZM11.0691 22.253C11.8371 21.3292 12.268 20.1717 12.2912 18.9706C12.2912 16.7647 10.3456 16.7647 9.7059 16.7647C9.06619 16.7647 7.1206 16.7647 7.1206 18.9706C7.14375 20.1717 7.5747 21.3292 8.34266 22.253C9.23306 21.9941 10.1787 21.9941 11.0691 22.253ZM24.2647 21.1765H14.1177C14.0007 21.1765 13.8884 21.223 13.8057 21.3057C13.723 21.3884 13.6765 21.5007 13.6765 21.6177C13.6765 21.7347 13.723 21.8469 13.8057 21.9296C13.8884 22.0124 14.0007 22.0588 14.1177 22.0588H24.2647C24.3817 22.0588 24.4939 22.0124 24.5767 21.9296C24.6594 21.8469 24.7059 21.7347 24.7059 21.6177C24.7059 21.5007 24.6594 21.3884 24.5767 21.3057C24.4939 21.223 24.3817 21.1765 24.2647 21.1765ZM22.5 22.9412H14.5588C14.4418 22.9412 14.3296 22.9877 14.2469 23.0704C14.1641 23.1531 14.1177 23.2654 14.1177 23.3824C14.1177 23.4994 14.1641 23.6116 14.2469 23.6943C14.3296 23.7771 14.4418 23.8235 14.5588 23.8235H22.5C22.617 23.8235 22.7292 23.7771 22.812 23.6943C22.8947 23.6116 22.9412 23.4994 22.9412 23.3824C22.9412 23.2654 22.8947 23.1531 22.812 23.0704C22.7292 22.9877 22.617 22.9412 22.5 22.9412Z" fill="white"/>
</svg>
