<svg width="40" height="40" viewBox="0 0 40 40" fill="none" xmlns="http://www.w3.org/2000/svg">
<path d="M21.1799 22.0001L16.5799 26.5801C16.3925 26.766 16.2437 26.9872 16.1421 27.2309C16.0406 27.4746 15.9883 27.736 15.9883 28.0001C15.9883 28.2641 16.0406 28.5255 16.1421 28.7692C16.2437 29.0129 16.3925 29.2341 16.5799 29.42C16.7658 29.6075 16.987 29.7563 17.2308 29.8578C17.4745 29.9594 17.7359 30.0116 17.9999 30.0116C18.2639 30.0116 18.5253 29.9594 18.7691 29.8578C19.0128 29.7563 19.234 29.6075 19.4199 29.42L27.4199 21.4201C27.6019 21.2299 27.7447 21.0056 27.8399 20.7601C28.0399 20.2732 28.0399 19.727 27.8399 19.2401C27.7447 18.9946 27.6019 18.7703 27.4199 18.5801L19.4199 10.5801C19.2334 10.3937 19.012 10.2457 18.7684 10.1448C18.5248 10.0439 18.2636 9.99197 17.9999 9.99197C17.7362 9.99197 17.4751 10.0439 17.2314 10.1448C16.9878 10.2457 16.7664 10.3937 16.5799 10.5801C16.3934 10.7666 16.2455 10.988 16.1446 11.2316C16.0437 11.4753 15.9917 11.7364 15.9917 12.0001C15.9917 12.2639 16.0437 12.525 16.1446 12.7686C16.2455 13.0123 16.3934 13.2337 16.5799 13.4201L21.1799 18.0001H1.99999C1.46956 18.0001 0.960854 18.2108 0.585783 18.5859C0.210713 18.961 0 19.4697 0 20.0001C0 20.5305 0.210713 21.0392 0.585783 21.4143C0.960854 21.7894 1.46956 22.0001 1.99999 22.0001H21.1799ZM19.9999 0.000199386C16.2621 -0.0164881 12.5944 1.01462 9.41289 2.97657C6.23135 4.93852 3.66329 7.75278 1.99999 11.1001C1.7613 11.5775 1.72202 12.1302 1.8908 12.6365C2.05958 13.1429 2.4226 13.5614 2.89999 13.8001C3.37737 14.0388 3.93003 14.0781 4.43637 13.9093C4.94272 13.7405 5.36128 13.3775 5.59997 12.9001C6.86435 10.3468 8.78762 8.1774 11.171 6.61614C13.5545 5.05489 16.3116 4.15841 19.1574 4.01936C22.0033 3.88031 24.8346 4.50373 27.3589 5.82519C29.8832 7.14665 32.0088 9.11821 33.516 11.5361C35.0233 13.9541 35.8576 16.7306 35.9326 19.5789C36.0076 22.4271 35.3207 25.2438 33.9429 27.7377C32.565 30.2316 30.5461 32.3123 28.0949 33.7649C25.6437 35.2174 22.8491 35.989 19.9999 36C17.0177 36.0129 14.0922 35.1847 11.5593 33.6105C9.02641 32.0363 6.98867 29.7798 5.67997 27.1001C5.44128 26.6227 5.02272 26.2597 4.51637 26.0909C4.01003 25.9221 3.45737 25.9614 2.97998 26.2001C2.5026 26.4388 2.13958 26.8573 1.9708 27.3637C1.80202 27.87 1.8413 28.4227 2.07999 28.9001C3.66564 32.0911 6.07501 34.8005 9.0589 36.7481C12.0428 38.6957 15.4928 39.8108 19.0521 39.978C22.6115 40.1452 26.1508 39.3584 29.3041 37.699C32.4574 36.0397 35.1102 33.568 36.9879 30.5397C38.8657 27.5114 39.9003 24.0364 39.9848 20.4741C40.0692 16.9118 39.2005 13.3917 37.4683 10.2778C35.7361 7.16391 33.2035 4.56931 30.1324 2.7624C27.0613 0.955484 23.5632 0.00187228 19.9999 0.000199386Z" fill="#FF6464"/>
</svg>
