<svg width="40" height="40" viewBox="0 0 40 40" fill="none" xmlns="http://www.w3.org/2000/svg">
<g clip-path="url(#clip0_175_2565)">
<path d="M6.66667 21.6666C7.58714 21.6666 8.33333 20.9205 8.33333 20C8.33333 19.0795 7.58714 18.3333 6.66667 18.3333C5.74619 18.3333 5 19.0795 5 20C5 20.9205 5.74619 21.6666 6.66667 21.6666Z" fill="#F79321"/>
<path d="M33.4334 18.3333H13.2334C12.3681 18.3333 11.6667 19.0347 11.6667 19.9V20.1C11.6667 20.9652 12.3681 21.6666 13.2334 21.6666H33.4334C34.2986 21.6666 35 20.9652 35 20.1V19.9C35 19.0347 34.2986 18.3333 33.4334 18.3333Z" fill="#F79321"/>
<path d="M33.4333 26.6667H6.56667C5.70142 26.6667 5 27.3681 5 28.2334V28.4334C5 29.2986 5.70142 30 6.56667 30H33.4333C34.2986 30 35 29.2986 35 28.4334V28.2334C35 27.3681 34.2986 26.6667 33.4333 26.6667Z" fill="#F79321"/>
<path d="M33.4333 10H6.56667C5.70142 10 5 10.7014 5 11.5667V11.7667C5 12.6319 5.70142 13.3333 6.56667 13.3333H33.4333C34.2986 13.3333 35 12.6319 35 11.7667V11.5667C35 10.7014 34.2986 10 33.4333 10Z" fill="#F79321"/>
</g>
<defs>
<clipPath id="clip0_175_2565">
<rect width="40" height="40" fill="white"/>
</clipPath>
</defs>
</svg>
