<svg width="200" height="200" viewBox="0 0 200 200" fill="none" xmlns="http://www.w3.org/2000/svg">
<path d="M200 152.96H0V153.06H200V152.96Z" fill="#EBEBEB"/>
<path d="M94.8001 135.12H17.5681C16.9623 135.12 16.3814 134.879 15.953 134.451C15.5247 134.023 15.2841 133.442 15.2841 132.836V24.264C15.2893 23.6617 15.5323 23.0859 15.9601 22.6619C16.3878 22.2379 16.9658 22 17.5681 22H94.8001C95.4058 22 95.9867 22.2406 96.4151 22.669C96.8434 23.0973 97.0841 23.6782 97.0841 24.284V132.836C97.0841 133.442 96.8434 134.023 96.4151 134.451C95.9867 134.879 95.4058 135.12 94.8001 135.12ZM17.5681 22.08C16.9891 22.0811 16.4343 22.3115 16.0249 22.7208C15.6156 23.1302 15.3851 23.6851 15.3841 24.264V132.836C15.3851 133.415 15.6156 133.97 16.0249 134.379C16.4343 134.789 16.9891 135.019 17.5681 135.02H94.8001C95.379 135.019 95.9339 134.789 96.3432 134.379C96.7526 133.97 96.983 133.415 96.9841 132.836V24.264C96.983 23.6851 96.7526 23.1302 96.3432 22.7208C95.9339 22.3115 95.379 22.0811 94.8001 22.08H17.5681Z" fill="#EBEBEB"/>
<path d="M181.324 135.12H104.084C103.479 135.119 102.898 134.878 102.47 134.45C102.042 134.022 101.801 133.441 101.8 132.836V24.264C101.806 23.662 102.05 23.0868 102.477 22.663C102.905 22.2392 103.482 22.001 104.084 22H181.324C181.925 22.0021 182.501 22.2409 182.927 22.6647C183.353 23.0885 183.595 23.6631 183.6 24.264V132.836C183.6 133.44 183.361 134.02 182.934 134.448C182.507 134.876 181.928 135.118 181.324 135.12ZM104.084 22.08C103.505 22.0811 102.95 22.3115 102.541 22.7208C102.132 23.1302 101.901 23.6851 101.9 24.264V132.836C101.901 133.415 102.132 133.97 102.541 134.379C102.95 134.789 103.505 135.019 104.084 135.02H181.324C181.903 135.019 182.458 134.789 182.867 134.379C183.277 133.97 183.507 133.415 183.508 132.836V24.264C183.507 23.6851 183.277 23.1302 182.867 22.7208C182.458 22.3115 181.903 22.0811 181.324 22.08H104.084Z" fill="#EBEBEB"/>
<path d="M30.912 156.768H20.512V156.868H30.912V156.768Z" fill="#EBEBEB"/>
<path d="M76.0721 155.684H58.0601V155.784H76.0721V155.684Z" fill="#EBEBEB"/>
<path d="M55.628 160.484H31.312V160.584H55.628V160.484Z" fill="#EBEBEB"/>
<path d="M179.488 159.812H171.796V159.912H179.488V159.812Z" fill="#EBEBEB"/>
<path d="M168.232 159.812H146.116V159.912H168.232V159.812Z" fill="#EBEBEB"/>
<path d="M132.608 158.124H102.82V158.224H132.608V158.124Z" fill="#EBEBEB"/>
<path d="M67.856 118.268H46.024L44.7 102.976H66.532L67.856 118.268Z" fill="#E6E6E6"/>
<path d="M68.988 118.268H47.156L45.828 102.976H67.66L68.988 118.268Z" fill="#F0F0F0"/>
<path d="M50.14 114.984L49.412 106.26H64.676L65.404 114.984H50.14Z" fill="white"/>
<path d="M81.844 118.268H78.728V152.96H81.844V118.268Z" fill="#E6E6E6"/>
<path d="M82.824 118.268H80.66V152.96H82.824V118.268Z" fill="#F0F0F0"/>
<path d="M52.66 122.096H82.824V118.268H52.66V122.096Z" fill="#F0F0F0"/>
<path d="M53.7281 122.096H50.6121V152.96H53.7281V122.096Z" fill="#E6E6E6"/>
<path d="M54.712 122.096H52.548V152.96H54.712V122.096Z" fill="#F0F0F0"/>
<path d="M31.544 122.096H28.428V152.96H31.544V122.096Z" fill="#E6E6E6"/>
<path d="M32.528 122.096H30.364V152.96H32.528V122.096Z" fill="#F0F0F0"/>
<path d="M62.12 122.096H59.004V152.96H62.12V122.096Z" fill="#E6E6E6"/>
<path d="M63.1039 122.096H60.9399V152.96H63.1039V122.096Z" fill="#F0F0F0"/>
<path d="M52.66 118.268H28.428V122.096H52.66V118.268Z" fill="#E6E6E6"/>
<path d="M118.096 32.968H27.604V84.88H118.096V32.968Z" fill="#E6E6E6"/>
<path d="M120.512 32.968H28.7321V84.88H120.512V32.968Z" fill="#F0F0F0"/>
<path d="M118.096 84.88H27.604V89.376H118.096V84.88Z" fill="#E6E6E6"/>
<path d="M124.54 84.88H32.76V89.376H124.54V84.88Z" fill="#F0F0F0"/>
<path d="M117.124 81.492V36.3521L32.116 36.3521V81.492H117.124Z" fill="#FAFAFA"/>
<path d="M38.364 81.4921L58.236 36.3521H67.62L47.744 81.4921H38.364Z" fill="white"/>
<path d="M33.688 78.124C33.6559 78.124 33.6242 78.1177 33.5946 78.1054C33.565 78.0931 33.5381 78.0752 33.5154 78.0525C33.4928 78.0298 33.4748 78.0029 33.4625 77.9733C33.4503 77.9437 33.444 77.912 33.444 77.88V38.556C33.4515 38.4971 33.4803 38.4431 33.5248 38.4039C33.5694 38.3647 33.6267 38.3431 33.686 38.3431C33.7453 38.3431 33.8026 38.3647 33.8471 38.4039C33.8916 38.4431 33.9204 38.4971 33.928 38.556V77.88C33.928 77.944 33.9028 78.0055 33.8579 78.0511C33.813 78.0967 33.752 78.1229 33.688 78.124Z" fill="#F0F0F0"/>
<path d="M49.76 81.4921L69.636 36.3521H73.292L53.42 81.4921H49.76Z" fill="white"/>
<path d="M117.124 81.4921V36.3521H116.692V81.4921H117.124Z" fill="#E6E6E6"/>
<path opacity="0.6" d="M121.312 41.46H30.82L30.512 37.668H121L121.312 41.46Z" fill="#EBEBEB"/>
<path opacity="0.6" d="M121.312 47.672H30.82L30.512 43.884H121L121.312 47.672Z" fill="#EBEBEB"/>
<path opacity="0.6" d="M121.312 53.888H30.82L30.512 50.1H121L121.312 53.888Z" fill="#EBEBEB"/>
<path opacity="0.6" d="M121.312 60.104H30.82L30.512 56.312H121L121.312 60.104Z" fill="#EBEBEB"/>
<path opacity="0.6" d="M121.312 66.32H30.82L30.512 62.528H121L121.312 66.32Z" fill="#EBEBEB"/>
<path opacity="0.6" d="M121.312 72.532H30.82L30.512 68.744H121L121.312 72.532Z" fill="#EBEBEB"/>
<path d="M146.168 57.332H170.536V32.964H146.168V57.332Z" fill="#EBEBEB"/>
<path d="M146.168 32.968H145.088V57.336H146.168V32.968Z" fill="#E0E0E0"/>
<path d="M149.472 54.032H167.236V36.268H149.472V54.032Z" fill="white"/>
<path d="M158.353 51.0938L164.298 45.1484L158.353 39.2031L152.408 45.1484L158.353 51.0938Z" fill="#F5F5F5"/>
<path d="M137.772 89.3719H162.14V65.0039H137.772V89.3719Z" fill="#EBEBEB"/>
<path d="M137.772 65.0081H136.692V89.3761H137.772V65.0081Z" fill="#E0E0E0"/>
<path d="M141.076 86.072H158.84V68.308H141.076V86.072Z" fill="white"/>
<path d="M148.692 80.976H151.22C152.614 80.976 153.744 79.8459 153.744 78.4519V75.924C153.744 74.53 152.614 73.4 151.22 73.4H148.692C147.298 73.4 146.168 74.53 146.168 75.924V78.4519C146.168 79.8459 147.298 80.976 148.692 80.976Z" fill="#F5F5F5"/>
<path d="M123.088 101.212H117.012V151.324H123.088V101.212Z" fill="#F0F0F0"/>
<path d="M176.2 151.324H117.856V152.96H176.2V151.324Z" fill="#F0F0F0"/>
<path d="M123.088 151.324H177.04V101.212H123.088V151.324Z" fill="#FAFAFA"/>
<path d="M166.48 130.496H133.652C132.102 130.496 130.616 129.88 129.52 128.784C128.424 127.688 127.808 126.202 127.808 124.652C127.808 123.102 128.424 121.616 129.52 120.52C130.616 119.424 132.102 118.808 133.652 118.808H166.48C168.03 118.808 169.516 119.424 170.612 120.52C171.708 121.616 172.324 123.102 172.324 124.652C172.324 126.202 171.708 127.688 170.612 128.784C169.516 129.88 168.03 130.496 166.48 130.496ZM133.652 119.2C132.206 119.2 130.819 119.774 129.797 120.797C128.774 121.819 128.2 123.206 128.2 124.652C128.2 126.098 128.774 127.485 129.797 128.507C130.819 129.53 132.206 130.104 133.652 130.104H166.48C167.926 130.104 169.313 129.53 170.335 128.507C171.358 127.485 171.932 126.098 171.932 124.652C171.932 123.206 171.358 121.819 170.335 120.797C169.313 119.774 167.926 119.2 166.48 119.2H133.652Z" fill="#F0F0F0"/>
<path d="M166.48 145.036H133.652C132.102 145.036 130.616 144.42 129.52 143.324C128.424 142.228 127.808 140.742 127.808 139.192C127.808 137.642 128.424 136.156 129.52 135.06C130.616 133.964 132.102 133.348 133.652 133.348H166.48C168.03 133.348 169.516 133.964 170.612 135.06C171.708 136.156 172.324 137.642 172.324 139.192C172.324 140.742 171.708 142.228 170.612 143.324C169.516 144.42 168.03 145.036 166.48 145.036ZM133.652 133.74C132.924 133.72 132.199 133.847 131.521 134.112C130.842 134.377 130.224 134.775 129.702 135.283C129.18 135.791 128.765 136.399 128.482 137.07C128.198 137.741 128.052 138.462 128.052 139.19C128.052 139.918 128.198 140.639 128.482 141.31C128.765 141.982 129.18 142.589 129.702 143.097C130.224 143.605 130.842 144.003 131.521 144.268C132.199 144.533 132.924 144.66 133.652 144.64H166.48C167.208 144.66 167.933 144.533 168.611 144.268C169.29 144.003 169.908 143.605 170.43 143.097C170.952 142.589 171.367 141.982 171.65 141.31C171.934 140.639 172.08 139.918 172.08 139.19C172.08 138.462 171.934 137.741 171.65 137.07C171.367 136.399 170.952 135.791 170.43 135.283C169.908 134.775 169.29 134.377 168.611 134.112C167.933 133.847 167.208 133.72 166.48 133.74H133.652Z" fill="#F0F0F0"/>
<path d="M155.02 123.392H145.112C144.792 123.386 144.488 123.255 144.263 123.027C144.039 122.799 143.913 122.492 143.912 122.172C143.913 121.852 144.039 121.545 144.263 121.317C144.488 121.089 144.792 120.958 145.112 120.952H155.02C155.343 120.953 155.653 121.082 155.881 121.311C156.11 121.539 156.239 121.849 156.24 122.172C156.239 122.495 156.11 122.805 155.881 123.034C155.653 123.262 155.343 123.391 155.02 123.392Z" fill="#EBEBEB"/>
<path d="M166.48 115.956H133.652C132.102 115.956 130.616 115.34 129.52 114.244C128.424 113.148 127.808 111.662 127.808 110.112C127.808 108.562 128.424 107.076 129.52 105.98C130.616 104.884 132.102 104.268 133.652 104.268H166.48C168.03 104.268 169.516 104.884 170.612 105.98C171.708 107.076 172.324 108.562 172.324 110.112C172.324 111.662 171.708 113.148 170.612 114.244C169.516 115.34 168.03 115.956 166.48 115.956ZM133.652 104.66C132.206 104.66 130.819 105.234 129.797 106.257C128.774 107.279 128.2 108.666 128.2 110.112C128.2 111.558 128.774 112.945 129.797 113.967C130.819 114.99 132.206 115.564 133.652 115.564H166.48C167.926 115.564 169.313 114.99 170.335 113.967C171.358 112.945 171.932 111.558 171.932 110.112C171.932 108.666 171.358 107.279 170.335 106.257C169.313 105.234 167.926 104.66 166.48 104.66H133.652Z" fill="#F0F0F0"/>
<path d="M155.02 108.852H145.112C144.792 108.846 144.488 108.715 144.263 108.487C144.039 108.259 143.913 107.952 143.912 107.632C143.917 107.315 144.045 107.013 144.269 106.789C144.493 106.565 144.795 106.437 145.112 106.432H155.02C155.34 106.433 155.647 106.559 155.875 106.783C156.103 107.008 156.234 107.312 156.24 107.632C156.239 107.955 156.11 108.265 155.881 108.494C155.653 108.722 155.343 108.851 155.02 108.852Z" fill="#EBEBEB"/>
<path d="M155.02 137.928H145.112C144.795 137.923 144.493 137.795 144.269 137.571C144.045 137.347 143.917 137.045 143.912 136.728C143.918 136.412 144.047 136.11 144.27 135.886C144.494 135.662 144.796 135.534 145.112 135.528H155.02C155.34 135.529 155.647 135.655 155.875 135.879C156.103 136.104 156.234 136.408 156.24 136.728C156.234 137.048 156.103 137.352 155.875 137.577C155.647 137.801 155.34 137.927 155.02 137.928Z" fill="#EBEBEB"/>
<path d="M178.152 98.668H123.092V101.216H178.152V98.668Z" fill="#F0F0F0"/>
<path d="M115.82 101.212H123.088V98.664H115.82V101.212Z" fill="#E6E6E6"/>
<path d="M100 171.024C142.833 171.024 177.556 168.997 177.556 166.496C177.556 163.995 142.833 161.968 100 161.968C57.167 161.968 22.444 163.995 22.444 166.496C22.444 168.997 57.167 171.024 100 171.024Z" fill="#F5F5F5"/>
<path d="M165.456 59.292H105.168C105.168 59.292 94.308 69.292 94.308 93.604C94.308 114.512 102.544 142.86 99.452 154.464C97.12 163.22 85.812 164.724 80.392 164.932H137.776C137.776 164.932 156.648 166.072 159.74 154.464C162.832 142.856 154.596 114.512 154.596 93.6C154.596 69.276 165.456 59.292 165.456 59.292Z" fill="#F79321"/>
<path opacity="0.7" d="M165.456 59.292H105.168C105.168 59.292 94.308 69.292 94.308 93.604C94.308 114.512 102.544 142.86 99.452 154.464C97.12 163.22 85.812 164.724 80.392 164.932H137.776C137.776 164.932 156.648 166.072 159.74 154.464C162.832 142.856 154.596 114.512 154.596 93.6C154.596 69.276 165.456 59.292 165.456 59.292Z" fill="white"/>
<g opacity="0.8">
<path opacity="0.8" d="M149.056 84.932H100.84C102.204 74.236 105.88 68.012 107.908 65.292H154.4C152.12 70.052 149.968 76.536 149.056 84.932Z" fill="#F79321"/>
<path opacity="0.3" d="M148.652 90.604H100.368C100.408 89.632 100.464 88.688 100.544 87.776H148.8C148.733 88.696 148.684 89.6387 148.652 90.604Z" fill="#F79321"/>
<path opacity="0.3" d="M115.508 96.272H100.352C100.325 95.368 100.311 94.4787 100.308 93.604V93.448H115.468V93.6C115.468 94.484 115.48 95.376 115.508 96.272Z" fill="#F79321"/>
<path opacity="0.3" d="M148.94 101.94H100.692C100.608 100.988 100.54 100.044 100.488 99.116H148.756C148.804 100.052 148.865 100.993 148.94 101.94Z" fill="#F79321"/>
<path opacity="0.3" d="M149.472 107.6H101.264C101.152 106.653 101.048 105.711 100.952 104.772H149.2C149.268 105.724 149.368 106.668 149.472 107.6Z" fill="#F79321"/>
<path opacity="0.3" d="M150.168 113.28H102C101.868 112.336 101.744 111.392 101.624 110.456H149.808C149.92 111.397 150.04 112.339 150.168 113.28Z" fill="#F79321"/>
<path opacity="0.3" d="M150.964 118.948H102.8C102.661 118.004 102.528 117.063 102.4 116.124H150.56C150.692 117.064 150.828 118 150.964 118.948Z" fill="#F79321"/>
<path opacity="0.3" d="M151.816 124.62H103.668C103.592 124.104 103.512 123.58 103.432 123.056L103.24 121.792H151.388C151.532 122.736 151.672 123.68 151.816 124.62Z" fill="#F79321"/>
<path opacity="0.3" d="M104.508 130.288C104.375 129.355 104.241 128.413 104.108 127.464H152.248C152.388 128.408 152.532 129.348 152.668 130.288H104.508Z" fill="#F79321"/>
<path opacity="0.3" d="M105.272 135.956C105.16 135.032 105.036 134.088 104.908 133.132H145.068C145.204 134.084 145.332 135.028 145.468 135.956H105.272Z" fill="#F79321"/>
<path opacity="0.3" d="M105.864 141.628C105.787 140.705 105.699 139.763 105.6 138.8H153.808C153.916 139.768 154.016 140.712 154.1 141.628H105.864Z" fill="#F79321"/>
<path opacity="0.3" d="M106.14 147.296C106.14 146.384 106.104 145.44 106.052 144.472H131.488C131.552 145.46 131.588 146.404 131.6 147.296H106.14Z" fill="#F79321"/>
</g>
<path d="M142.4 161.872C139.34 162.428 136.24 162.004 133.164 161.872C131.689 161.777 130.208 161.815 128.74 161.988C127.3 162.18 125.868 162.556 124.416 162.428C124.896 162.17 125.348 161.863 125.764 161.512C125.782 161.494 125.796 161.471 125.803 161.446C125.81 161.421 125.81 161.395 125.803 161.37C125.797 161.344 125.784 161.321 125.766 161.303C125.748 161.284 125.725 161.271 125.7 161.264C121.184 159.664 117.072 163.992 112.572 162.984C113.848 162.04 115.644 162.02 116.732 160.78C116.752 160.759 116.766 160.732 116.771 160.703C116.776 160.674 116.773 160.644 116.761 160.617C116.75 160.59 116.731 160.567 116.706 160.55C116.682 160.534 116.653 160.525 116.624 160.524C112.6 160.444 108.8 162 104.8 162.356C104.608 162.356 104.608 162.672 104.8 162.656C108.66 162.32 112.36 160.844 116.252 160.812C115.088 161.852 113.312 161.888 112.128 162.936C112.11 162.955 112.096 162.978 112.09 163.003C112.083 163.028 112.083 163.055 112.089 163.08C112.095 163.105 112.108 163.129 112.126 163.147C112.144 163.166 112.167 163.18 112.192 163.188C116.728 164.44 120.856 160.112 125.336 161.448C124.869 161.815 124.36 162.125 123.82 162.372C123.795 162.387 123.774 162.41 123.762 162.436C123.749 162.463 123.744 162.492 123.748 162.522C123.752 162.551 123.764 162.579 123.783 162.601C123.802 162.623 123.828 162.64 123.856 162.648C125.332 162.896 126.776 162.58 128.232 162.348C129.862 162.114 131.512 162.05 133.156 162.156C136.264 162.304 139.384 162.724 142.472 162.156C142.676 162.128 142.596 161.836 142.4 161.872Z" fill="#F79321"/>
<path d="M60.752 74.052C61.004 74.376 61.328 74.756 61.624 75.108C61.92 75.46 62.244 75.816 62.564 76.16C63.208 76.848 63.86 77.524 64.564 78.16C65.8696 79.3995 67.3525 80.4376 68.964 81.24C69.16 81.328 69.364 81.408 69.544 81.48C69.633 81.5154 69.7238 81.5461 69.816 81.572C69.9014 81.6057 69.9898 81.6312 70.08 81.648C70.4639 81.7467 70.8564 81.8083 71.252 81.832C72.1376 81.8751 73.0252 81.8241 73.9 81.68C74.8291 81.5383 75.7493 81.3433 76.656 81.096C77.576 80.856 78.516 80.56 79.392 80.252L80.192 81.852C78.4139 82.9636 76.4884 83.8199 74.472 84.396C73.4089 84.7004 72.3131 84.8763 71.208 84.92C70.6096 84.944 70.0103 84.9051 69.42 84.804C69.268 84.78 69.112 84.744 68.96 84.708C68.808 84.672 68.648 84.632 68.516 84.588C68.236 84.504 67.964 84.412 67.716 84.308C65.6801 83.4708 63.8065 82.2835 62.18 80.8C61.3864 80.1122 60.6293 79.3832 59.912 78.616C59.556 78.216 59.208 77.844 58.872 77.444C58.536 77.044 58.216 76.644 57.868 76.184L60.752 74.052Z" fill="#FFB573"/>
<path d="M56.684 72.9199C56.596 75.1599 57.484 79.1999 57.484 79.1999L63.028 78.5279C63.028 78.5279 63.232 72.6159 62.156 71.1879C60.336 68.7999 56.768 70.7999 56.684 72.9199Z" fill="#F79321"/>
<path d="M78.6481 80.82L81.2441 78.444L81.5761 81.004C81.5761 81.004 80.5001 82.448 79.2801 81.84L78.6481 80.82Z" fill="#FFB573"/>
<path d="M82.548 78.584L83.648 80.024L81.576 81.004L81.244 78.444L82.548 78.584Z" fill="#FFB573"/>
<path d="M81.892 72.108C82.168 72.108 82.32 72.108 82.516 72.108C82.5999 72.1022 82.6841 72.1022 82.768 72.108L82.976 72.136C83.1556 72.1571 83.3265 72.2246 83.472 72.332C83.5428 72.4153 83.5897 72.5162 83.608 72.624L83.7 72.928L84.072 74.128L84.816 76.556L86.3 81.416C87.28 84.656 88.3 87.888 89.244 91.136C91.184 97.624 93.02 104.136 94.824 110.66C96.628 117.184 98.324 123.736 100.068 130.26C101.812 136.784 103.372 143.384 103.928 150.232C103.948 150.69 103.81 151.141 103.538 151.509C103.265 151.877 102.875 152.141 102.431 152.256C101.987 152.371 101.518 152.33 101.101 152.14C100.684 151.95 100.344 151.622 100.14 151.212C97.3 144.956 95.444 138.448 93.82 131.88C92.196 125.312 90.472 118.8 88.88 112.236C87.288 105.672 85.732 99.072 84.276 92.46C83.528 89.16 82.848 85.84 82.132 82.532L81.072 77.564L80.54 75.08L80.276 73.836L80.208 73.528C80.1717 73.424 80.1634 73.3122 80.184 73.204C80.2619 73.0453 80.3772 72.908 80.52 72.804L80.692 72.676C80.758 72.6257 80.8275 72.5802 80.9 72.54C81.072 72.44 81.196 72.356 81.444 72.236C81.5835 72.1644 81.7357 72.121 81.892 72.108Z" fill="#263238"/>
<path d="M103.544 151.264C103.514 151.156 103.443 151.064 103.345 151.007C103.248 150.951 103.133 150.936 103.024 150.964L102.144 151.192L101.264 151.42C101.155 151.448 101.062 151.518 101.004 151.615C100.947 151.711 100.929 151.827 100.956 151.936C101.504 154.456 100.956 156.26 101.54 158.476C102.144 160.808 104.772 162.004 104.772 162.004L104.688 161.008L105.088 161.92C105.088 161.92 106.804 159.6 106.2 157.268C105.632 155.052 104.288 153.732 103.544 151.264Z" fill="#F79321"/>
<path opacity="0.3" d="M103.544 151.264C103.514 151.156 103.443 151.064 103.345 151.007C103.248 150.951 103.133 150.936 103.024 150.964L102.144 151.192L101.264 151.42C101.155 151.448 101.062 151.518 101.004 151.615C100.947 151.711 100.929 151.827 100.956 151.936C101.504 154.456 100.956 156.26 101.54 158.476C102.144 160.808 104.772 162.004 104.772 162.004L104.688 161.008L105.088 161.92C105.088 161.92 106.804 159.6 106.2 157.268C105.632 155.052 104.288 153.732 103.544 151.264Z" fill="white"/>
<path d="M104.228 157.048C104.254 157.153 104.248 157.263 104.211 157.365C104.175 157.467 104.109 157.555 104.022 157.62C103.935 157.684 103.83 157.721 103.722 157.726C103.614 157.731 103.507 157.705 103.414 157.649C103.322 157.593 103.247 157.512 103.201 157.414C103.155 157.316 103.138 157.207 103.154 157.1C103.169 156.993 103.216 156.893 103.288 156.812C103.361 156.732 103.455 156.675 103.56 156.648C103.702 156.613 103.851 156.635 103.977 156.71C104.102 156.785 104.192 156.907 104.228 157.048Z" fill="#263238"/>
<path d="M104.72 161.128C104.704 161.133 104.688 161.134 104.671 161.132C104.655 161.131 104.639 161.125 104.625 161.117C104.611 161.109 104.598 161.098 104.588 161.084C104.579 161.071 104.572 161.056 104.568 161.04L103.576 157.22C103.572 157.204 103.571 157.188 103.573 157.172C103.575 157.155 103.58 157.14 103.588 157.126C103.597 157.112 103.608 157.099 103.62 157.089C103.633 157.079 103.648 157.072 103.664 157.068C103.68 157.063 103.696 157.062 103.713 157.064C103.729 157.065 103.745 157.071 103.759 157.079C103.773 157.087 103.786 157.098 103.796 157.112C103.805 157.125 103.812 157.14 103.816 157.156L104.808 160.976C104.812 160.992 104.813 161.008 104.811 161.024C104.809 161.041 104.804 161.056 104.796 161.07C104.787 161.084 104.777 161.097 104.764 161.107C104.751 161.117 104.736 161.124 104.72 161.128Z" fill="#263238"/>
<path d="M101.48 137.528L96.0881 138.924C95.9385 138.962 95.7802 138.939 95.6475 138.86C95.5149 138.781 95.4187 138.653 95.3801 138.504C95.3417 138.357 95.362 138.201 95.4366 138.069C95.5113 137.937 95.6345 137.839 95.7801 137.796L101.2 136.4C101.347 136.362 101.503 136.382 101.635 136.457C101.767 136.531 101.865 136.654 101.908 136.8C101.929 136.876 101.935 136.955 101.924 137.033C101.914 137.111 101.888 137.187 101.848 137.255C101.808 137.323 101.755 137.382 101.692 137.429C101.629 137.476 101.557 137.509 101.48 137.528Z" fill="#F79321"/>
<path d="M74.108 64.3199C74.012 64.5599 74.064 64.8119 74.22 64.8799C74.376 64.9479 74.584 64.8079 74.68 64.5679C74.776 64.3279 74.728 64.0759 74.568 64.0079C74.408 63.9399 74.208 64.0799 74.108 64.3199Z" fill="#263238"/>
<path d="M74.4961 64L75.1401 64.084C75.1401 64.084 74.6601 64.4 74.4961 64Z" fill="#263238"/>
<path d="M74.22 64.6399C74.2137 65.2838 74.2945 65.9256 74.46 66.5479C74.3005 66.5819 74.1355 66.5806 73.9765 66.544C73.8176 66.5073 73.6686 66.4363 73.54 66.3359L74.22 64.6399Z" fill="#ED893E"/>
<path d="M75.0761 62.8559C75.0511 62.8511 75.0277 62.8401 75.0081 62.8239C74.8642 62.6924 74.6919 62.5958 74.5045 62.5417C74.3172 62.4876 74.12 62.4774 73.9281 62.5119C73.8889 62.5218 73.8473 62.5161 73.8123 62.4959C73.7772 62.4758 73.7513 62.4428 73.7401 62.4039C73.7302 62.3647 73.7359 62.3232 73.7561 62.2881C73.7762 62.253 73.8092 62.2271 73.8481 62.2159C74.0884 62.1683 74.3365 62.1775 74.5726 62.2428C74.8088 62.308 75.0264 62.4276 75.2081 62.5919C75.2224 62.606 75.2337 62.6229 75.2414 62.6414C75.2491 62.6599 75.2531 62.6798 75.2531 62.6999C75.2531 62.72 75.2491 62.7399 75.2414 62.7584C75.2337 62.777 75.2224 62.7938 75.2081 62.8079C75.1918 62.8262 75.1712 62.8402 75.1481 62.8486C75.1251 62.857 75.1003 62.8595 75.0761 62.8559Z" fill="#263238"/>
<path d="M65.6281 64.1959C65.8001 66.1439 65.1521 69.3319 63.6801 70.4159C63.6801 70.4159 64.7881 72.4639 68.3361 72.9399C72.2361 73.4639 70.4041 71.2679 70.4041 71.2679C68.3281 70.4679 68.5521 68.9199 69.0761 67.4959L65.6281 64.1959Z" fill="#FFB573"/>
<path d="M76.256 74.5919C76.564 76.4079 76.944 78.2919 77.34 80.1279C77.552 81.0439 77.764 81.9639 78.012 82.8639C78.26 83.7639 78.508 84.6639 78.784 85.5479C78.936 85.9839 79.072 86.4279 79.232 86.8519L79.472 87.4919L79.528 87.6479V87.6959C79.536 87.7204 79.5453 87.7445 79.556 87.7679C79.6385 87.9105 79.7734 88.0153 79.932 88.0599C80.2484 88.1726 80.5803 88.236 80.916 88.2479C81.7743 88.2716 82.6327 88.2018 83.476 88.0399C84.36 87.8799 85.292 87.6639 86.16 87.4239L86.892 89.0439C86.451 89.3065 85.9971 89.5468 85.532 89.7639C85.0725 89.9891 84.6011 90.1894 84.12 90.3639C83.1127 90.7573 82.0562 91.0103 80.98 91.1159C80.3479 91.1734 79.7106 91.1302 79.092 90.9879C78.2993 90.8072 77.5857 90.3767 77.056 89.7599C76.919 89.5943 76.7959 89.4177 76.688 89.2319C76.632 89.1399 76.588 89.0439 76.54 88.9519L76.464 88.7719L76.152 88.0719C75.948 87.6039 75.752 87.1359 75.58 86.6639C75.236 85.7199 74.908 84.7719 74.624 83.8199C74.34 82.8679 74.084 81.9079 73.824 80.9479C73.348 79.0199 72.96 77.1119 72.672 75.1159L76.256 74.5919Z" fill="#FFB573"/>
<path d="M85.7761 87.536L87.3201 86.312L88.0161 88.688C88.0161 88.688 85.9041 90.216 85.3401 88.42L85.7761 87.536Z" fill="#FFB573"/>
<path d="M88.716 86.732L89.268 88.468L88.016 88.688L87.324 86.312L88.716 86.732Z" fill="#FFB573"/>
<path d="M59.868 162.964L63.096 163.204L64.052 155.792L60.824 155.552L59.868 162.964Z" fill="#FFB573"/>
<path d="M39.196 153.548L41.992 155.248L46.644 149.44L43.848 147.74L39.196 153.548Z" fill="#FFB573"/>
<path d="M43.944 156.104C43.9042 156.11 43.8637 156.11 43.824 156.104C43.424 156.104 42.948 155.48 42.708 155.112C42.6992 155.1 42.6945 155.085 42.6945 155.07C42.6945 155.055 42.6992 155.04 42.708 155.028C42.7157 155.015 42.727 155.005 42.7405 154.999C42.7541 154.992 42.7692 154.99 42.784 154.992C42.916 155.02 44.072 155.264 44.224 155.648C44.2403 155.69 44.2452 155.736 44.2381 155.781C44.2311 155.826 44.2124 155.869 44.184 155.904C44.1303 155.997 44.0452 156.068 43.944 156.104ZM42.944 155.196C43.284 155.676 43.608 155.96 43.828 155.964C43.8759 155.964 43.923 155.952 43.9645 155.928C44.0061 155.904 44.0404 155.87 44.064 155.828C44.0747 155.811 44.0803 155.792 44.0803 155.772C44.0803 155.752 44.0747 155.733 44.064 155.716C44 155.512 43.404 155.308 42.944 155.2V155.196Z" fill="#F79321"/>
<path d="M43.7721 155.104C43.4397 155.194 43.0919 155.212 42.7521 155.156C42.7394 155.152 42.728 155.144 42.719 155.135C42.7099 155.125 42.7034 155.113 42.7001 155.1C42.6938 155.089 42.6904 155.077 42.6904 155.064C42.6904 155.051 42.6938 155.039 42.7001 155.028C42.7241 155 43.3601 154.348 43.8281 154.368C43.8885 154.369 43.9479 154.383 44.002 154.41C44.056 154.437 44.1032 154.476 44.1401 154.524C44.1834 154.567 44.2109 154.623 44.2182 154.683C44.2255 154.743 44.212 154.804 44.1801 154.856C44.0742 154.98 43.9312 155.067 43.7721 155.104ZM42.9321 155.032C43.3321 155.076 43.9481 154.96 44.0721 154.776C44.0721 154.744 44.1041 154.7 44.0401 154.62C44.0165 154.589 43.9862 154.564 43.9516 154.547C43.9169 154.53 43.8788 154.52 43.8401 154.52C43.4916 154.592 43.1743 154.771 42.9321 155.032Z" fill="#F79321"/>
<path d="M42.832 154.624L40.18 152.072C40.1362 152.027 40.0773 152 40.0146 151.995C39.9519 151.991 39.8898 152.01 39.84 152.048L37.576 153.792C37.5215 153.84 37.4778 153.9 37.4479 153.966C37.4179 154.033 37.4025 154.105 37.4025 154.178C37.4025 154.251 37.4179 154.323 37.4479 154.39C37.4778 154.456 37.5215 154.516 37.576 154.564C38.516 155.44 39.012 155.816 40.176 156.94C40.896 157.632 41.872 158.712 42.864 159.668C43.856 160.624 44.824 159.72 44.496 159.236C43.016 157.068 43.236 156.256 43.104 155.148C43.0758 154.947 42.9798 154.762 42.832 154.624Z" fill="#263238"/>
<path d="M64.496 163.308C64.1544 163.302 63.8142 163.263 63.48 163.192C63.4646 163.189 63.4506 163.181 63.4398 163.169C63.4291 163.158 63.4221 163.143 63.42 163.128C63.4179 163.112 63.4206 163.096 63.4278 163.082C63.4349 163.068 63.4461 163.056 63.46 163.048C63.608 162.972 64.92 162.312 65.304 162.536C65.3409 162.555 65.3719 162.583 65.3938 162.619C65.4156 162.654 65.4275 162.694 65.428 162.736C65.4362 162.805 65.427 162.876 65.4012 162.941C65.3753 163.006 65.3337 163.063 65.28 163.108C65.0487 163.261 64.7724 163.332 64.496 163.308ZM63.736 163.084C64.448 163.2 64.98 163.172 65.18 162.996C65.2153 162.966 65.2425 162.927 65.2593 162.884C65.2761 162.841 65.2818 162.794 65.276 162.748C65.2771 162.732 65.2736 162.716 65.2658 162.701C65.258 162.687 65.2462 162.676 65.232 162.668C65.016 162.548 64.276 162.828 63.736 163.084Z" fill="#F79321"/>
<path d="M63.496 163.2C63.4816 163.204 63.4664 163.204 63.452 163.2C63.4402 163.192 63.431 163.182 63.4253 163.169C63.4196 163.156 63.4178 163.142 63.42 163.128C63.42 163.072 63.576 161.752 64.3 161.752H64.36C64.572 161.772 64.632 161.876 64.644 161.964C64.704 162.328 63.92 163.028 63.528 163.204L63.496 163.2ZM64.296 161.892C63.832 161.892 63.648 162.66 63.592 162.988C63.992 162.748 64.524 162.188 64.488 161.98C64.488 161.96 64.488 161.908 64.34 161.896L64.296 161.892Z" fill="#F79321"/>
<path d="M63.2961 162.744H59.6681C59.6053 162.744 59.5444 162.766 59.4962 162.806C59.4479 162.846 59.4153 162.902 59.4041 162.964L58.9161 165.832C58.9064 165.904 58.9122 165.977 58.933 166.046C58.9539 166.116 58.9895 166.18 59.0372 166.234C59.0849 166.289 59.1438 166.333 59.2098 166.363C59.2759 166.393 59.3476 166.408 59.4201 166.408C60.6841 166.408 61.2961 166.312 62.8921 166.312C63.8721 166.312 65.9001 166.412 67.2561 166.412C68.6121 166.412 68.7201 165.072 68.1561 164.952C65.6401 164.408 64.6641 163.656 63.8321 162.952C63.6836 162.821 63.4937 162.748 63.2961 162.744Z" fill="#263238"/>
<path opacity="0.2" d="M64.052 155.792L63.52 159.912L60.328 159.376L60.824 155.556L64.052 155.792Z" fill="black"/>
<path opacity="0.2" d="M43.844 147.74L46.644 149.444L44.716 151.844L41.86 150.216L43.844 147.74Z" fill="black"/>
<path d="M58.2401 89.8639L71.3081 91.6199C76.3721 73.2919 74.8801 72.7999 74.8801 72.7999C74.3043 72.5254 73.7094 72.2928 73.1001 72.1039C72.4841 71.8799 71.8614 71.6759 71.2321 71.4919C69.9749 71.1188 68.6967 70.8209 67.4041 70.5999C64.8953 70.1685 62.3455 70.0249 59.8041 70.1719C59.5494 70.1897 59.302 70.2648 59.0804 70.3915C58.8587 70.5182 58.6686 70.6934 58.5241 70.9039C58.4697 70.982 58.4229 71.065 58.3841 71.1519C58.2419 71.4563 58.1865 71.794 58.2241 72.1279C59.3281 81.7599 58.9721 84.9279 58.2401 89.8639Z" fill="#F79321"/>
<path opacity="0.2" d="M72.5801 78.3999C72.3227 80.2964 72.5668 82.2272 73.2881 83.9999C74.1561 80.4239 74.6281 77.9999 74.8601 76.3199C73.8641 76.2759 72.8281 76.6599 72.5801 78.3999Z" fill="black"/>
<path d="M74.7641 72.7359C77.0041 74.0159 78.5601 77.0679 79.0281 78.8399L74.2601 83.1999C74.2601 83.1999 71.7881 77.4519 71.9881 75.6679C72.1881 73.8839 73.9201 72.2519 74.7641 72.7359Z" fill="#F79321"/>
<path d="M66.336 60.176C65.332 63.208 64.844 64.468 65.724 66.628C67.052 69.88 70.984 70.568 72.872 67.924C74.572 65.544 75.928 60.984 73.508 58.56C72.9995 58.0191 72.3587 57.6203 71.6489 57.4029C70.9391 57.1854 70.1848 57.1569 69.4606 57.3201C68.7364 57.4833 68.0673 57.8325 67.5193 58.3334C66.9714 58.8342 66.5635 59.4693 66.336 60.176Z" fill="#FFB573"/>
<path d="M71.308 62.8639C71.0971 63.4201 71.0635 64.0279 71.212 64.6039C71.412 65.4039 72.012 65.4719 72.384 64.9559C72.756 64.4399 73.008 63.5079 72.608 62.8359C72.208 62.1639 71.568 62.2519 71.308 62.8639Z" fill="#FFB573"/>
<path d="M67.4241 56.4C65.2641 55.2 61.3761 58.712 60.4001 64.444C59.7001 68.548 68.4641 70.532 74.0001 70.468C73.6321 69.5 71.3321 66.588 72.8001 63.784C73.8681 61.748 75.0841 62.22 75.1641 59.852C75.2641 56.868 71.3121 54.868 67.4241 56.4Z" fill="#263238"/>
<path d="M72.3401 57.688C74.8521 57.444 77.3761 59.912 75.5041 62.372C75.0469 62.0053 74.5146 61.7436 73.9451 61.6054C73.3755 61.4671 72.7825 61.4557 72.2081 61.572C71.0601 61.828 72.3401 57.688 72.3401 57.688Z" fill="#263238"/>
<path d="M67.86 91.1559C67.86 91.1559 62.8 112.604 60.4 124.928C57.896 137.928 45.892 151.472 45.892 151.472L41.828 149.2C41.828 149.2 49.38 136.84 51.828 124.7C56.804 100.06 53.428 95.0999 58.228 89.8679L67.86 91.1559Z" fill="#263238"/>
<path d="M46.3081 151.852L41.2161 149.016L41.9601 147.512L47.6721 150.14L46.3081 151.852Z" fill="#F79321"/>
<path opacity="0.2" d="M65.16 95.816C61.216 99.244 61.644 111.416 62.056 116.88C63.712 109.088 65.7 100.416 66.856 95.396C66.452 95.084 65.888 95.2 65.16 95.816Z" fill="black"/>
<path d="M71.116 91.628C71.116 91.628 73.4 117.096 72.152 126.808C70.856 136.912 64.264 158.892 64.264 158.892L59.6 158.292C59.6 158.292 63.384 136.508 64.056 126.508C64.788 115.6 61.536 90.344 61.536 90.344L71.116 91.628Z" fill="#263238"/>
<path d="M65.252 159.16L58.62 158.304L58.72 156.344L65.92 157.04L65.252 159.16Z" fill="#F79321"/>
<path d="M58.124 89.0759L57.412 90.1599C57.356 90.2439 57.456 90.3479 57.604 90.3679L71.312 92.2079C71.432 92.2079 71.536 92.1799 71.548 92.1079L71.792 90.9639C71.792 90.8839 71.712 90.7999 71.584 90.7839L58.348 89.0079C58.308 88.9996 58.2665 89.0014 58.2273 89.0133C58.1882 89.0252 58.1527 89.0467 58.124 89.0759Z" fill="#F79321"/>
<path opacity="0.5" d="M58.124 89.0759L57.412 90.1599C57.356 90.2439 57.456 90.3479 57.604 90.3679L71.312 92.2079C71.432 92.2079 71.536 92.1799 71.548 92.1079L71.792 90.9639C71.792 90.8839 71.712 90.7999 71.584 90.7839L58.348 89.0079C58.308 88.9996 58.2665 89.0014 58.2273 89.0133C58.1882 89.0252 58.1527 89.0467 58.124 89.0759Z" fill="black"/>
<path d="M59.748 90.7999L59.392 90.7519C59.32 90.7519 59.272 90.6999 59.28 90.6559L59.608 89.1679C59.608 89.1279 59.684 89.0999 59.752 89.1079L60.108 89.1559C60.18 89.1559 60.228 89.2079 60.22 89.2519L59.892 90.7399C59.884 90.7639 59.816 90.7999 59.748 90.7999Z" fill="#263238"/>
<path d="M68.7 92L68.344 91.952C68.276 91.952 68.224 91.9 68.232 91.856L68.56 90.368C68.56 90.324 68.636 90.296 68.708 90.308L69.06 90.352C69.132 90.352 69.18 90.408 69.172 90.452L68.844 91.936C68.836 92 68.768 92 68.7 92Z" fill="#263238"/>
</svg>
