<svg width="35" height="35" viewBox="0 0 35 35" fill="none" xmlns="http://www.w3.org/2000/svg">
<path d="M19.1973 27.8324C19.9226 27.8538 20.6346 28.0306 21.2847 28.3509H21.3239C21.867 28.794 21.9593 29.585 21.5326 30.1398C20.7557 31.2517 19.5126 31.9527 18.1535 32.0455C16.7572 32.212 15.3511 31.8254 14.2395 30.9695C13.6678 30.5775 13.2963 29.9575 13.2218 29.2713C13.2218 28.5453 13.9003 28.2083 14.5265 28.0657C15.26 27.9112 16.0077 27.833 16.7575 27.8324H19.1973ZM17.5534 2.91669C22.0675 2.91669 26.7252 6.18347 27.208 10.9151C27.2862 11.8874 27.208 12.8985 27.2862 13.8837C27.5424 15.1543 28.132 16.3349 28.9954 17.3061C29.5321 18.1042 29.843 19.031 29.8957 19.9895V20.2877C29.9036 21.581 29.4402 22.8335 28.5909 23.8137C27.5145 24.9646 26.0541 25.6879 24.4812 25.849C19.8341 26.4452 15.1291 26.4452 10.482 25.849C8.89061 25.7001 7.4096 24.9759 6.32011 23.8137C5.49748 22.8241 5.0661 21.5705 5.10676 20.2877V19.9895C5.15767 19.0346 5.45902 18.1095 5.98089 17.3061C6.84808 16.334 7.44604 15.1547 7.71611 13.8837C7.79439 12.8985 7.71611 11.9003 7.79439 10.9151C8.29017 6.18347 12.8565 2.91669 17.4229 2.91669H17.5534Z" fill="#F79321"/>
</svg>
