<svg width="40" height="40" viewBox="0 0 40 40" fill="none" xmlns="http://www.w3.org/2000/svg">
<g clip-path="url(#clip0_417_355)">
<path d="M28.9999 36.6667C22.1954 36.6578 15.6721 33.9508 10.8606 29.1393C6.04906 24.3278 3.34207 17.8045 3.33325 11C3.33325 8.96666 4.14099 7.01661 5.57877 5.57884C7.01655 4.14106 8.96659 3.33332 10.9999 3.33332C11.4305 3.33004 11.8603 3.36912 12.2833 3.44999C12.6921 3.51049 13.094 3.61097 13.4833 3.74999C13.757 3.84604 14.0009 4.01188 14.1909 4.23111C14.3809 4.45034 14.5104 4.71537 14.5666 4.99999L16.8499 15C16.9115 15.2714 16.9041 15.554 16.8284 15.8218C16.7527 16.0896 16.6111 16.3342 16.4166 16.5333C16.1999 16.7667 16.1833 16.7833 14.1333 17.85C15.7749 21.4514 18.6553 24.3436 22.2499 26C23.3333 23.9333 23.3499 23.9167 23.5833 23.7C23.7823 23.5055 24.0269 23.3639 24.2948 23.2882C24.5626 23.2125 24.8451 23.2051 25.1166 23.2667L35.1166 25.55C35.3921 25.6139 35.6468 25.7469 35.8567 25.9364C36.0667 26.1259 36.2249 26.3658 36.3166 26.6333C36.4573 27.0289 36.5632 27.436 36.6333 27.85C36.7003 28.2689 36.7338 28.6924 36.7333 29.1167C36.7025 31.1413 35.8721 33.0716 34.4232 34.4861C32.9743 35.9006 31.0247 36.6845 28.9999 36.6667Z" fill="#F79321"/>
</g>
<defs>
<clipPath id="clip0_417_355">
<rect width="40" height="40" fill="white"/>
</clipPath>
</defs>
</svg>
