<svg width="20" height="20" viewBox="0 0 20 20" fill="none" xmlns="http://www.w3.org/2000/svg">
<path fill-rule="evenodd" clip-rule="evenodd" d="M3.54169 2.50004C3.54169 1.89225 3.78313 1.30936 4.2129 0.879588C4.64267 0.449817 5.22557 0.208374 5.83335 0.208374H14.1667C14.7745 0.208374 15.3574 0.449817 15.7871 0.879588C16.2169 1.30936 16.4584 1.89225 16.4584 2.50004V17.5C16.4584 18.1078 16.2169 18.6907 15.7871 19.1205C15.3574 19.5503 14.7745 19.7917 14.1667 19.7917H5.83335C5.22557 19.7917 4.64267 19.5503 4.2129 19.1205C3.78313 18.6907 3.54169 18.1078 3.54169 17.5V2.50004ZM5.83335 1.45837C5.25835 1.45837 4.79169 1.92504 4.79169 2.50004V17.5C4.79169 18.075 5.25835 18.5417 5.83335 18.5417H14.1667C14.7417 18.5417 15.2084 18.075 15.2084 17.5V2.50004C15.2084 1.92504 14.7417 1.45837 14.1667 1.45837H5.83335Z" fill="#F79321"/>
<path fill-rule="evenodd" clip-rule="evenodd" d="M6.13499 0.505041C6.19097 0.414369 6.2692 0.339515 6.36226 0.287592C6.45531 0.235668 6.5601 0.208399 6.66666 0.208374H13.3333C13.4398 0.208519 13.5444 0.235842 13.6373 0.287751C13.7302 0.33966 13.8083 0.414436 13.8643 0.504993C13.9202 0.595549 13.952 0.698886 13.9568 0.805208C13.9616 0.911531 13.9392 1.01732 13.8917 1.11254L13.2892 2.31921C13.168 2.56136 12.9818 2.76499 12.7515 2.90732C12.5212 3.04964 12.2558 3.12503 11.985 3.12504H8.01499C7.74423 3.12503 7.47882 3.04964 7.24848 2.90732C7.01814 2.76499 6.83197 2.56136 6.71083 2.31921L6.10749 1.11254C6.05982 1.01721 6.03733 0.911273 6.04214 0.804798C6.04695 0.698323 6.07892 0.595682 6.13499 0.505041ZM7.67832 1.45837L7.82833 1.76004C7.84568 1.79467 7.87233 1.82377 7.90531 1.84408C7.93828 1.8644 7.97626 1.87512 8.01499 1.87504H11.985C12.0237 1.87512 12.0617 1.8644 12.0947 1.84408C12.1276 1.82377 12.1543 1.79467 12.1717 1.76004L12.3217 1.45837H7.67916H7.67832ZM7.70833 16.6667C7.70833 16.5009 7.77417 16.342 7.89138 16.2248C8.00859 16.1076 8.16756 16.0417 8.33332 16.0417H11.6667C11.8324 16.0417 11.9914 16.1076 12.1086 16.2248C12.2258 16.342 12.2917 16.5009 12.2917 16.6667C12.2917 16.8325 12.2258 16.9914 12.1086 17.1087C11.9914 17.2259 11.8324 17.2917 11.6667 17.2917H8.33332C8.16756 17.2917 8.00859 17.2259 7.89138 17.1087C7.77417 16.9914 7.70833 16.8325 7.70833 16.6667Z" fill="#F79321"/>
</svg>
