<svg width="40" height="40" viewBox="0 0 40 40" fill="none" xmlns="http://www.w3.org/2000/svg">
<path d="M11.6666 16.6668C11.3369 16.6668 11.0147 16.7646 10.7406 16.9477C10.4666 17.1308 10.2529 17.3911 10.1268 17.6957C10.0006 18.0002 9.96763 18.3353 10.0319 18.6586C10.0963 18.9819 10.255 19.2789 10.4881 19.512C10.7212 19.7451 11.0181 19.9038 11.3414 19.9681C11.6647 20.0324 11.9998 19.9994 12.3044 19.8733C12.6089 19.7471 12.8692 19.5335 13.0524 19.2594C13.2355 18.9854 13.3333 18.6631 13.3333 18.3335C13.3333 17.8915 13.1577 17.4675 12.8451 17.155C12.5325 16.8424 12.1086 16.6668 11.6666 16.6668ZM31.6666 10.0002H29.9999V5.00016C29.9999 4.55814 29.8243 4.13421 29.5118 3.82165C29.1992 3.50909 28.7753 3.3335 28.3333 3.3335H11.6666C11.2246 3.3335 10.8006 3.50909 10.4881 3.82165C10.1755 4.13421 9.99992 4.55814 9.99992 5.00016V10.0002H8.33325C7.00717 10.0002 5.7354 10.5269 4.79772 11.4646C3.86004 12.4023 3.33325 13.6741 3.33325 15.0002V25.0002C3.33325 26.3262 3.86004 27.598 4.79772 28.5357C5.7354 29.4734 7.00717 30.0002 8.33325 30.0002H9.99992V35.0002C9.99992 35.4422 10.1755 35.8661 10.4881 36.1787C10.8006 36.4912 11.2246 36.6668 11.6666 36.6668H28.3333C28.7753 36.6668 29.1992 36.4912 29.5118 36.1787C29.8243 35.8661 29.9999 35.4422 29.9999 35.0002V30.0002H31.6666C32.9927 30.0002 34.2644 29.4734 35.2021 28.5357C36.1398 27.598 36.6666 26.3262 36.6666 25.0002V15.0002C36.6666 13.6741 36.1398 12.4023 35.2021 11.4646C34.2644 10.5269 32.9927 10.0002 31.6666 10.0002ZM13.3333 6.66683H26.6666V10.0002H13.3333V6.66683ZM26.6666 33.3335H13.3333V26.6668H26.6666V33.3335ZM33.3333 25.0002C33.3333 25.4422 33.1577 25.8661 32.8451 26.1787C32.5325 26.4912 32.1086 26.6668 31.6666 26.6668H29.9999V25.0002C29.9999 24.5581 29.8243 24.1342 29.5118 23.8217C29.1992 23.5091 28.7753 23.3335 28.3333 23.3335H11.6666C11.2246 23.3335 10.8006 23.5091 10.4881 23.8217C10.1755 24.1342 9.99992 24.5581 9.99992 25.0002V26.6668H8.33325C7.89122 26.6668 7.4673 26.4912 7.15474 26.1787C6.84218 25.8661 6.66659 25.4422 6.66659 25.0002V15.0002C6.66659 14.5581 6.84218 14.1342 7.15474 13.8217C7.4673 13.5091 7.89122 13.3335 8.33325 13.3335H31.6666C32.1086 13.3335 32.5325 13.5091 32.8451 13.8217C33.1577 14.1342 33.3333 14.5581 33.3333 15.0002V25.0002Z" fill="white"/>
</svg>
