<svg width="15" height="15" viewBox="0 0 15 15" fill="none" xmlns="http://www.w3.org/2000/svg">
<g clip-path="url(#clip0_102_112)">
<path d="M14.7375 2.47037C14.6563 2.40344 14.5609 2.35598 14.4585 2.3316C14.3562 2.30723 14.2496 2.30659 14.1469 2.32974L13.5938 2.45162V1.8188C13.5936 1.71247 13.5695 1.60754 13.5232 1.51179C13.477 1.41604 13.4098 1.33193 13.3266 1.26568C13.2434 1.19921 13.146 1.1528 13.0419 1.13004C12.9379 1.10728 12.83 1.10878 12.7266 1.13443L7.50004 2.39068L2.27348 1.13443C2.17005 1.10943 2.06229 1.10825 1.95835 1.131C1.85441 1.15375 1.75699 1.19983 1.67346 1.26574C1.58994 1.33166 1.52248 1.4157 1.4762 1.51151C1.42991 1.60732 1.40601 1.7124 1.40629 1.8188V2.45162L0.853163 2.32974C0.750523 2.30634 0.643877 2.30685 0.541466 2.33124C0.439055 2.35562 0.343621 2.40322 0.262538 2.47037C0.17975 2.53561 0.113034 2.61899 0.0675256 2.71407C0.0220171 2.80915 -0.0010709 2.9134 3.81454e-05 3.0188V10.0782C0.000475581 10.2394 0.0560342 10.3957 0.157496 10.521C0.258957 10.6464 0.400222 10.7332 0.557851 10.7672L0.778163 10.8141V13.1363C0.778012 13.2434 0.803051 13.349 0.851258 13.4446C0.899464 13.5402 0.969486 13.6231 1.05566 13.6866C1.17781 13.7785 1.32655 13.8282 1.47941 13.8282C1.54356 13.828 1.6074 13.8194 1.66926 13.8024L7.44144 12.2274L7.45316 12.2297C7.46009 12.2313 7.46716 12.2321 7.47426 12.2321L13.3402 13.8591C13.402 13.8764 13.4659 13.8852 13.53 13.8854C13.7162 13.8849 13.8946 13.8106 14.026 13.6788C14.1575 13.547 14.2313 13.3684 14.2313 13.1822V10.8165L14.4422 10.7719C14.5999 10.7379 14.7411 10.651 14.8426 10.5257C14.944 10.4004 14.9996 10.2441 15 10.0829V3.0188C15.0011 2.9134 14.9781 2.80915 14.9326 2.71407C14.887 2.61899 14.8203 2.53561 14.7375 2.47037ZM7.73441 2.81677L12.8344 1.58912C12.8694 1.5814 12.9056 1.5816 12.9405 1.58971C12.9754 1.59782 13.008 1.61364 13.036 1.63599C13.0642 1.65731 13.0869 1.68497 13.1024 1.71674C13.1179 1.7485 13.1256 1.78347 13.125 1.8188V7.6013L8.52332 8.70521C8.22277 8.77839 7.94919 8.93542 7.73441 9.15802V2.81677ZM7.73441 10.3013C7.73379 10.0379 7.82215 9.78198 7.98516 9.57507C8.14818 9.36815 8.37629 9.22235 8.63254 9.16131L13.125 8.08318V8.82193C13.1245 8.86399 13.1127 8.90514 13.091 8.94114C13.0692 8.97715 13.0383 9.0067 13.0013 9.02677C12.9838 9.03701 12.9651 9.04489 12.9455 9.05021L7.73441 10.3022V10.3013ZM1.87504 1.8188C1.87445 1.78347 1.88221 1.7485 1.89769 1.71674C1.91316 1.68497 1.93592 1.65731 1.9641 1.63599C2.00551 1.60323 2.05661 1.5851 2.10941 1.58443C2.12828 1.58365 2.14718 1.58523 2.16566 1.58912L7.26566 2.81677V9.15802C7.05087 8.93544 6.77729 8.77841 6.47676 8.70521L1.87504 7.6013V1.8188ZM1.87504 8.08318L6.36754 9.16131C6.62378 9.22235 6.8519 9.36815 7.01491 9.57507C7.17793 9.78198 7.26629 10.0379 7.26566 10.3013L2.05457 9.05115C2.03503 9.04582 2.01627 9.03794 1.99879 9.02771C1.96168 9.00756 1.93064 8.97786 1.90888 8.94168C1.88713 8.90549 1.87544 8.86415 1.87504 8.82193V8.08318ZM1.54363 13.3585C1.50885 13.368 1.47236 13.3694 1.43694 13.3627C1.40152 13.356 1.36811 13.3412 1.33926 13.3196C1.31063 13.2984 1.28736 13.2707 1.27133 13.2389C1.25529 13.2071 1.24693 13.1719 1.24691 13.1363V10.9135L6.45566 12.0179L1.54363 13.3585ZM13.7625 13.1818C13.7626 13.2179 13.7543 13.2536 13.7383 13.286C13.7223 13.3184 13.6991 13.3467 13.6703 13.3686C13.6416 13.3905 13.6082 13.4055 13.5727 13.4123C13.5372 13.4192 13.5007 13.4178 13.4658 13.4082L8.49707 12.0291L13.7625 10.9163V13.1818ZM14.5313 10.0829C14.531 10.1368 14.5123 10.1891 14.4782 10.2309C14.444 10.2727 14.3966 10.3015 14.3438 10.3126L7.87035 11.6827L7.55535 11.7493L7.54832 11.7465L1.22394 10.4283L0.656288 10.3079C0.60347 10.2968 0.55604 10.268 0.521916 10.2262C0.487792 10.1844 0.469039 10.1321 0.468788 10.0782V3.0188C0.468201 2.98347 0.475961 2.9485 0.491437 2.91674C0.506913 2.88497 0.529668 2.85731 0.557851 2.83599C0.598163 2.80128 0.64999 2.78289 0.703163 2.78443C0.720478 2.78386 0.737797 2.78543 0.754726 2.78912L1.40629 2.92974V8.8224C1.40891 8.84492 1.41267 8.86729 1.41754 8.88943C1.42939 9.0306 1.48443 9.16469 1.57517 9.27346C1.66592 9.38224 1.78797 9.46043 1.92473 9.4974C1.93223 9.49974 1.93785 9.50443 1.94535 9.50677L2.22285 9.57287L7.44379 10.8282C7.46071 10.8319 7.47803 10.8334 7.49535 10.8329H7.50473C7.52204 10.8334 7.53936 10.8319 7.55629 10.8282L12.7772 9.57287L13.0547 9.5063C13.0627 9.50443 13.0688 9.49927 13.0768 9.49693C13.2109 9.46023 13.3309 9.38376 13.4207 9.27758C13.5106 9.17139 13.5662 9.04048 13.5802 8.90209C13.5863 8.87582 13.5908 8.84921 13.5938 8.8224V2.92974L14.2454 2.78912C14.2797 2.7819 14.3152 2.7824 14.3493 2.79056C14.3834 2.79872 14.4153 2.81435 14.4427 2.83632C14.47 2.85829 14.4921 2.88605 14.5075 2.91761C14.5228 2.94916 14.5309 2.98373 14.5313 3.0188V10.0829ZM8.81441 6.50068C8.83335 6.50069 8.85223 6.49848 8.87066 6.49412L12.1271 5.6799C12.1861 5.66371 12.2365 5.62506 12.2674 5.57222C12.2983 5.51937 12.3073 5.45653 12.2925 5.39713C12.2777 5.33773 12.2402 5.28649 12.1881 5.25436C12.136 5.22223 12.0734 5.21177 12.0136 5.22521L8.7577 6.03896C8.70228 6.05285 8.65385 6.08649 8.6215 6.13358C8.58914 6.18066 8.5751 6.23794 8.58201 6.29465C8.58892 6.35136 8.6163 6.40359 8.65901 6.44153C8.70172 6.47947 8.75682 6.5005 8.81394 6.50068H8.81441ZM8.81441 5.09443C8.83335 5.09444 8.85223 5.09223 8.87066 5.08787L12.1271 4.27365C12.1861 4.25746 12.2365 4.21881 12.2674 4.16597C12.2983 4.11312 12.3073 4.05028 12.2925 3.99088C12.2777 3.93148 12.2402 3.88024 12.1881 3.84811C12.136 3.81598 12.0734 3.80552 12.0136 3.81896L8.7577 4.63271C8.70228 4.6466 8.65385 4.68024 8.6215 4.72733C8.58914 4.77441 8.5751 4.83169 8.58201 4.8884C8.58892 4.94511 8.6163 4.99734 8.65901 5.03528C8.70172 5.07322 8.75682 5.09425 8.81394 5.09443H8.81441ZM8.81441 3.68818C8.83335 3.68818 8.85223 3.68598 8.87066 3.68162L12.1271 2.8674C12.1861 2.85121 12.2365 2.81256 12.2674 2.75972C12.2983 2.70687 12.3073 2.64403 12.2925 2.58463C12.2777 2.52523 12.2402 2.47399 12.1881 2.44186C12.136 2.40973 12.0734 2.39927 12.0136 2.41271L8.7577 3.22646C8.70228 3.24035 8.65385 3.27399 8.6215 3.32108C8.58914 3.36816 8.5751 3.42544 8.58201 3.48215C8.58892 3.53886 8.6163 3.59109 8.65901 3.62903C8.70172 3.66697 8.75682 3.688 8.81394 3.68818H8.81441ZM8.81441 7.90693C8.83335 7.90694 8.85223 7.90473 8.87066 7.90037L12.1271 7.08615C12.1861 7.06996 12.2365 7.03131 12.2674 6.97847C12.2983 6.92562 12.3073 6.86278 12.2925 6.80338C12.2777 6.74398 12.2402 6.69274 12.1881 6.66061C12.136 6.62848 12.0734 6.61802 12.0136 6.63146L8.7577 7.44521C8.70228 7.4591 8.65385 7.49274 8.6215 7.53983C8.58914 7.58691 8.5751 7.64419 8.58201 7.7009C8.58892 7.75761 8.6163 7.80984 8.65901 7.84778C8.70172 7.88572 8.75682 7.90675 8.81394 7.90693H8.81441ZM6.03332 6.03896L2.77738 5.22474C2.71702 5.2097 2.65316 5.21925 2.59985 5.25129C2.57345 5.26716 2.55043 5.28807 2.53211 5.31283C2.5138 5.33759 2.50053 5.36572 2.49309 5.3956C2.48564 5.42549 2.48415 5.45655 2.4887 5.48701C2.49326 5.51747 2.50377 5.54674 2.51963 5.57314C2.55168 5.62645 2.60359 5.66486 2.66394 5.6799L5.91988 6.49412C5.93847 6.49852 5.9575 6.50072 5.9766 6.50068C6.03377 6.50062 6.08894 6.47966 6.13174 6.44176C6.17453 6.40386 6.202 6.35162 6.20897 6.29488C6.21594 6.23814 6.20193 6.18081 6.16958 6.13368C6.13723 6.08654 6.08877 6.05286 6.03332 6.03896ZM6.03332 4.63271L2.77738 3.81849C2.71702 3.80345 2.65316 3.813 2.59985 3.84504C2.57345 3.86091 2.55043 3.88182 2.53211 3.90658C2.5138 3.93134 2.50053 3.95947 2.49309 3.98935C2.48564 4.01924 2.48415 4.0503 2.4887 4.08076C2.49326 4.11122 2.50377 4.14049 2.51963 4.16689C2.55168 4.2202 2.60359 4.25861 2.66394 4.27365L5.91988 5.08787C5.93847 5.09227 5.9575 5.09447 5.9766 5.09443C6.03377 5.09437 6.08894 5.07341 6.13174 5.03551C6.17453 4.99761 6.202 4.94537 6.20897 4.88863C6.21594 4.83189 6.20193 4.77456 6.16958 4.72743C6.13723 4.68029 6.08877 4.64661 6.03332 4.63271ZM6.03332 3.22646L2.77738 2.41224C2.7475 2.40479 2.71644 2.4033 2.68597 2.40786C2.65551 2.41242 2.62625 2.42293 2.59985 2.43879C2.54653 2.47083 2.50813 2.52274 2.49309 2.5831C2.47804 2.64346 2.48759 2.70732 2.51963 2.76064C2.55168 2.81395 2.60359 2.85236 2.66394 2.8674L5.91988 3.68162C5.93847 3.68602 5.9575 3.68822 5.9766 3.68818C6.03377 3.68812 6.08894 3.66716 6.13174 3.62926C6.17453 3.59136 6.202 3.53912 6.20897 3.48238C6.21594 3.42564 6.20193 3.36831 6.16958 3.32118C6.13723 3.27404 6.08877 3.24036 6.03332 3.22646ZM6.03332 7.44521L2.77738 6.63099C2.71702 6.61595 2.65316 6.6255 2.59985 6.65754C2.54653 6.68958 2.50813 6.74149 2.49309 6.80185C2.47804 6.86221 2.48759 6.92607 2.51963 6.97939C2.55168 7.0327 2.60359 7.07111 2.66394 7.08615L5.91988 7.90037C5.93847 7.90477 5.9575 7.90697 5.9766 7.90693C6.03377 7.90687 6.08894 7.88591 6.13174 7.84801C6.17453 7.81011 6.202 7.75787 6.20897 7.70113C6.21594 7.64439 6.20193 7.58706 6.16958 7.53993C6.13723 7.49279 6.08877 7.45911 6.03332 7.44521Z" fill="white"/>
</g>
<defs>
<clipPath id="clip0_102_112">
<rect width="15" height="15" fill="white"/>
</clipPath>
</defs>
</svg>
