<svg width="30" height="30" viewBox="0 0 30 30" fill="none" xmlns="http://www.w3.org/2000/svg">
<path d="M17.5 16.25C17.5 15.9185 17.3683 15.6005 17.1339 15.3661C16.8995 15.1317 16.5815 15 16.25 15H10C9.66848 15 9.35054 15.1317 9.11612 15.3661C8.8817 15.6005 8.75 15.9185 8.75 16.25C8.75 16.5815 8.8817 16.8995 9.11612 17.1339C9.35054 17.3683 9.66848 17.5 10 17.5H16.25C16.5815 17.5 16.8995 17.3683 17.1339 17.1339C17.3683 16.8995 17.5 16.5815 17.5 16.25ZM13.75 25H7.5C7.16848 25 6.85054 24.8683 6.61612 24.6339C6.3817 24.3995 6.25 24.0815 6.25 23.75V6.25C6.25 5.91848 6.3817 5.60054 6.61612 5.36612C6.85054 5.1317 7.16848 5 7.5 5H13.75V8.75C13.75 9.74456 14.1451 10.6984 14.8483 11.4017C15.5516 12.1049 16.5054 12.5 17.5 12.5H21.25V13.75C21.25 14.0815 21.3817 14.3995 21.6161 14.6339C21.8505 14.8683 22.1685 15 22.5 15C22.8315 15 23.1495 14.8683 23.3839 14.6339C23.6183 14.3995 23.75 14.0815 23.75 13.75V11.25C23.75 11.25 23.75 11.25 23.75 11.175C23.7383 11.0599 23.7131 10.9467 23.675 10.8375V10.725C23.6182 10.5947 23.5376 10.476 23.4375 10.375L15.9375 2.875C15.8342 2.77777 15.716 2.6976 15.5875 2.6375H15.475C15.3521 2.56563 15.2161 2.51889 15.075 2.5H7.5C6.50544 2.5 5.55161 2.89509 4.84835 3.59835C4.14509 4.30161 3.75 5.25544 3.75 6.25V23.75C3.75 24.7446 4.14509 25.6984 4.84835 26.4017C5.55161 27.1049 6.50544 27.5 7.5 27.5H13.75C14.0815 27.5 14.3995 27.3683 14.6339 27.1339C14.8683 26.8995 15 26.5815 15 26.25C15 25.9185 14.8683 25.6005 14.6339 25.3661C14.3995 25.1317 14.0815 25 13.75 25ZM16.25 6.7625L19.4875 10H17.5C17.1685 10 16.8505 9.8683 16.6161 9.63388C16.3817 9.39946 16.25 9.08152 16.25 8.75V6.7625ZM25 17.5C24.7582 17.5016 24.522 17.5733 24.3201 17.7064C24.1182 17.8395 23.9592 18.0283 23.8625 18.25C23.0758 17.7677 22.1727 17.5084 21.25 17.5C20.4407 17.4988 19.6432 17.6941 18.926 18.0691C18.2088 18.4441 17.5934 18.9876 17.1326 19.6529C16.6717 20.3182 16.3793 21.0854 16.2803 21.8887C16.1814 22.6919 16.2789 23.5072 16.5645 24.2644C16.8501 25.0216 17.3152 25.6982 17.9199 26.2361C18.5247 26.7739 19.2509 27.157 20.0363 27.3522C20.8217 27.5475 21.6428 27.5493 22.429 27.3573C23.2152 27.1653 23.943 26.7853 24.55 26.25C24.8003 26.0312 24.9534 25.7219 24.9757 25.3902C24.998 25.0585 24.8876 24.7316 24.6688 24.4813C24.4499 24.231 24.1407 24.0778 23.809 24.0556C23.4773 24.0333 23.1503 24.1437 22.9 24.3625C22.4461 24.769 21.8593 24.9957 21.25 25C20.8702 24.9939 20.4969 24.9013 20.1582 24.7293C19.8196 24.5573 19.5246 24.3104 19.2956 24.0074C19.0666 23.7043 18.9097 23.3531 18.8368 22.9804C18.7639 22.6076 18.7768 22.2232 18.8747 21.8562C18.9726 21.4892 19.1528 21.1493 19.4016 20.8624C19.6505 20.5754 19.9614 20.349 20.3109 20.2002C20.6603 20.0514 21.0391 19.9841 21.4184 20.0036C21.7977 20.0231 22.1676 20.1287 22.5 20.3125H22.225C21.8935 20.3125 21.5755 20.4442 21.3411 20.6786C21.1067 20.913 20.975 21.231 20.975 21.5625C20.975 21.894 21.1067 22.212 21.3411 22.4464C21.5755 22.6808 21.8935 22.8125 22.225 22.8125H25C25.3315 22.8125 25.6495 22.6808 25.8839 22.4464C26.1183 22.212 26.25 21.894 26.25 21.5625V18.75C26.25 18.4185 26.1183 18.1005 25.8839 17.8661C25.6495 17.6317 25.3315 17.5 25 17.5ZM10 12.5H11.25C11.5815 12.5 11.8995 12.3683 12.1339 12.1339C12.3683 11.8995 12.5 11.5815 12.5 11.25C12.5 10.9185 12.3683 10.6005 12.1339 10.3661C11.8995 10.1317 11.5815 10 11.25 10H10C9.66848 10 9.35054 10.1317 9.11612 10.3661C8.8817 10.6005 8.75 10.9185 8.75 11.25C8.75 11.5815 8.8817 11.8995 9.11612 12.1339C9.35054 12.3683 9.66848 12.5 10 12.5ZM10 20C9.66848 20 9.35054 20.1317 9.11612 20.3661C8.8817 20.6005 8.75 20.9185 8.75 21.25C8.75 21.5815 8.8817 21.8995 9.11612 22.1339C9.35054 22.3683 9.66848 22.5 10 22.5H12.5C12.8315 22.5 13.1495 22.3683 13.3839 22.1339C13.6183 21.8995 13.75 21.5815 13.75 21.25C13.75 20.9185 13.6183 20.6005 13.3839 20.3661C13.1495 20.1317 12.8315 20 12.5 20H10Z" fill="white"/>
</svg>
