<svg width="20" height="16" viewBox="0 0 20 16" fill="none" xmlns="http://www.w3.org/2000/svg">
<g filter="url(#filter0_b_300_1196)">
<path d="M6.68164 15.4329C7.30105 15.4329 7.86253 15.2105 8.22211 14.8228L8.30991 14.7208L12.1871 9.77739L18.6325 6.72532C19.2708 6.42298 19.6089 5.89948 19.5371 5.32496C19.4663 4.75778 18.9981 4.28256 18.3154 4.08473L18.1649 4.04683L2.58106 0.557747C2.40303 0.518099 2.22148 0.497995 2.04146 0.497995C1.46657 0.497995 0.925905 0.700312 0.558115 1.05305C0.192907 1.40333 0.0558338 1.85488 0.182037 2.29195L0.217871 2.39948L4.84125 14.3776C5.08549 15.0087 5.82508 15.4328 6.68164 15.4329ZM6.00346 4.42068C5.84283 4.42067 5.69 4.45918 5.5615 4.53207L5.47729 4.58721C5.21708 4.78674 5.18475 5.10823 5.40204 5.33506L5.47371 5.39986L10.7027 9.44861L7.03156 14.1267C6.95349 14.2265 6.82373 14.2837 6.67558 14.2837C6.51716 14.2837 6.37448 14.2167 6.30324 14.1087L6.27279 14.0502L1.6494 2.07207C1.60988 1.97019 1.63395 1.86352 1.71541 1.77941C1.79521 1.697 1.92021 1.6478 2.04978 1.6478C2.06403 1.6478 2.07835 1.64837 2.09284 1.64955L2.16541 1.66057L17.7484 5.14964C17.8962 5.18263 18.0056 5.27201 18.0409 5.38871C18.0766 5.5068 18.0287 5.62939 17.9159 5.70864L17.8505 5.74655L11.7544 8.63321L6.53347 4.58996C6.39208 4.4808 6.20386 4.42068 6.00346 4.42068Z" fill="white"/>
</g>
<defs>
<filter id="filter0_b_300_1196" x="-9.84524" y="-9.48342" width="39.3733" height="34.8978" filterUnits="userSpaceOnUse" color-interpolation-filters="sRGB">
<feFlood flood-opacity="0" result="BackgroundImageFix"/>
<feGaussianBlur in="BackgroundImageFix" stdDeviation="4.99073"/>
<feComposite in2="SourceAlpha" operator="in" result="effect1_backgroundBlur_300_1196"/>
<feBlend mode="normal" in="SourceGraphic" in2="effect1_backgroundBlur_300_1196" result="shape"/>
</filter>
</defs>
</svg>
