<svg width="30" height="30" viewBox="0 0 30 30" fill="none" xmlns="http://www.w3.org/2000/svg">
<path d="M24.2874 16.225C24.3374 15.825 24.3749 15.425 24.3749 15C24.3749 14.575 24.3374 14.175 24.2874 13.775L26.9249 11.7125C27.1624 11.525 27.2249 11.1875 27.0749 10.9125L24.5749 6.5875C24.4249 6.3125 24.0874 6.2125 23.8124 6.3125L20.6999 7.5625C20.0499 7.0625 19.3499 6.65 18.5874 6.3375L18.1124 3.025C18.0749 2.725 17.8124 2.5 17.4999 2.5H12.4999C12.1874 2.5 11.9249 2.725 11.8874 3.025L11.4124 6.3375C10.6499 6.65 9.94992 7.075 9.29992 7.5625L6.18742 6.3125C5.89992 6.2 5.57492 6.3125 5.42492 6.5875L2.92492 10.9125C2.76242 11.1875 2.83742 11.525 3.07492 11.7125L5.71242 13.775C5.66242 14.175 5.62492 14.5875 5.62492 15C5.62492 15.4125 5.66242 15.825 5.71242 16.225L3.07492 18.2875C2.83742 18.475 2.77492 18.8125 2.92492 19.0875L5.42492 23.4125C5.57492 23.6875 5.91242 23.7875 6.18742 23.6875L9.29992 22.4375C9.94992 22.9375 10.6499 23.35 11.4124 23.6625L11.8874 26.975C11.9249 27.275 12.1874 27.5 12.4999 27.5H17.4999C17.8124 27.5 18.0749 27.275 18.1124 26.975L18.5874 23.6625C19.3499 23.35 20.0499 22.925 20.6999 22.4375L23.8124 23.6875C24.0999 23.8 24.4249 23.6875 24.5749 23.4125L27.0749 19.0875C27.2249 18.8125 27.1624 18.475 26.9249 18.2875L24.2874 16.225ZM14.9999 19.375C12.5874 19.375 10.6249 17.4125 10.6249 15C10.6249 12.5875 12.5874 10.625 14.9999 10.625C17.4124 10.625 19.3749 12.5875 19.3749 15C19.3749 17.4125 17.4124 19.375 14.9999 19.375Z" fill="#263238"/>
</svg>
