<svg width="30" height="30" viewBox="0 0 30 30" fill="none" xmlns="http://www.w3.org/2000/svg">
<path d="M22.5 4.6875H7.5C6.75408 4.6875 6.03871 4.98382 5.51126 5.51126C4.98382 6.03871 4.6875 6.75408 4.6875 7.5V26.25C4.6875 26.9959 4.98382 27.7113 5.51126 28.2387C6.03871 28.7662 6.75408 29.0625 7.5 29.0625H22.5C23.2459 29.0625 23.9613 28.7662 24.4887 28.2387C25.0162 27.7113 25.3125 26.9959 25.3125 26.25V7.5C25.3125 6.75408 25.0162 6.03871 24.4887 5.51126C23.9613 4.98382 23.2459 4.6875 22.5 4.6875ZM9.375 9.375H13.125C13.3736 9.375 13.6121 9.47377 13.7879 9.64959C13.9637 9.8254 14.0625 10.0639 14.0625 10.3125C14.0625 10.5611 13.9637 10.7996 13.7879 10.9754C13.6121 11.1512 13.3736 11.25 13.125 11.25H9.375C9.12636 11.25 8.8879 11.1512 8.71209 10.9754C8.53627 10.7996 8.4375 10.5611 8.4375 10.3125C8.4375 10.0639 8.53627 9.8254 8.71209 9.64959C8.8879 9.47377 9.12636 9.375 9.375 9.375ZM20.625 24.375H9.375C9.12636 24.375 8.8879 24.2762 8.71209 24.1004C8.53627 23.9246 8.4375 23.6861 8.4375 23.4375C8.4375 23.1889 8.53627 22.9504 8.71209 22.7746C8.8879 22.5988 9.12636 22.5 9.375 22.5H20.625C20.8736 22.5 21.1121 22.5988 21.2879 22.7746C21.4637 22.9504 21.5625 23.1889 21.5625 23.4375C21.5625 23.6861 21.4637 23.9246 21.2879 24.1004C21.1121 24.2762 20.8736 24.375 20.625 24.375ZM8.4375 19.6875C8.4375 19.4389 8.53627 19.2004 8.71209 19.0246C8.8879 18.8488 9.12636 18.75 9.375 18.75H13.125C13.3736 18.75 13.6121 18.8488 13.7879 19.0246C13.9637 19.2004 14.0625 19.4389 14.0625 19.6875C14.0625 19.9361 13.9637 20.1746 13.7879 20.3504C13.6121 20.5262 13.3736 20.625 13.125 20.625H9.375C9.12636 20.625 8.8879 20.5262 8.71209 20.3504C8.53627 20.1746 8.4375 19.9361 8.4375 19.6875ZM20.625 15H9.375C9.12636 15 8.8879 14.9012 8.71209 14.7254C8.53627 14.5496 8.4375 14.3111 8.4375 14.0625C8.4375 13.8139 8.53627 13.5754 8.71209 13.3996C8.8879 13.2238 9.12636 13.125 9.375 13.125H20.625C20.8736 13.125 21.1121 13.2238 21.2879 13.3996C21.4637 13.5754 21.5625 13.8139 21.5625 14.0625C21.5625 14.3111 21.4637 14.5496 21.2879 14.7254C21.1121 14.9012 20.8736 15 20.625 15ZM16.35 0.9375H13.65C13.0697 0.939131 12.5042 1.1202 12.0309 1.45588C11.5576 1.79156 11.1997 2.26542 11.0062 2.8125H18.9938C18.8003 2.26542 18.4424 1.79156 17.9691 1.45588C17.4958 1.1202 16.9303 0.939131 16.35 0.9375Z" fill="#F79321"/>
</svg>
