<svg width="31" height="18" viewBox="0 0 31 18" fill="none" xmlns="http://www.w3.org/2000/svg">
<mask id="mask0_77_1998" style="mask-type:luminance" maskUnits="userSpaceOnUse" x="0" y="0" width="31" height="18">
<path d="M0.984375 0H30.9844V18H0.984375V0Z" fill="white"/>
</mask>
<g mask="url(#mask0_77_1998)">
<path fill-rule="evenodd" clip-rule="evenodd" d="M-0.890625 0H32.8627V18H-0.890625V0Z" fill="#199D00"/>
<path fill-rule="evenodd" clip-rule="evenodd" d="M7.61017 5.10098C7.57501 5.52286 7.52227 6.26114 7.97495 6.33848C8.51553 6.38067 8.21667 5.60723 8.41445 5.46661C8.44961 5.39629 8.51553 5.39629 8.51993 5.48419V6.14161C8.51993 6.35254 8.69573 6.41583 8.82757 6.45801C8.96821 6.45098 9.0649 6.45801 9.11764 6.56348L9.18796 7.69903C9.18796 7.69903 9.51319 7.77637 9.53077 7.0627C9.54395 6.64083 9.42529 6.29278 9.49561 6.21192C9.49561 6.13106 9.62746 6.12754 9.71536 6.16622C9.85599 6.24356 9.91752 6.342 10.1373 6.30684C10.4713 6.2295 10.6735 6.09942 10.6779 5.89551C10.6713 5.69513 10.6191 5.49738 10.524 5.31192C10.5416 5.27676 10.4625 5.18184 10.4801 5.14668C10.5372 5.22403 10.6295 5.217 10.6471 5.14668C10.59 4.99903 10.5021 4.85489 10.3614 4.79512C10.2428 4.71075 10.067 4.72481 10.0098 4.90059C9.97466 5.10098 10.0977 5.33653 10.2779 5.5334C10.3175 5.60723 10.3702 5.73379 10.3482 5.84629C10.2515 5.892 10.1549 5.8709 10.0713 5.80411C10.0713 5.80411 9.80765 5.6459 9.80765 5.60723C9.87797 5.24864 9.82084 5.20645 9.78128 5.1045C9.75491 4.96739 9.67141 4.92168 9.60548 4.83028C9.53956 4.77403 9.45166 4.77403 9.40771 4.83028C9.28904 4.992 9.34618 5.34004 9.42968 5.49825C9.49121 5.64239 9.58351 5.73379 9.53956 5.73379C9.5044 5.81465 9.42968 5.79356 9.37255 5.69864C9.30823 5.49887 9.2772 5.29319 9.28025 5.08692C9.25828 4.9252 9.23191 4.58067 9.09567 4.48926C9.01656 4.40489 8.89789 4.44708 8.85394 4.52442C8.84234 4.68148 8.84675 4.83903 8.86713 4.99551C8.95503 5.25567 8.98579 5.4877 9.02974 5.75137C9.04293 6.10645 8.77483 5.90606 8.78802 5.72676C8.84568 5.50136 8.84118 5.2686 8.77483 5.04473C8.73088 4.95333 8.68254 4.93223 8.57267 4.94629C8.48916 4.94629 8.27381 5.13262 8.21228 5.44903C8.21228 5.44903 8.15954 5.61075 8.13757 5.75489C8.1068 5.91661 7.97495 6.03614 7.87826 5.73379C7.79915 5.51231 7.74641 4.97442 7.61456 5.10098H7.61017Z" fill="white"/>
<path fill-rule="evenodd" clip-rule="evenodd" d="M9.08803 6.82737L7.68164 7.36877C7.69483 7.11213 8.34528 6.65159 8.79357 6.64807C9.07924 6.65159 9.00892 6.73596 9.08363 6.82737H9.08803Z" fill="white"/>
<path fill-rule="evenodd" clip-rule="evenodd" d="M8.83715 7.17914C8.09879 8.70844 10.5732 8.92289 10.85 7.24242C10.8764 7.17211 10.9819 7.10531 10.9995 7.21781C10.9423 8.74008 9.08326 8.84203 8.76683 8.3639C8.69239 8.19939 8.65518 8.02558 8.65695 7.85062C8.613 7.5518 8.41523 7.66781 8.38447 7.96312C8.3537 8.12836 8.36249 8.17406 8.36249 8.33226C8.45918 9.53461 10.8544 9.01781 11.2456 8.0264C11.4521 7.47797 11.2104 7.07367 11.3203 7.07367C11.5576 7.27758 11.8916 7.1018 11.9664 7.03148C11.9971 6.99633 12.0762 6.97172 12.129 7.01742C12.3136 7.12289 12.6388 7.07367 12.7091 6.88734C12.7487 6.70101 12.7794 6.51117 12.7882 6.31781C12.6344 6.35297 12.5245 6.37758 12.5113 6.43031L12.4806 6.59203C12.4674 6.64476 12.3399 6.64476 12.3311 6.57797C12.274 6.36703 12.0367 6.34242 11.8916 6.66586C11.7993 6.72914 11.6236 6.7432 11.606 6.64828C11.6279 6.43031 11.5181 6.40219 11.2983 6.50414L11.0874 5.23148C11.1753 5.23148 11.2632 5.28422 11.3467 5.19984C11.2588 4.97133 11.061 4.50726 10.9511 4.47211C10.9028 4.42289 10.8588 4.45453 10.7885 4.46859C10.6742 4.49672 10.5688 4.57406 10.6039 4.72875C10.7358 5.38969 10.8237 5.89242 10.9599 6.55687C10.9819 6.6307 10.9028 6.73265 10.7973 6.72211C10.6215 6.62719 10.5776 6.43383 10.2699 6.44086C10.0502 6.44086 9.80404 6.63422 9.77327 6.81703C9.73372 6.96469 9.72053 7.12289 9.77327 7.24945C9.9271 7.39711 10.1117 7.38305 10.2743 7.3514C10.4061 7.3057 10.516 7.20023 10.5644 7.22484C10.5951 7.25648 10.5688 7.60805 9.93589 7.87523C9.55352 8.01586 9.24588 8.04398 9.08326 7.79437C8.98218 7.63617 9.09205 7.04203 8.83715 7.17914Z" fill="white"/>
<path fill-rule="evenodd" clip-rule="evenodd" d="M11.987 5.62549C12.132 5.58331 12.8352 4.93643 12.8352 4.93643L12.7297 4.86612C12.6902 4.84151 12.6946 4.81338 12.7297 4.78877C12.9055 4.7044 12.8484 4.52862 12.7605 4.44424C12.7008 4.42097 12.6352 4.40917 12.5688 4.40978C12.5024 4.41039 12.4371 4.4234 12.3781 4.44776C12.2551 4.54268 12.2287 4.69385 12.3254 4.78526C12.4177 4.82042 12.51 4.89776 12.4485 4.93995C12.1584 5.18604 11.3717 5.61143 11.464 5.62549C11.4816 5.64659 11.9694 5.64659 11.9826 5.62549H11.987ZM7.72387 7.91065C7.46018 8.24815 7.4382 8.75088 7.58324 8.90205C7.66235 8.97237 7.7898 9.00401 7.88209 8.9794C8.0491 8.92315 8.12382 8.65245 8.08426 8.55752C8.02713 8.48721 7.98318 8.47666 7.92604 8.53291C7.81177 8.72276 7.76343 8.59268 7.75024 8.48721C7.73765 8.30859 7.74944 8.12941 7.7854 7.95284C7.81617 7.80518 7.7854 7.84737 7.72387 7.91065ZM19.0233 7.37276C18.7684 6.92979 18.4124 6.49385 18.3025 6.32862C17.96 5.89551 17.5965 5.47331 17.2126 5.06299C16.9401 4.80284 17.6609 5.17198 17.1247 4.65167L16.7335 4.38799C16.6456 4.33877 16.4347 4.24737 16.3995 4.39502C16.3819 4.52862 16.3907 4.59893 16.4171 4.70791C16.4391 4.77823 16.5709 4.90127 16.6369 4.97159C17.5379 5.92624 18.3293 6.94405 19.0013 8.0126C19.1156 7.9669 19.0892 7.44659 19.0233 7.37276Z" fill="white"/>
<path fill-rule="evenodd" clip-rule="evenodd" d="M17.9039 8.84167C17.8512 8.88737 18.027 9.08073 18.2555 9.08073C18.6335 9.04557 18.9675 8.87682 19.2752 8.42682C19.4002 8.27713 19.4799 8.10621 19.5081 7.9276C19.5453 7.07416 19.4598 6.22011 19.2532 5.38229C19.24 5.31198 19.2532 5.2276 19.262 5.20651C19.2884 5.1819 19.3719 5.20651 19.4158 5.14674C19.4817 5.09401 19.24 4.65456 19.1082 4.48932C19.0642 4.41198 19.0422 4.36276 18.9631 4.49635C18.8677 4.64376 18.8222 4.80862 18.8313 4.97448C19.0115 5.97643 19.0686 6.85182 19.1829 7.85378C19.1961 7.95221 19.1785 8.09284 19.095 8.14909C18.7634 8.44445 18.3575 8.68046 17.9039 8.84167ZM23.0241 8.83815C22.7516 8.96471 22.7516 9.10885 22.9713 9.11237C23.3493 9.07721 23.7976 9.0526 24.1052 8.67995C24.2139 8.50443 24.2767 8.31303 24.2898 8.11745C24.3452 7.27714 24.2758 6.43455 24.0833 5.60729C24.0745 5.53698 24.0349 5.37174 24.0481 5.35065C24.0745 5.30143 24.1975 5.35417 24.2415 5.29792C24.303 5.24518 23.9206 4.85143 23.7844 4.68268C23.7405 4.60534 23.7229 4.55612 23.6394 4.68971C23.5509 4.83848 23.5232 5.00577 23.5603 5.16784C23.7624 6.25768 23.9119 7.07331 23.9426 8.03659C23.925 8.12799 23.9206 8.17721 23.8679 8.29323C23.7492 8.41276 23.6174 8.56745 23.4943 8.64128C23.3713 8.71159 23.1076 8.7819 23.0241 8.83815Z" fill="white"/>
<path fill-rule="evenodd" clip-rule="evenodd" d="M23.2232 7.86487C23.2232 7.60823 23.2276 7.39026 23.2188 7.1969C23.2159 7.03315 23.1711 6.8716 23.0869 6.7223C23.0078 6.57815 23.0562 6.46214 23.0166 6.30745C22.9814 6.15276 22.9902 5.92073 22.9375 5.74144C22.9199 5.67112 22.876 5.44261 22.8891 5.418C22.9111 5.36878 22.9946 5.418 23.0386 5.36175C23.1001 5.30901 22.8188 4.72894 22.6782 4.5637C22.6298 4.48987 22.5332 4.51448 22.4233 4.63401C22.3134 4.71487 22.353 4.89417 22.3969 5.06644C22.665 6.20198 22.8716 7.23206 22.8276 8.31136C22.81 8.40276 23.2232 8.03714 23.2232 7.86487ZM21.2147 6.45862C21.0433 6.45159 20.6873 6.18792 20.5818 6.03675C20.5645 5.9998 20.5572 5.96036 20.5602 5.921C20.5632 5.88163 20.5766 5.84321 20.5994 5.80823C20.6653 5.77308 20.762 5.73792 20.8367 5.77308C20.8367 5.77308 20.9114 5.85745 20.8982 5.868C20.9861 5.90315 21.0301 5.88558 21.0389 5.85394C21.0433 5.8012 21.0125 5.76956 21.0125 5.71331C21.0521 5.55159 21.2762 5.52698 21.3641 5.62894C21.4256 5.69222 21.452 5.8223 21.4564 5.91019C21.4564 5.95589 21.3685 5.90316 21.3114 5.91019C21.263 5.92425 21.2498 5.97347 21.2454 6.01566C21.2366 6.13167 21.2191 6.318 21.2147 6.45511V6.45862ZM18.0591 8.14612C18.103 7.80159 18.0415 7.18636 18.0371 6.98245C18.0136 6.45805 17.9593 5.93482 17.8745 5.41448C17.8218 5.11917 18.0239 5.44612 17.9976 5.27386C17.9316 4.98206 17.7295 4.78167 17.4877 4.518C17.413 4.43011 17.413 4.41253 17.2944 4.53909C17.1625 4.77464 17.2768 4.93987 17.3119 5.1262C17.4833 5.73089 17.5844 6.28636 17.6328 6.83831C17.6834 7.41168 17.6892 7.98701 17.6504 8.56097C17.7822 8.56448 17.9844 8.39573 18.0591 8.14612Z" fill="white"/>
<path fill-rule="evenodd" clip-rule="evenodd" d="M23.8129 7.59325C23.5096 7.18544 23.057 6.7495 22.9339 6.58426C22.5264 6.12902 22.0983 5.68576 21.6506 5.25536C21.277 4.93895 21.8264 5.20262 21.5802 4.95653C21.3737 4.77723 21.3165 4.71747 21.1364 4.60848C21.0485 4.56278 20.9957 4.47489 20.9606 4.62606C20.9465 4.757 20.9436 4.88855 20.9518 5.01981C20.9518 5.07958 21.0309 5.19559 21.1012 5.26591C22.011 6.16239 23.0086 7.07645 23.8085 8.22606C23.9228 8.18036 23.8832 7.66356 23.8085 7.59325H23.8129Z" fill="white"/>
<path fill-rule="evenodd" clip-rule="evenodd" d="M10.1229 6.84508C10.1009 6.87672 10.0526 6.91539 10.0702 6.95406C10.1009 6.98922 10.1317 6.99976 10.1844 6.99976C10.2328 6.99976 10.3031 7.01031 10.3163 6.98922C10.3427 6.96461 10.3602 6.9189 10.3427 6.8732C10.2899 6.76773 10.1493 6.80992 10.1229 6.84508Z" fill="#1BA400"/>
<path fill-rule="evenodd" clip-rule="evenodd" d="M20.2979 12.7445C20.7022 12.7586 20.9659 12.7621 21.3219 12.7937L21.7438 12.7586C22.2097 12.7234 22.2273 13.2894 22.2273 13.2894C22.2273 13.6234 22.0647 13.641 21.8581 13.6762C21.7394 13.6902 21.6823 13.6199 21.6164 13.5496C21.517 13.5751 21.4111 13.5799 21.3087 13.5637C21.1373 13.5566 20.9703 13.5566 20.8033 13.5461C20.6275 13.5355 20.5308 13.5637 20.3506 13.5496C20.3155 13.5953 20.2627 13.6586 20.1573 13.641C20.0694 13.6304 19.9595 13.4301 19.9903 13.2719C20.0562 13.1594 20.0342 13.198 20.0342 13.1488C18.3817 13.1137 16.716 13.0539 15.0987 13.0715C13.8329 13.075 12.5847 13.1172 11.3322 13.1594C10.6641 13.1523 10.1543 13.0679 9.80273 12.6566C9.83789 12.6566 11.508 12.7304 11.9958 12.7058C12.8968 12.6988 13.723 12.639 14.6416 12.6179C16.4523 12.6426 18.2498 12.6426 20.0606 12.7445C19.8848 12.6496 19.8848 12.4281 20.1485 12.3719C20.1704 12.3578 20.1836 12.4808 20.2232 12.4773C20.4385 12.4668 20.3418 12.6988 20.2979 12.7445ZM13.0198 4.75701C12.7474 5.38279 13.1781 6.07185 13.4769 6.00506C13.6967 6.07537 13.8285 5.7449 13.9164 5.38631C13.9823 5.28435 14.0263 5.27381 14.0571 5.32654C14.0483 5.80467 14.101 5.91365 14.2548 6.05779C14.5976 6.26873 14.8833 6.08592 14.9053 6.06834L15.169 5.85388C15.2305 5.80115 15.3096 5.80115 15.3931 5.84334C15.4766 5.9031 15.4634 6.00506 15.6392 6.07537C15.7887 6.12459 16.1007 6.08943 16.1754 5.98748C16.2721 5.85037 16.2985 5.80467 16.3424 5.75545C16.4128 5.68162 16.5314 5.71326 16.5314 5.73787C16.5182 5.78006 16.4479 5.81873 16.4963 5.89607C16.5842 5.94529 16.6017 5.91365 16.6501 5.9031C16.8259 5.83279 16.9577 5.53045 16.9577 5.53045C16.9621 5.41795 16.883 5.42498 16.8303 5.4531L16.694 5.52693C16.6061 5.53748 16.4435 5.58318 16.36 5.48123C16.2765 5.3617 16.2765 5.18943 16.215 5.06638C16.215 5.05935 16.1007 4.87302 16.2062 4.86248C16.2589 4.86951 16.3688 4.89412 16.3864 4.82029C16.4391 4.74646 16.2721 4.53904 16.1535 4.43357C16.0524 4.34568 15.9117 4.33513 15.7755 4.42654C15.6788 4.49685 15.692 4.5742 15.6744 4.64802C15.6577 4.70093 15.657 4.75625 15.6723 4.80943C15.6876 4.8626 15.7184 4.91211 15.7623 4.95388C15.859 5.10154 16.0304 5.2949 15.9733 5.56912C15.9733 5.56912 15.8722 5.69568 15.6964 5.6781C15.6217 5.66756 15.503 5.64295 15.4415 5.26326C15.3931 4.98201 15.4503 4.58123 15.3008 4.3949C15.2437 4.27888 15.2041 4.1699 15.0723 4.36326C15.0371 4.4406 14.8833 4.55662 14.9932 4.79217C15.0972 5.00443 15.1275 5.23521 15.0811 5.46013C15.0152 5.53748 15.002 5.56209 14.9185 5.63592C14.8042 5.74138 14.6767 5.71326 14.5801 5.67459C14.4922 5.62888 14.4218 5.60427 14.3779 5.44607C14.3867 5.19998 14.4043 4.79568 14.3471 4.71131C14.2636 4.57771 14.1274 4.62693 14.0702 4.66912C13.8088 4.90145 13.6337 5.1876 13.5648 5.49529C13.4857 5.6992 13.4022 5.63943 13.3451 5.55857C13.2044 5.4531 13.1912 4.6199 13.0198 4.75701Z" fill="white"/>
<path fill-rule="evenodd" clip-rule="evenodd" d="M13.8469 6.12059C13.9744 6.05028 13.9172 6.00106 14.1018 6.14872C14.3401 6.48593 14.4784 6.86239 14.5062 7.24911C14.4974 7.34051 14.5765 7.39676 14.616 7.37567C14.6336 7.16473 15.2797 6.86942 15.873 6.82723C15.9609 6.80965 15.9169 6.67254 15.9301 6.60223C15.895 6.33856 16.1147 6.0995 16.4224 6.08192C16.8443 6.13114 16.9849 6.31043 16.9937 6.58114C16.9454 7.10848 16.2597 7.19637 15.8774 7.23856C15.8202 7.25614 15.7939 7.27723 15.8774 7.30184L17.4859 7.30887L17.5694 7.34403C17.5782 7.37918 17.5431 7.35106 17.4815 7.43544C17.3931 7.55978 17.3377 7.69744 17.3189 7.83973C16.8399 7.96629 16.3432 8.01551 15.8422 8.06825C15.6664 8.13856 15.5785 8.23348 15.6137 8.33895C15.6752 8.45497 16.062 8.5745 16.062 8.57801C16.1367 8.61317 16.2202 8.70106 16.04 8.88036C15.2577 8.85223 14.6468 8.58504 14.4358 8.20887C14.3743 8.1702 14.304 8.20887 14.26 8.25809C13.9524 8.5745 13.6535 8.85575 13.1305 9.01043C12.8229 9.07372 12.5021 8.97176 12.3526 8.81004C12.2515 8.71512 12.2559 8.61317 12.2208 8.59208C12.0494 8.65184 10.599 9.14403 10.7836 8.912C11.1352 8.61317 11.7505 8.38817 12.2867 8.09286C12.3263 7.9909 12.3966 7.6534 12.6075 7.54442C12.6207 7.54442 12.5768 7.74129 12.5812 7.82567C12.5812 7.89598 12.5724 7.92059 12.59 7.90301C12.6295 7.88544 13.28 7.47411 13.3371 7.34754C13.3986 7.27723 13.3503 7.09442 13.3503 7.08739C13.2272 6.83426 13.0558 6.81317 12.9943 6.68661C12.9372 6.52137 12.9635 6.33153 13.0822 6.27528C13.1877 6.20145 13.3107 6.20848 13.4294 6.29286C13.5612 6.38778 13.6755 6.57411 13.7107 6.71122C13.6887 6.76395 13.5349 6.67606 13.4909 6.70067C13.5755 6.77843 13.6318 6.87329 13.6535 6.97489C13.7414 7.26317 13.7151 7.37567 13.6272 7.562C13.3371 8.05067 12.9679 8.19481 12.6427 8.37762C12.6339 8.37762 12.6295 8.50067 12.7482 8.56747C12.7921 8.60262 12.9635 8.6202 13.1613 8.56747C13.5838 8.37977 13.9255 8.09421 14.1414 7.74833C14.1787 7.48513 14.1427 7.21859 14.0359 6.96786C13.9084 6.73231 13.759 6.39833 13.759 6.39129C13.7546 6.24364 13.7678 6.19442 13.8469 6.12059ZM9.63654 4.76356C9.82113 4.83387 10.1727 4.80223 10.1551 4.56317L10.1464 4.45418C10.1112 4.38387 10.0057 4.40145 9.98374 4.47176C9.97495 4.49637 9.99692 4.53504 9.97056 4.54559C9.95298 4.55965 9.89584 4.55262 9.89584 4.48583C9.89584 4.46473 9.87826 4.44364 9.86508 4.42958C9.85629 4.42254 9.8475 4.42254 9.82552 4.42254C9.79915 4.42254 9.79915 4.42606 9.78597 4.44364C9.78157 4.46122 9.77278 4.47879 9.77278 4.49989C9.77278 4.5245 9.7552 4.53153 9.73762 4.53504C9.71125 4.53504 9.71565 4.53504 9.69367 4.52801C9.68488 4.51747 9.6717 4.51395 9.6717 4.49286L9.65851 4.43661C9.64972 4.42606 9.63214 4.41903 9.61456 4.41551C9.51348 4.41551 9.50469 4.51043 9.51348 4.54559C9.50469 4.55262 9.50029 4.71786 9.63654 4.76356Z" fill="white"/>
<path fill-rule="evenodd" clip-rule="evenodd" d="M15.0645 6.5988C15.2491 6.66911 15.693 6.63044 15.5831 6.40192L15.5743 6.28942C15.5348 6.21911 15.4337 6.23669 15.4117 6.31052C15.4029 6.33161 15.4249 6.37028 15.3942 6.38083C15.381 6.39489 15.3194 6.38786 15.3238 6.32458C15.3238 6.30349 15.3063 6.27888 15.2931 6.26481C15.2799 6.2613 15.2755 6.25778 15.2491 6.25778C15.2271 6.25778 15.2271 6.26481 15.214 6.28239C15.2052 6.29997 15.2008 6.31755 15.2008 6.33864C15.1964 6.35974 15.1832 6.36677 15.1612 6.3738C15.1392 6.3738 15.1436 6.3738 15.1261 6.36325C15.1129 6.3527 15.0997 6.34919 15.0997 6.33161L15.0865 6.27536C15.0777 6.26481 15.0601 6.25778 15.0426 6.25427C14.9415 6.25427 14.9327 6.34567 14.9371 6.38083C14.9327 6.38786 14.9283 6.55661 15.0689 6.5988H15.0645ZM18.2289 5.83942C18.4135 5.90974 18.7607 5.87809 18.7475 5.64255L18.7387 5.53005C18.6992 5.45974 18.5981 5.47731 18.5761 5.54763C18.5673 5.57224 18.5893 5.61091 18.5585 5.62497C18.5453 5.63552 18.4838 5.62849 18.4882 5.56169C18.4882 5.54059 18.4706 5.5195 18.4574 5.50544C18.4443 5.49841 18.4399 5.49841 18.4135 5.49841C18.3915 5.49841 18.3915 5.50544 18.3783 5.52302L18.3651 5.57575C18.3608 5.60036 18.3476 5.61091 18.3256 5.61091C18.3036 5.61091 18.308 5.61091 18.2904 5.60388C18.2772 5.59333 18.2641 5.58981 18.2641 5.57224C18.2641 5.55466 18.2597 5.52653 18.2509 5.51247C18.2421 5.50192 18.2245 5.49841 18.2069 5.49489C18.1058 5.49489 18.0971 5.5863 18.1014 5.62145C18.0971 5.62849 18.0927 5.79372 18.2333 5.83942H18.2289ZM19.8682 7.74841C19.5474 8.0402 19.688 8.52184 19.7627 8.62731C19.8682 8.79606 19.9517 8.90505 20.1583 8.98942C20.3473 9.09841 20.4967 9.03161 20.5758 8.95427C20.7648 8.79606 20.7692 8.39177 20.8571 8.31442C20.9186 8.16677 21.0768 8.19138 21.1516 8.25817C21.2215 8.33754 21.3151 8.40161 21.424 8.4445C21.5998 8.56755 21.8108 8.59216 22.0218 8.47966C22.1624 8.41286 22.2547 8.332 22.3382 8.16677C22.4261 7.96989 22.3821 7.05583 22.3602 6.51442L22.1756 5.75856C22.1756 5.75153 22.1536 5.39997 22.1316 5.31911C22.1316 5.28395 22.1184 5.27341 22.1624 5.27692C22.2107 5.31208 22.2151 5.31208 22.2503 5.32263C22.2942 5.32966 22.3382 5.26286 22.3074 5.20661L21.8679 4.5527C21.8328 4.52458 21.7844 4.49645 21.7273 4.55974C21.6936 4.58415 21.6667 4.61401 21.6486 4.64734C21.6304 4.68068 21.6213 4.71673 21.6218 4.75309C21.635 4.90778 21.6658 5.06599 21.6789 5.22067L21.8547 6.0152C21.9119 6.5777 21.9251 7.04177 21.9822 7.60778C21.9734 7.84684 21.8811 8.05427 21.7932 8.08591C21.7932 8.08591 21.6614 8.14567 21.5735 8.07888C21.5075 8.05778 21.2482 7.73083 21.2482 7.73083C21.1164 7.63591 21.0285 7.66052 20.9362 7.73083C20.6725 7.93474 20.5582 8.30739 20.378 8.56755C20.3341 8.62731 20.2022 8.67302 20.0616 8.56403C19.7012 8.16677 19.9122 7.60427 19.8682 7.74841ZM18.3124 4.45427C18.4794 4.507 18.5937 4.7777 18.5585 4.9113C18.5234 5.0695 18.4355 5.24528 18.3739 5.22419C18.3036 5.2031 18.4179 5.06247 18.352 4.91481C18.3168 4.81638 18.0883 4.6406 18.1146 4.59138C18.0707 4.48239 18.2113 4.43317 18.3124 4.45075V4.45427Z" fill="white"/>
<path fill-rule="evenodd" clip-rule="evenodd" d="M20.4035 7.9097C20.4342 7.58627 20.3771 7.38939 20.3683 7.19955C20.3595 7.0097 20.1002 5.56126 20.0475 5.42064C19.9816 5.14642 20.298 5.38548 20.2628 5.22377C20.153 5.02689 19.8849 4.73509 19.8014 4.56283C19.7486 4.49251 19.7706 4.4222 19.6563 4.54525C19.5579 4.76099 19.5233 4.99202 19.5553 5.22025C19.8277 6.3558 20.1046 7.29798 20.0607 8.37728C20.1925 8.37728 20.3376 8.14173 20.4035 7.9097ZM23.2338 4.91087C23.3877 4.97064 23.4756 5.30814 23.458 5.40306C23.4272 5.57884 23.3481 5.76869 23.291 5.74408C23.225 5.72298 23.3042 5.48392 23.2734 5.41009C23.2382 5.30462 23.0317 5.11478 23.0536 5.05853C23.0097 4.939 23.1415 4.88978 23.2338 4.91087ZM11.9959 7.29798C12.141 7.34369 12.2289 7.58978 12.2157 7.66009C12.1805 7.79017 12.1058 7.9308 12.0487 7.9097C11.9915 7.89564 12.0618 7.71986 12.0355 7.66361C12.0223 7.53353 11.8201 7.46322 11.8245 7.40697C11.7894 7.3015 11.9124 7.28392 12.0003 7.29798H11.9959Z" fill="white"/>
<path fill-rule="evenodd" clip-rule="evenodd" d="M15.4983 7.67107C15.6829 7.6781 15.7752 7.79763 15.6038 7.84685C15.428 7.89255 15.2654 7.93123 15.261 8.1281C15.3269 8.40935 15.1731 8.31091 15.0852 8.27576C14.9797 8.21248 14.6809 8.06482 14.6369 7.74841C14.6325 7.67458 14.7072 7.60779 14.8259 7.60779C15.0017 7.64646 15.2654 7.64998 15.4983 7.67107Z" fill="#1B9D00"/>
<path fill-rule="evenodd" clip-rule="evenodd" d="M8.13586 4.37351C8.34682 4.42273 8.36 4.67586 8.34682 4.74968C8.31605 4.88328 8.24134 5.02742 8.1886 5.00984C8.12707 4.99226 8.1886 4.80945 8.15783 4.7532C8.12707 4.67586 7.94687 4.5282 7.96445 4.48601C7.9249 4.39812 8.05235 4.35593 8.13586 4.37351ZM12.3506 5.55476C12.1836 5.62507 12.1221 5.83601 12.2232 5.96257C12.3199 6.06804 12.4693 6.02937 12.4869 6.02937C12.6495 6.04343 12.7462 5.78679 12.7462 5.78679C12.7462 5.78679 12.7506 5.71648 12.5616 5.85359C12.4781 5.86414 12.4737 5.83953 12.4517 5.80437C12.4316 5.73744 12.4393 5.66709 12.4737 5.60398C12.5044 5.5407 12.4429 5.51257 12.3506 5.55476ZM13.5812 4.27507C13.4933 4.32078 13.3307 4.45789 13.3263 4.61257C13.3219 4.70046 13.2999 4.70046 13.3703 4.7532C13.4274 4.81648 13.4757 4.81297 13.5812 4.76726C13.6075 4.75403 13.6301 4.73657 13.6475 4.71599C13.6649 4.69541 13.6767 4.67217 13.6823 4.64773C13.7087 4.54929 13.5504 4.69695 13.5329 4.58445C13.4977 4.47898 13.5988 4.43679 13.6955 4.33836C13.6955 4.26804 13.6955 4.22234 13.5768 4.27507H13.5812ZM14.5657 4.4157C14.5269 4.54372 14.5034 4.67437 14.4954 4.80593C14.469 4.90437 14.6272 4.94656 14.6931 4.82C14.7986 4.59148 14.7986 4.49304 14.8074 4.39812C14.7766 4.24695 14.6492 4.25047 14.5657 4.4157ZM20.8065 6.9575C20.8241 6.93992 21.6855 6.45125 21.6855 6.45125C21.7734 6.42664 21.7514 6.70437 21.7119 6.70086C21.4447 6.90681 21.1375 7.0766 20.8021 7.20359C20.7582 7.2282 20.7186 7.01726 20.8021 6.9575H20.8065ZM21.5844 6.95046C21.7383 7.01023 21.7998 7.36531 21.7822 7.46023C21.7822 7.65007 21.6372 7.79773 21.5756 7.77664C21.5141 7.75203 21.5844 7.54109 21.5537 7.46726C21.5185 7.36179 21.3911 7.16843 21.413 7.11218C21.3691 6.99265 21.4921 6.92937 21.5888 6.95046H21.5844ZM16.4863 8.47625C16.5576 8.40968 16.6405 8.35167 16.7324 8.30398C16.8203 8.26882 16.8994 8.33211 16.895 8.32859C16.9082 8.3989 16.8423 8.45867 16.8642 8.55007C16.8818 8.58523 16.895 8.62742 16.9785 8.61336C17.1148 8.52547 17.2422 8.51843 17.3741 8.51492C17.4839 8.51843 17.4883 8.66257 17.418 8.66257C17.1675 8.70476 17.0576 8.76101 16.8774 8.81375C16.7895 8.85593 16.7192 8.8032 16.7192 8.79968C16.7192 8.79617 16.6709 8.76101 16.7016 8.66961C16.7104 8.59929 16.6753 8.55711 16.5962 8.56414C16.5434 8.59226 16.4907 8.60632 16.4643 8.55359C16.4511 8.51843 16.4467 8.49734 16.4863 8.47625ZM22.4898 8.66609C22.525 8.70125 22.5513 8.7364 22.4854 8.79968L22.3228 8.91218C22.2964 8.94734 22.2788 9.01062 22.3667 9.0282C22.525 9.06336 22.8941 8.87 22.8941 8.86648C22.9557 8.83132 22.9381 8.76101 22.9293 8.76101C22.8941 8.72937 22.815 8.75046 22.7623 8.74343C22.7359 8.74343 22.6524 8.7364 22.692 8.67312C22.7215 8.64206 22.7452 8.60771 22.7623 8.57117C22.7843 8.52898 22.7623 8.50086 22.6744 8.47625C22.5821 8.46218 22.5425 8.46922 22.4415 8.47625C22.3887 8.48328 22.3711 8.50437 22.3579 8.55711C22.3623 8.63796 22.4239 8.63445 22.4898 8.66257V8.66609Z" fill="white"/>
<path fill-rule="evenodd" clip-rule="evenodd" d="M16.5198 6.66924C16.4978 6.7044 16.4187 6.7044 16.344 6.66924C16.2693 6.63409 16.2253 6.57784 16.2517 6.54619C16.2781 6.51455 16.3528 6.51455 16.4275 6.54619C16.5022 6.57784 16.5418 6.6376 16.5198 6.66924ZM12.6083 4.78487C12.5643 4.79541 12.5028 4.76377 12.4764 4.71455C12.4501 4.66534 12.4632 4.62315 12.5072 4.6126C12.5511 4.60205 12.6083 4.63721 12.639 4.68291C12.6698 4.72862 12.6522 4.77784 12.6039 4.78838L12.6083 4.78487Z" fill="#259F00"/>
<path fill-rule="evenodd" clip-rule="evenodd" d="M20.3432 13.1836C20.7564 13.1977 21.1431 13.1836 21.5518 13.2012C21.6266 13.2539 21.5738 13.377 21.5255 13.3699L21.1827 13.3594C21.1783 13.2539 20.8443 13.2715 20.853 13.3629C20.6728 13.3805 20.5102 13.3594 20.3256 13.3523C20.2729 13.2996 20.2817 13.2047 20.3432 13.1836Z" fill="#209000"/>
</g>
</svg>
