<svg width="30" height="30" viewBox="0 0 30 30" fill="none" xmlns="http://www.w3.org/2000/svg">
<path d="M16.3531 25.5804C16.2116 25.8255 15.9931 26.017 15.7317 26.1253C15.4702 26.2336 15.1803 26.2526 14.907 26.1793C14.6336 26.1061 14.3921 25.9447 14.2198 25.7201C14.0476 25.4956 13.9542 25.2205 13.9543 24.9375C13.9542 24.6545 14.0476 24.3794 14.2198 24.1548C14.3921 23.9303 14.6336 23.7689 14.907 23.6956C15.1803 23.6223 15.4702 23.6413 15.7317 23.7496C15.9931 23.8579 16.2116 24.0495 16.3531 24.2946H22.3111C22.7123 24.2948 23.1118 24.2422 23.4994 24.1383C24.3086 22.7981 24.7777 21.2803 24.8659 19.7172C25.1981 19.634 25.5102 19.4851 25.7839 19.2792C25.6163 19.0573 25.5257 18.7868 25.5259 18.5088V16.0659L24.8827 16.5801V14.6514L19.0972 8.35138L5.59716 14.6514V16.5801L4.31136 15.5514V15.5229C3.89641 15.9919 3.6677 16.5967 3.66846 17.223C3.66855 17.796 3.85997 18.3526 4.21236 18.8044C4.56475 19.2563 5.05793 19.5775 5.61366 19.7172C5.90556 24.7881 10.0942 28.7943 15.2398 28.7943C16.5982 28.797 17.9418 28.5117 19.182 27.9574C20.4222 27.4031 21.5309 26.5922 22.435 25.5783C22.3936 25.5792 22.3525 25.5798 22.3111 25.5798H16.3531V25.5804ZM19.7398 15.9375C19.9086 15.9375 20.0758 15.9707 20.2318 16.0353C20.3878 16.0999 20.5295 16.1946 20.6489 16.3139C20.7683 16.4333 20.863 16.575 20.9276 16.731C20.9923 16.887 21.0255 17.0541 21.0256 17.223C21.0256 17.3918 20.9923 17.559 20.9278 17.715C20.8632 17.871 20.7685 18.0127 20.6491 18.1321C20.5297 18.2515 20.388 18.3462 20.232 18.4109C20.0761 18.4755 19.9089 18.5088 19.7401 18.5088C19.3991 18.5088 19.0721 18.3734 18.8309 18.1323C18.5898 17.8912 18.4543 17.5643 18.4543 17.2233C18.4542 16.8823 18.5896 16.5553 18.8307 16.3141C19.0718 16.073 19.3988 15.9375 19.7398 15.9375ZM10.7398 18.5091C10.3987 18.5091 10.0717 18.3736 9.83056 18.1325C9.58943 17.8913 9.45396 17.5643 9.45396 17.2233C9.45396 16.8823 9.58943 16.5552 9.83056 16.3141C10.0717 16.0729 10.3987 15.9375 10.7398 15.9375C11.0808 15.9375 11.4078 16.0729 11.649 16.3141C11.8901 16.5552 12.0256 16.8823 12.0256 17.2233C12.0256 17.5643 11.8901 17.8913 11.649 18.1325C11.4078 18.3736 11.0808 18.5091 10.7398 18.5091ZM26.8111 19.7946C26.8111 21.8892 25.4194 23.6241 23.4994 24.1383C23.3014 24.4347 22.7887 25.1793 22.435 25.5783C23.9497 25.5524 25.3932 24.9312 26.453 23.8486C27.5127 22.766 28.1033 21.3095 28.0969 19.7946V19.6206C27.9017 19.7346 27.6797 19.7947 27.4537 19.7946H26.8111Z" fill="#F79321"/>
<path d="M16.5255 3.08042C21.4755 3.08042 25.5255 7.13042 25.5255 12.0804V15.9375C25.5265 15.5968 25.6622 15.2704 25.9031 15.0295C26.1439 14.7886 26.4704 14.6527 26.811 14.6517V12.0804C26.811 6.42332 22.1823 1.79462 16.5255 1.79462H12.0255C11.6397 1.79462 11.3823 2.05172 11.3823 2.43752C11.3823 2.70872 11.5098 2.91602 11.7195 3.01532C11.808 3.05732 11.9109 3.08042 12.0255 3.08042H16.5255Z" fill="#F79321"/>
<path d="M27.4538 14.6517H26.8109C26.4702 14.6527 26.1438 14.7885 25.9029 15.0294C25.6621 15.2703 25.5263 15.5968 25.5254 15.9375V18.5088C25.5254 18.7971 25.6214 19.0644 25.7834 19.2792C25.903 19.4389 26.058 19.5685 26.2364 19.6579C26.4147 19.7473 26.6114 19.794 26.8109 19.7943H27.4538C27.6878 19.7943 27.9074 19.7307 28.097 19.6203C28.292 19.5074 28.4541 19.3453 28.5669 19.1502C28.6797 18.9551 28.7393 18.7338 28.7399 18.5085V15.9372C28.7387 15.5965 28.6028 15.2701 28.3619 15.0293C28.1209 14.7884 27.7945 14.6527 27.4538 14.6517Z" fill="#F79321"/>
</svg>
