<svg width="15" height="15" viewBox="0 0 15 15" fill="none" xmlns="http://www.w3.org/2000/svg">
<path d="M11.4984 14.1961C11.309 14.1716 11.1315 14.0898 10.9898 13.9617C10.9128 13.8989 10.8256 13.8498 10.732 13.8164C10.6392 13.8499 10.5528 13.8991 10.4766 13.9617C10.3944 14.0403 10.296 14.0997 10.1882 14.1358C10.0804 14.1718 9.96599 14.1836 9.85313 14.1703C9.77606 14.1498 9.70573 14.1094 9.64922 14.0531H3.04688C2.73607 14.0531 2.438 13.9297 2.21823 13.7099C1.99847 13.4901 1.875 13.1921 1.875 12.8813V2.10938C1.875 1.79858 1.99847 1.50051 2.21823 1.28074C2.438 1.06097 2.73607 0.937502 3.04688 0.937502H7.34531C7.49931 0.937227 7.65185 0.967307 7.79421 1.02602C7.93658 1.08474 8.06597 1.17094 8.175 1.27969L10.4391 3.54375C10.5481 3.65306 10.6345 3.78284 10.6932 3.92562C10.7519 4.06841 10.7818 4.22139 10.7812 4.37578V6.79688C10.7812 6.85904 10.7566 6.91865 10.7126 6.9626C10.6686 7.00656 10.609 7.03125 10.5469 7.03125C10.4847 7.03125 10.4251 7.00656 10.3811 6.9626C10.3372 6.91865 10.3125 6.85904 10.3125 6.79688V4.37578C10.3123 4.18937 10.2381 4.01064 10.1062 3.87891L7.84219 1.61485C7.77715 1.54911 7.69979 1.49685 7.61453 1.46106C7.52927 1.42526 7.43778 1.40664 7.34531 1.40625H3.04688C2.86039 1.40625 2.68155 1.48033 2.54969 1.61219C2.41783 1.74405 2.34375 1.9229 2.34375 2.10938V12.8906C2.34375 13.0771 2.41783 13.2559 2.54969 13.3878C2.68155 13.5197 2.86039 13.5938 3.04688 13.5938H9.375C9.35162 13.5336 9.31657 13.4786 9.27188 13.432C9.17721 13.4163 9.0806 13.4163 8.98594 13.432C8.8742 13.4591 8.75785 13.4612 8.64521 13.4381C8.53258 13.415 8.42643 13.3673 8.33438 13.2984C8.26724 13.2073 8.22073 13.1027 8.19807 12.9918C8.1754 12.8809 8.17713 12.7664 8.20312 12.6563C8.21865 12.5616 8.21865 12.465 8.20312 12.3703C8.13182 12.3129 8.05295 12.2656 7.96875 12.2297C7.7625 12.1336 7.53047 12.0258 7.46484 11.7844C7.4522 11.6719 7.46432 11.558 7.50036 11.4507C7.53639 11.3434 7.59547 11.2453 7.67344 11.1633C7.73706 11.0868 7.7863 10.9995 7.81875 10.9055C7.7863 10.8115 7.73706 10.7241 7.67344 10.6477C7.59533 10.5657 7.53617 10.4676 7.50013 10.3603C7.46408 10.253 7.45204 10.139 7.46484 10.0266C7.53047 9.79219 7.7625 9.67735 7.96875 9.58125C8.05295 9.54534 8.13182 9.49802 8.20312 9.44063C8.22023 9.34136 8.22023 9.2399 8.20312 9.14063C8.17602 9.02889 8.17395 8.91254 8.19704 8.7999C8.22013 8.68727 8.26783 8.58112 8.33672 8.48906C8.42878 8.42018 8.53492 8.37248 8.64756 8.34939C8.76019 8.32629 8.87654 8.32837 8.98828 8.35547C9.08294 8.37121 9.17956 8.37121 9.27422 8.35547C9.33312 8.28522 9.38058 8.20613 9.41484 8.1211C9.51094 7.91485 9.61875 7.68047 9.86016 7.61719C9.97302 7.60403 10.0874 7.6159 10.1951 7.65195C10.3029 7.688 10.4014 7.74735 10.4836 7.82578C10.5598 7.88844 10.6462 7.93759 10.7391 7.9711C10.8327 7.9377 10.9198 7.88856 10.9969 7.82578C11.0789 7.74708 11.1774 7.68755 11.2852 7.65148C11.393 7.61541 11.5074 7.6037 11.6203 7.61719C11.8547 7.68047 11.9695 7.91485 12.0633 8.1211C12.0985 8.20567 12.1458 8.28464 12.2039 8.35547C12.2994 8.37121 12.3967 8.37121 12.4922 8.35547C12.6039 8.32837 12.7203 8.32629 12.8329 8.34939C12.9455 8.37248 13.0517 8.42018 13.1438 8.48906C13.2112 8.58181 13.2573 8.68831 13.2788 8.80095C13.3002 8.91359 13.2966 9.02958 13.268 9.14063C13.2522 9.23529 13.2522 9.3319 13.268 9.42656C13.339 9.48442 13.4179 9.53178 13.5023 9.56719C13.7063 9.66328 13.9406 9.7711 14.0039 10.0125C14.0172 10.125 14.0054 10.2391 13.9693 10.3465C13.9333 10.4539 13.8738 10.5519 13.7953 10.6336C13.7325 10.7106 13.6834 10.7978 13.65 10.8914C13.6834 10.985 13.7325 11.0722 13.7953 11.1492C13.8737 11.231 13.933 11.3291 13.9691 11.4364C14.0051 11.5438 14.017 11.6578 14.0039 11.7703C13.9406 12.0047 13.7063 12.1195 13.5023 12.2156C13.4179 12.251 13.339 12.2984 13.268 12.3563C13.2522 12.4509 13.2522 12.5475 13.268 12.6422C13.2956 12.7537 13.2981 12.87 13.2754 12.9827C13.2527 13.0953 13.2054 13.2016 13.1367 13.2938C13.0447 13.3626 12.9385 13.4103 12.8259 13.4334C12.7132 13.4565 12.5969 13.4544 12.4852 13.4273C12.3897 13.4116 12.2923 13.4116 12.1969 13.4273C12.1388 13.4982 12.0914 13.5771 12.0562 13.6617C11.9625 13.868 11.8523 14.1023 11.6109 14.1656C11.5749 14.1804 11.5371 14.1907 11.4984 14.1961ZM9.15469 12.9539C9.2729 12.9482 9.39042 12.975 9.49453 13.0313C9.65659 13.1395 9.77913 13.2974 9.84375 13.4813C9.87774 13.5722 9.92775 13.6564 9.99141 13.7297C10.0742 13.6911 10.1528 13.644 10.2258 13.5891C10.373 13.4596 10.5561 13.3778 10.7508 13.3547C10.937 13.3837 11.1106 13.4668 11.25 13.5938C11.3209 13.6512 11.3998 13.6978 11.4844 13.732C11.5374 13.6591 11.5822 13.5805 11.618 13.4977C11.6781 13.311 11.7954 13.1478 11.9531 13.0313C12.1296 12.9527 12.3261 12.9306 12.5156 12.968C12.6095 12.9837 12.7053 12.9837 12.7992 12.968C12.8092 12.8761 12.8092 12.7833 12.7992 12.6914C12.7634 12.5026 12.7855 12.3073 12.8625 12.1313C12.976 11.9785 13.1328 11.8633 13.3125 11.8008C13.4033 11.7659 13.4879 11.7169 13.5633 11.6555C13.5237 11.5727 13.4758 11.4942 13.4203 11.4211C13.2908 11.2739 13.2091 11.0908 13.1859 10.8961C13.2091 10.7014 13.2908 10.5183 13.4203 10.3711C13.4785 10.3008 13.5252 10.2217 13.5586 10.1367C13.4856 10.0837 13.407 10.0389 13.3242 10.0031C13.1445 9.94057 12.9877 9.82543 12.8742 9.67266C12.797 9.4958 12.7749 9.29975 12.8109 9.11016C12.8267 9.01628 12.8267 8.92044 12.8109 8.82656C12.7198 8.81652 12.6278 8.81652 12.5367 8.82656C12.3407 8.86922 12.1361 8.84786 11.9531 8.76563C11.7998 8.65267 11.6846 8.49571 11.6227 8.31563C11.5906 8.22575 11.5439 8.14181 11.4844 8.06719C11.4016 8.10578 11.323 8.15291 11.25 8.20781C11.103 8.33769 10.9198 8.41947 10.725 8.44219C10.5303 8.41904 10.3472 8.33731 10.2 8.20781C10.1294 8.14996 10.0504 8.10332 9.96562 8.06953C9.91262 8.14252 9.86782 8.22111 9.83203 8.30391C9.77236 8.48515 9.65664 8.64273 9.50156 8.75391C9.32576 8.83197 9.1302 8.85406 8.94141 8.81719C8.84674 8.80145 8.75013 8.80145 8.65547 8.81719C8.64571 8.90912 8.64571 9.00182 8.65547 9.09375C8.69013 9.28262 8.66811 9.47753 8.59219 9.65391C8.47861 9.80759 8.32078 9.9229 8.13984 9.98438C8.04943 10.0195 7.96548 10.0694 7.89141 10.132C7.93152 10.214 7.97857 10.2924 8.03203 10.3664C8.16152 10.5136 8.24326 10.6967 8.26641 10.8914C8.24326 11.0861 8.16152 11.2692 8.03203 11.4164C7.97546 11.4879 7.92893 11.5667 7.89375 11.6508C7.97104 11.7035 8.0535 11.7483 8.13984 11.7844C8.32078 11.8459 8.47861 11.9612 8.59219 12.1148C8.66831 12.292 8.69032 12.4877 8.65547 12.6773C8.63995 12.7712 8.63995 12.867 8.65547 12.9609C8.74738 12.971 8.84012 12.971 8.93203 12.9609C9.01172 12.9609 9.08672 12.9539 9.16172 12.9539H9.15469ZM10.725 12.8906C10.331 12.8906 9.94581 12.7738 9.6182 12.5549C9.29059 12.336 9.03524 12.0248 8.88446 11.6608C8.73368 11.2968 8.69422 10.8962 8.77109 10.5098C8.84796 10.1233 9.0377 9.76836 9.31631 9.48975C9.59492 9.21114 9.9499 9.0214 10.3363 8.94453C10.7228 8.86766 11.1234 8.90711 11.4874 9.0579C11.8514 9.20868 12.1625 9.46403 12.3814 9.79164C12.6003 10.1193 12.7172 10.5044 12.7172 10.8984C12.7166 11.4254 12.5075 11.9307 12.1355 12.304C11.7635 12.6772 11.259 12.8882 10.732 12.8906H10.725ZM10.725 9.375C10.4237 9.375 10.1292 9.46435 9.87862 9.63175C9.6281 9.79914 9.43283 10.0371 9.31753 10.3154C9.20222 10.5938 9.17205 10.9001 9.23083 11.1956C9.28962 11.4912 9.43471 11.7626 9.64777 11.9757C9.86082 12.1887 10.1323 12.3338 10.4278 12.3926C10.7233 12.4514 11.0296 12.4212 11.308 12.3059C11.5864 12.1906 11.8243 11.9953 11.9917 11.7448C12.1591 11.4943 12.2484 11.1997 12.2484 10.8984C12.2478 10.4958 12.0881 10.1097 11.804 9.82436C11.52 9.539 11.1347 9.37748 10.732 9.375H10.725ZM11.2172 11.918C11.1542 11.9185 11.0922 11.9032 11.0367 11.8734L10.7531 11.7188L10.4602 11.8711C10.3963 11.9044 10.3244 11.9193 10.2526 11.9139C10.1808 11.9086 10.1118 11.8833 10.0536 11.8409C9.99538 11.7985 9.95014 11.7407 9.923 11.674C9.89586 11.6073 9.8879 11.5343 9.9 11.4633L9.95625 11.1398L9.72187 10.9055C9.67052 10.8551 9.63422 10.7915 9.61705 10.7216C9.59988 10.6518 9.60252 10.5786 9.62468 10.5102C9.64683 10.4418 9.68763 10.3809 9.74247 10.3344C9.79732 10.2879 9.86404 10.2576 9.93516 10.2469L10.2609 10.2L10.4062 9.90469C10.4377 9.83961 10.4871 9.7848 10.5485 9.74663C10.6099 9.70846 10.6808 9.6885 10.7531 9.68906C10.8251 9.68866 10.8957 9.70872 10.9567 9.74689C11.0177 9.78507 11.0666 9.83979 11.0977 9.90469L11.25 10.207L11.5758 10.2539C11.6471 10.2642 11.7141 10.2943 11.7692 10.3406C11.8244 10.387 11.8655 10.4478 11.8879 10.5163C11.9103 10.5848 11.9132 10.6582 11.8961 10.7282C11.8791 10.7982 11.8428 10.862 11.7914 10.9125L11.557 11.1469L11.6133 11.4703C11.6252 11.5414 11.6171 11.6144 11.5897 11.681C11.5624 11.7477 11.517 11.8054 11.4586 11.8477C11.3903 11.8962 11.3079 11.9209 11.2242 11.918H11.2172ZM10.1602 10.6945L10.3078 10.8375C10.3525 10.8809 10.3859 10.9345 10.4051 10.9938C10.4243 11.053 10.4287 11.116 10.418 11.1773L10.3828 11.3813L10.5656 11.2852C10.621 11.2562 10.6825 11.2411 10.7449 11.2411C10.8074 11.2411 10.8689 11.2562 10.9242 11.2852L11.107 11.3813L11.0719 11.1773C11.0612 11.116 11.0656 11.053 11.0848 10.9938C11.104 10.9345 11.1374 10.8809 11.182 10.8375L11.3297 10.6945L11.1258 10.6641C11.0641 10.6545 11.0056 10.6303 10.955 10.5937C10.9045 10.557 10.8634 10.5088 10.8352 10.4531L10.7461 10.268L10.6547 10.4531C10.6268 10.509 10.5858 10.5574 10.5352 10.5941C10.4846 10.6308 10.4259 10.6548 10.3641 10.6641L10.1602 10.6945ZM6.79688 11.7188H3.75C3.68784 11.7188 3.62823 11.6941 3.58427 11.6501C3.54032 11.6062 3.51562 11.5465 3.51562 11.4844C3.51562 11.4222 3.54032 11.3626 3.58427 11.3186C3.62823 11.2747 3.68784 11.25 3.75 11.25H6.79688C6.85904 11.25 6.91865 11.2747 6.9626 11.3186C7.00656 11.3626 7.03125 11.4222 7.03125 11.4844C7.03125 11.5465 7.00656 11.6062 6.9626 11.6501C6.91865 11.6941 6.85904 11.7188 6.79688 11.7188ZM6.09375 10.0781H3.75C3.68784 10.0781 3.62823 10.0534 3.58427 10.0095C3.54032 9.96553 3.51562 9.90591 3.51562 9.84375C3.51562 9.78159 3.54032 9.72198 3.58427 9.67802C3.62823 9.63407 3.68784 9.60938 3.75 9.60938H6.09375C6.15591 9.60938 6.21552 9.63407 6.25948 9.67802C6.30343 9.72198 6.32812 9.78159 6.32812 9.84375C6.32812 9.90591 6.30343 9.96553 6.25948 10.0095C6.21552 10.0534 6.15591 10.0781 6.09375 10.0781ZM7.03125 8.4375H3.75C3.68784 8.4375 3.62823 8.41281 3.58427 8.36885C3.54032 8.3249 3.51562 8.26529 3.51562 8.20313C3.51562 8.14097 3.54032 8.08135 3.58427 8.0374C3.62823 7.99344 3.68784 7.96875 3.75 7.96875H7.03125C7.09341 7.96875 7.15302 7.99344 7.19698 8.0374C7.24093 8.08135 7.26562 8.14097 7.26562 8.20313C7.26562 8.26529 7.24093 8.3249 7.19698 8.36885C7.15302 8.41281 7.09341 8.4375 7.03125 8.4375ZM8.4375 6.79688H3.75C3.68784 6.79688 3.62823 6.77218 3.58427 6.72823C3.54032 6.68428 3.51562 6.62466 3.51562 6.5625C3.51562 6.50034 3.54032 6.44073 3.58427 6.39677C3.62823 6.35282 3.68784 6.32813 3.75 6.32813H8.4375C8.49966 6.32813 8.55927 6.35282 8.60323 6.39677C8.64718 6.44073 8.67188 6.50034 8.67188 6.5625C8.67188 6.62466 8.64718 6.68428 8.60323 6.72823C8.55927 6.77218 8.49966 6.79688 8.4375 6.79688ZM7.5 5.15625H3.75C3.68784 5.15625 3.62823 5.13156 3.58427 5.0876C3.54032 5.04365 3.51562 4.98404 3.51562 4.92188C3.51562 4.85972 3.54032 4.8001 3.58427 4.75615C3.62823 4.71219 3.68784 4.6875 3.75 4.6875H7.5C7.56216 4.6875 7.62177 4.71219 7.66573 4.75615C7.70968 4.8001 7.73438 4.85972 7.73438 4.92188C7.73438 4.98404 7.70968 5.04365 7.66573 5.0876C7.62177 5.13156 7.56216 5.15625 7.5 5.15625ZM9.375 4.45313H8.4375C8.1267 4.45313 7.82863 4.32966 7.60886 4.10989C7.38909 3.89012 7.26562 3.59205 7.26562 3.28125V2.34375C7.26562 2.28159 7.29032 2.22198 7.33427 2.17802C7.37823 2.13407 7.43784 2.10938 7.5 2.10938C7.56216 2.10938 7.62177 2.13407 7.66573 2.17802C7.70968 2.22198 7.73438 2.28159 7.73438 2.34375V3.28125C7.73438 3.46773 7.80845 3.64657 7.94032 3.77844C8.07218 3.9103 8.25102 3.98438 8.4375 3.98438H9.375C9.43716 3.98438 9.49677 4.00907 9.54073 4.05302C9.58468 4.09698 9.60938 4.15659 9.60938 4.21875C9.60938 4.28091 9.58468 4.34053 9.54073 4.38448C9.49677 4.42843 9.43716 4.45313 9.375 4.45313ZM6.32812 3.51563H3.75C3.68784 3.51563 3.62823 3.49093 3.58427 3.44698C3.54032 3.40303 3.51562 3.34341 3.51562 3.28125C3.51562 3.21909 3.54032 3.15948 3.58427 3.11552C3.62823 3.07157 3.68784 3.04688 3.75 3.04688H6.32812C6.39029 3.04688 6.4499 3.07157 6.49385 3.11552C6.53781 3.15948 6.5625 3.21909 6.5625 3.28125C6.5625 3.34341 6.53781 3.40303 6.49385 3.44698C6.4499 3.49093 6.39029 3.51563 6.32812 3.51563Z" fill="white"/>
</svg>
