<svg width="15" height="15" viewBox="0 0 15 15" fill="none" xmlns="http://www.w3.org/2000/svg">
<path d="M8.76378 4.375H9.38878C9.55448 4.37521 9.71332 4.44113 9.83049 4.55829C9.94765 4.67546 10.0136 4.8343 10.0138 5V5.625C10.0138 5.79076 10.0796 5.94973 10.1968 6.06694C10.3141 6.18415 10.473 6.25 10.6388 6.25C10.8045 6.25 10.9635 6.18415 11.0807 6.06694C11.1979 5.94973 11.2638 5.79076 11.2638 5.625V5C11.2632 4.50288 11.0655 4.02629 10.714 3.67477C10.3625 3.32326 9.8859 3.12554 9.38878 3.125H8.76378C8.59802 3.125 8.43905 3.19085 8.32184 3.30806C8.20463 3.42527 8.13878 3.58424 8.13878 3.75C8.13878 3.91576 8.20463 4.07473 8.32184 4.19194C8.43905 4.30915 8.59802 4.375 8.76378 4.375ZM6.26378 10H5.63878C5.47309 9.99978 5.31424 9.93387 5.19708 9.8167C5.07992 9.69954 5.014 9.54069 5.01378 9.375V8.75C5.01378 8.58424 4.94794 8.42527 4.83073 8.30806C4.71352 8.19085 4.55454 8.125 4.38878 8.125C4.22302 8.125 4.06405 8.19085 3.94684 8.30806C3.82963 8.42527 3.76378 8.58424 3.76378 8.75V9.375C3.76433 9.87211 3.96205 10.3487 4.31356 10.7002C4.66507 11.0517 5.14167 11.2495 5.63878 11.25H6.26378C6.42954 11.25 6.58852 11.1842 6.70573 11.0669C6.82294 10.9497 6.88878 10.7908 6.88878 10.625C6.88878 10.4592 6.82294 10.3003 6.70573 10.1831C6.58852 10.0658 6.42954 10 6.26378 10ZM13.1388 9.375C13.3045 9.375 13.4635 9.30915 13.5807 9.19194C13.6979 9.07473 13.7638 8.91576 13.7638 8.75C13.7638 8.58424 13.6979 8.42527 13.5807 8.30806C13.4635 8.19085 13.3045 8.125 13.1388 8.125H11.2638V7.8125C11.2638 7.64674 11.1979 7.48777 11.0807 7.37056C10.9635 7.25335 10.8045 7.1875 10.6388 7.1875C10.473 7.1875 10.3141 7.25335 10.1968 7.37056C10.0796 7.48777 10.0138 7.64674 10.0138 7.8125V8.125H8.13878C7.97302 8.125 7.81405 8.19085 7.69684 8.30806C7.57963 8.42527 7.51378 8.58424 7.51378 8.75C7.51378 8.91576 7.57963 9.07473 7.69684 9.19194C7.81405 9.30915 7.97302 9.375 8.13878 9.375H11.379C11.2376 9.94941 10.9766 10.4875 10.613 10.9542C10.4642 10.7613 10.3327 10.5558 10.2198 10.34C10.1823 10.2669 10.1309 10.202 10.0684 10.1489C10.0059 10.0957 9.93347 10.0554 9.85537 10.0303C9.77727 10.0051 9.69498 9.99558 9.6132 10.0022C9.53141 10.0089 9.45174 10.0315 9.37872 10.069C9.3057 10.1064 9.24077 10.1578 9.18763 10.2204C9.1345 10.2829 9.0942 10.3553 9.06903 10.4334C9.01821 10.5911 9.03213 10.7626 9.10772 10.91C9.27604 11.2353 9.47688 11.5427 9.70716 11.8275C9.2537 12.1568 8.73807 12.3905 8.19157 12.5144C8.02991 12.55 7.889 12.6484 7.79975 12.7878C7.71051 12.9272 7.68023 13.0964 7.71555 13.2581C7.75087 13.4198 7.84891 13.561 7.98815 13.6505C8.1274 13.74 8.29648 13.7707 8.45828 13.7357C9.24247 13.5623 9.97806 13.216 10.6114 12.7222C11.2501 13.2163 11.9905 13.5623 12.7793 13.7354C12.8594 13.7531 12.9423 13.7548 13.0231 13.7404C13.1039 13.7261 13.1811 13.696 13.2503 13.6518C13.3194 13.6076 13.3792 13.5502 13.4262 13.4829C13.4732 13.4157 13.5065 13.3398 13.5242 13.2596C13.5419 13.1795 13.5436 13.0966 13.5292 13.0158C13.5149 12.935 13.4848 12.8578 13.4406 12.7886C13.3964 12.7194 13.339 12.6596 13.2718 12.6126C13.2045 12.5656 13.1286 12.5324 13.0484 12.5147C12.4983 12.3924 11.9784 12.1607 11.5196 11.8334C12.0975 11.122 12.4871 10.2765 12.6524 9.375H13.1388ZM5.65738 7.02667C5.69802 7.18705 5.80058 7.32478 5.94259 7.40967C6.08461 7.49456 6.25448 7.51968 6.41498 7.47954C6.57549 7.43939 6.71353 7.33725 6.79885 7.1955C6.88417 7.05374 6.90981 6.88395 6.87015 6.72332L5.77182 2.32971C5.69468 2.0213 5.51666 1.74752 5.26607 1.55189C5.01547 1.35626 4.70668 1.25 4.38877 1.25C4.07085 1.25 3.76206 1.35626 3.51147 1.55189C3.26087 1.74752 3.08286 2.0213 3.00571 2.32971L1.90738 6.72332C1.86773 6.88395 1.89337 7.05374 1.97869 7.1955C2.06401 7.33725 2.20205 7.43939 2.36256 7.47954C2.52306 7.51968 2.69293 7.49456 2.83494 7.40967C2.97695 7.32478 3.07952 7.18705 3.12015 7.02667L3.47053 5.625H5.307L5.65738 7.02667ZM3.78303 4.375L4.21848 2.63305C4.23156 2.59847 4.25486 2.56869 4.28528 2.54768C4.3157 2.52666 4.35179 2.5154 4.38877 2.5154C4.42574 2.5154 4.46184 2.52666 4.49225 2.54768C4.52267 2.56869 4.54597 2.59847 4.55905 2.63305L4.9945 4.375H3.78303Z" fill="white"/>
</svg>
